<svg xmlns="http://www.w3.org/2000/svg" width="1085.236" height="5881" viewBox="0 0 1085.236 5881"><defs><style>.a{fill:none;stroke:#707070;stroke-dasharray:16;}.b{fill:#3a9efd;opacity:0.12;}.c{fill:#86aed5;}.d{fill:#e7f3ff;}</style></defs><g transform="translate(-209.912 -154)"><path class="a" d="M2912.267,373.86s149.422,662.449-449.925,1090.554,445.82,1071.739,481.249,1647.466-673.306,825.442-731.685,1247.066,90.811,882.168,771.9,1375.144c101.482,73.454,171.426,168.508,214.264,279.107" transform="translate(-1990)"/><circle class="b" cx="38" cy="38" r="38" transform="translate(306 163)"/><g transform="translate(334 153)"><path class="c" d="M37,54H35V44.2a1,1,0,0,0-2,0V54H7V34h8.32a1,1,0,0,0,0-2H6a1,1,0,0,0-1,1V54H3a1,1,0,0,0-1,1v2a5,5,0,0,0,5,5H33a5,5,0,0,0,5-5V55A1,1,0,0,0,37,54Zm-1,3a3,3,0,0,1-3,3H31V59a1,1,0,0,0-2,0v1H11V59a1,1,0,0,0-2,0v1H7a3,3,0,0,1-3-3V56H36Z"/><path class="c" d="M54,8h2a1,1,0,0,0,0-2H54a3,3,0,0,0-3,3v1H50a1,1,0,0,0,0,2h1v3a1,1,0,0,0,2,0V12h1a1,1,0,0,0,0-2H53V9A1,1,0,0,1,54,8Z"/><path class="c" d="M59,2H47a3,3,0,0,0-3,3V7a1,1,0,0,0,2,0V5a1,1,0,0,1,1-1H59a1,1,0,0,1,1,1V17a1,1,0,0,1-1,1H47a1,1,0,0,1-1-1V11a1,1,0,0,0-2,0v6a3,3,0,0,0,3,3H59a3,3,0,0,0,3-3V5a3,3,0,0,0-3-3Z"/><path class="c" d="M49,42a4,4,0,1,0,4-4A4,4,0,0,0,49,42Zm6,0a2,2,0,1,1-2-2A2,2,0,0,1,55,42Z"/><path class="c" d="M59,33H47a3,3,0,0,0-3,3V48a3,3,0,0,0,3,3H59a3,3,0,0,0,3-3V46a1,1,0,0,0-2,0v2a1,1,0,0,1-1,1H47a1,1,0,0,1-1-1V36a1,1,0,0,1,1-1H59a1,1,0,0,1,1,1v6a1,1,0,0,0,2,0V36a3,3,0,0,0-3-3Z"/><path class="c" d="M24.47,13.85a.995.995,0,0,0,.98.04l6-3a1,1,0,0,0,0-1.78l-6-3A1,1,0,0,0,24,7v6A1,1,0,0,0,24.47,13.85ZM26,8.62,28.76,10,26,11.38Z"/><path class="c" d="M27,19a9,9,0,1,0-9-9A9,9,0,0,0,27,19ZM27,3a7,7,0,1,1-7,7,7,7,0,0,1,7-7Z"/><path class="c" d="M37,23a1,1,0,0,0,.8-.4l3-4a1,1,0,1,0-1.6-1.2l-3,4A1,1,0,0,0,37,23Z"/><path class="c" d="M39.2,26.6a1,1,0,0,0,1.4.2l4-3a1,1,0,1,0-1.2-1.6l-4,3a1,1,0,0,0-.2,1.4Z"/><path class="c" d="M49,28.8a1,1,0,0,0-1.2-.8l-5,1a1,1,0,0,0,.2,2h.2l5-1a1,1,0,0,0,.8-1.2Z"/><path class="c" d="M3,29H15a1,1,0,0,0,1-1V12a1,1,0,0,0-1-1H3a1,1,0,0,0-1,1V28A1,1,0,0,0,3,29ZM4,13H14V27H4Z"/><path class="c" d="M11,15H9a1,1,0,0,0,0,2h2a1,1,0,0,0,0-2Z"/><path class="c" d="M11,19H7a1,1,0,0,0,0,2h4a1,1,0,0,0,0-2Z"/><path class="c" d="M11,23H7a1,1,0,0,0,0,2h4a1,1,0,0,0,0-2Z"/><path class="c" d="M36.12,28.7a1,1,0,1,0-1.74,1l4.41,7.63-16,6h-.15l-2.6,1.5-1.73,1a2,2,0,0,1-2.73-.73l-2-3.46A2,2,0,0,1,14.33,39l3.46-2,2.5,4.33a1,1,0,1,0,1.74-1l-2.58-4.46L32,25.52l.41.71a1,1,0,0,0,1.74-1l-1-1.73a1.013,1.013,0,0,0-1.51-.27l-14,11.54-4.26,2.46a4,4,0,0,0-1.84,4.53l-1,.57a3,3,0,0,0,1.5,5.6,3.06,3.06,0,0,0,1.5-.4l1-.57A3.88,3.88,0,0,0,16.29,48a3.79,3.79,0,0,0,1.05.14,3.94,3.94,0,0,0,2-.54l.87-.5,2,3.47a3,3,0,1,0,5.19-3L25.58,44.4l15-5.63a1,1,0,0,0,.52-1.43ZM12.5,45.79a1,1,0,1,1-1-1.73l.87-.5,1,1.73Zm13.16,2.8a1,1,0,0,1-1.73,1l-2-3.47,1.66-.95h.08Z"/></g><path class="c" d="M69.683,0h-2.8a.954.954,0,0,0,0,1.908h2.8a5.239,5.239,0,0,1,5.242,5.223V29.2a5.239,5.239,0,0,1-5.242,5.224H66.508a.954.954,0,0,0-.58.2L60.1,39.08v-3.7a.954.954,0,0,0-.954-.954H47.541a5.216,5.216,0,0,1-2.67-.728V22.993A5.82,5.82,0,0,0,42.3,18.168V7.131a5.239,5.239,0,0,1,5.243-5.223H60.906a.954.954,0,0,0,0-1.908H47.541a7.149,7.149,0,0,0-7.15,7.131v10.2a5.848,5.848,0,0,0-1.36-.161H21.571a5.839,5.839,0,0,0-5.84,5.825v2.06a.954.954,0,0,0,1.908,0v-2.06a3.929,3.929,0,0,1,3.932-3.918h17.46a3.929,3.929,0,0,1,3.933,3.918V34.08a.954.954,0,0,0,0,.253V40.4c0,.12-.007.239-.018.358H40.979a4.425,4.425,0,0,0-4.349,3.62.956.956,0,0,0-.247.138L32.117,47.81V45.271a.954.954,0,0,0-.954-.954H21.571A3.929,3.929,0,0,1,17.639,40.4V30.776a.954.954,0,0,0-1.908,0V40.4a5.839,5.839,0,0,0,5.84,5.825h8.638v3.526a.968.968,0,0,0,1.537.755l4.812-3.715v10.73a4.421,4.421,0,0,0,4.421,4.411h5.853v2.226a.968.968,0,0,0,1.537.755l3.86-2.981h1.14a4.421,4.421,0,0,0,4.421-4.411V55.828a.954.954,0,0,0-1.908,0v1.693a2.511,2.511,0,0,1-2.514,2.5H51.9a.954.954,0,0,0-.583.2l-2.581,1.993V60.979a.954.954,0,0,0-.954-.954H40.979a2.511,2.511,0,0,1-2.514-2.5V45.169a2.511,2.511,0,0,1,2.514-2.5H53.369a2.511,2.511,0,0,1,2.514,2.5v4.682a.954.954,0,0,0,1.908,0V45.169a4.421,4.421,0,0,0-4.421-4.411H44.86c.007-.119.011-4.937.011-4.937a7.139,7.139,0,0,0,2.67.514H58.2v4.675a.968.968,0,0,0,1.533.758l7.1-5.432h2.852a7.149,7.149,0,0,0,7.15-7.131V7.131A7.149,7.149,0,0,0,69.683,0Z" transform="translate(1085.951 555.412)"/><path class="c" d="M279.977,54.641a1.988,1.988,0,0,0-2.445,1.9,5.6,5.6,0,0,1-1.4,3.709L273.5,63.224a.952.952,0,0,0-.8-.434h-5.13a.954.954,0,0,0-.954.954V75.286a.954.954,0,0,0,.954.954h5.13a.953.953,0,0,0,.867-.558,6.664,6.664,0,0,0,3.467.978H286.1a2.5,2.5,0,0,0,2.463-2.584c-.029-.612,0-8.829,0-9.011a2.468,2.468,0,0,0-2.463-2.466l-4.715-.014.2-.462a7.447,7.447,0,0,0-.392-6.554,1.944,1.944,0,0,0-1.217-.927Zm-8.228,19.691h-3.223V64.7h3.223ZM286.1,64.506a.559.559,0,0,1,.559.559c0,.181,0,.674,0,1.342-.014,3.687-.024,7.179,0,7.759a.558.558,0,0,1-.558.587h-9.066a4.749,4.749,0,0,1-2.978-1.055l-.4-.325V65.929l3.9-4.417a7.51,7.51,0,0,0,1.88-4.972.053.053,0,0,1,.1-.026,5.529,5.529,0,0,1,.291,4.865l-.753,1.783a.954.954,0,0,0,.876,1.325Z" transform="translate(866.969 507.817)"/><path class="c" d="M73.4,202.019a.954.954,0,1,0,0,1.908h2.812l-.525,3.177a.954.954,0,1,0,1.882.311l.577-3.488h2.3l-.525,3.177a.954.954,0,1,0,1.882.311l.577-3.488h3.827a.954.954,0,1,0,0-1.908H82.7l.385-2.327h3.127a.954.954,0,1,0,0-1.908H83.4l.525-3.177a.954.954,0,0,0-1.882-.311l-.577,3.488h-2.3l.525-3.177a.954.954,0,1,0-1.882-.311l-.577,3.488H73.4a.954.954,0,1,0,0,1.908h3.512l-.385,2.327Zm5.445-2.327h2.3l-.385,2.327h-2.3Z" transform="translate(1036.444 386.521)"/><circle class="b" cx="38" cy="38" r="38" transform="translate(1109 565)"/><circle class="d" cx="38" cy="38" r="38" transform="translate(653 1211.25)"/><g transform="translate(677.552 1193.749)"><path class="c" d="M51.768,44a13.438,13.438,0,0,0-.024-5.1l4.58-11.053a.162.162,0,0,0,0-.022,18.78,18.78,0,0,1,3.215-5.582,1.491,1.491,0,0,0,.369-1.365l-1.878-8.11a.977.977,0,0,0-.1-.242c-.008-.015-.011-.033-.019-.047s-.043-.048-.063-.074a1.009,1.009,0,0,0-.141-.165.929.929,0,0,0-.109-.066,1.019,1.019,0,0,0-.155-.094.988.988,0,0,0-.234-.057c-.023,0-.043-.015-.066-.017a1,1,0,0,0-.551.123c-.015.008-.033.011-.048.02h-.01l-7.061,4.407a1.492,1.492,0,0,0-.706,1.23,18.771,18.771,0,0,1-1.681,6.233v.011L44.8,29.563a13.415,13.415,0,0,0-3.572-1.29,54.028,54.028,0,0,0,.518-9.833,10.914,10.914,0,0,0,2.482-8.012C43.6,4.6,38.333.391,38.108.214a1,1,0,0,0-1.585,1.043c.515,1.934.069,3.975-3.735,8.172a5.852,5.852,0,0,0-1.371,6.377,7.763,7.763,0,0,0,1.424,2.3c-.242,1.545-.432,3.008-.563,4.433a50.079,50.079,0,0,0-.174,7.092,13.607,13.607,0,0,0-2.49,1.735l-4.85-20.74c0-.021-.02-.036-.026-.055a.946.946,0,0,0-.07-.193L19.714,1.229a2.309,2.309,0,0,0-4.338,1.016L15,12.64a1.033,1.033,0,0,0,.025.223v.045l4.948,21.117a11.261,11.261,0,0,0-2.312.345L12.218,21.225a2.021,2.021,0,0,0-2.61-1.069L1.289,23.6A2.006,2.006,0,0,0,.206,26.213L7.588,44.021A8,8,0,0,0,8,60H52a8,8,0,1,0-.232-16ZM50.749,18.116,54.941,15.5l-1.484,3.584a1,1,0,1,0,1.848.766l1.484-3.584L57.9,21.079A19.778,19.778,0,0,0,55,25.866a4.113,4.113,0,0,1-5.59-2.312A19.754,19.754,0,0,0,50.749,18.116Zm-2.3,7.851a6.091,6.091,0,0,0,2.493,1.815,6.347,6.347,0,0,0,2.447.516,5.291,5.291,0,0,0,.606-.037l-3.191,7.7a13.572,13.572,0,0,0-4.294-5.309Zm-13.7-7.142,5.024.307c.031.934.02,1.9-.011,2.881a21.021,21.021,0,0,1-5.01-.242c-.126-.018-.249-.032-.374-.049.1-.942.222-1.9.369-2.9Zm-.477-8.053c2.655-2.929,4.031-5.182,4.351-7.3a13.374,13.374,0,0,1,3.609,7.168,8.96,8.96,0,0,1-2.024,6.512q-2.963-.18-5.861-.36a4.171,4.171,0,0,1-.077-6.02ZM34.2,23.715l.29.038a28.486,28.486,0,0,0,3.893.331c.414,0,.85-.033,1.287-.067-.091,1.287-.24,2.631-.429,4.02C38.99,28.024,38.748,28,38.5,28a13.393,13.393,0,0,0-4.432.763,48.255,48.255,0,0,1,.126-5.048ZM26.461,35.409,23.6,23.222a1,1,0,0,0-1.947.456l2.571,10.969a11.326,11.326,0,0,0-2.18-.543l-4.389-18.73a4.739,4.739,0,0,0,1.958.426c.063,0,.13-.009.194-.012l.707,3.019a1,1,0,1,0,1.947-.456l-.708-3.021A4.736,4.736,0,0,0,23.5,14l4.462,19.079A13.417,13.417,0,0,0,26.461,35.409Zm-6.11-21.7a3.32,3.32,0,0,1-3.339-1.337l.127-3.522a5.885,5.885,0,0,0,1.055.1,4.456,4.456,0,0,0,1.016-.113,5.094,5.094,0,0,0,1.854-.922l1.684,3.108a3.317,3.317,0,0,1-2.4,2.688ZM17.612,2.027a.312.312,0,0,1,.344.154L20.1,6.146a3.412,3.412,0,0,1-1.35.75,3.4,3.4,0,0,1-1.541-.073l.163-4.506A.31.31,0,0,1,17.612,2.027ZM10.375,22l.764,1.846-3.7,1.532A1,1,0,0,0,7.824,27.3a1.015,1.015,0,0,0,.383-.076l3.7-1.533.765,1.848-1.851.767A1,1,0,0,0,11.2,30.23a1.017,1.017,0,0,0,.382-.076l1.851-.767.765,1.848L10.5,32.77a1,1,0,0,0,.384,1.924,1.013,1.013,0,0,0,.382-.076l3.7-1.532.809,1.953A11.609,11.609,0,0,0,9.3,42.92L2.052,25.444ZM52,58H8A6,6,0,0,1,8,46a5.891,5.891,0,0,1,1.711.248A1,1,0,0,0,11,45.309,9.5,9.5,0,0,1,26.2,37.9a1,1,0,0,0,1.533-.45,11.5,11.5,0,0,1,21.762,7.424,1,1,0,0,0,1.17,1.272A6.243,6.243,0,0,1,52,46a6,6,0,0,1,0,12Z"/><path class="c" d="M38.685,15.7a1,1,0,0,0,.8-.395,7.5,7.5,0,0,0,1.33-5.888,1,1,0,1,0-1.932.515,5.555,5.555,0,0,1-.992,4.166,1,1,0,0,0,.8,1.6Z"/><path class="c" d="M37.37,46a4.916,4.916,0,0,0-2.145.5A6,6,0,0,0,24.86,52.39a1,1,0,0,0,.92.608.989.989,0,0,0,.392-.08,1,1,0,0,0,.528-1.312A4.073,4.073,0,0,1,26.37,50a4,4,0,0,1,4-4,3.96,3.96,0,0,1,3.615,2.3,1.085,1.085,0,0,0,.07.094,1.016,1.016,0,0,0,.053.1c.018.022.044.032.064.053a1.4,1.4,0,0,0,.315.23,1,1,0,0,0,.18.056.92.92,0,0,0,.188.029,1.229,1.229,0,0,0,.382-.064.763.763,0,0,0,.079-.019.906.906,0,0,0,.093-.069,1.04,1.04,0,0,0,.1-.054A2.949,2.949,0,0,1,37.37,48a3,3,0,0,1,2.72,1.745,1,1,0,1,0,1.82-.83A5,5,0,0,0,37.37,46Z"/><path class="c" d="M17.684,39.051C17.533,39.1,14,40.322,14,44a1,1,0,0,0,2,0,3.438,3.438,0,0,1,2.322-3.053,1,1,0,0,0-.638-1.9Z"/><path class="c" d="M31.757,37.97A.976.976,0,0,0,32,38a1,1,0,0,0,.969-.757A4.265,4.265,0,0,1,37.005,34,1,1,0,0,0,37,32a6.229,6.229,0,0,0-5.97,4.757A1,1,0,0,0,31.757,37.97Z"/></g><circle class="d" cx="38" cy="38" r="38" transform="translate(253.904 1776.499)"/><path class="c" d="M255.944,430.322a2.464,2.464,0,1,0-2.464,2.464A2.467,2.467,0,0,0,255.944,430.322Zm-2.464.714a.714.714,0,1,1,.714-.714A.714.714,0,0,1,253.48,431.036Z" transform="translate(46.431 1386.037)"/><path class="c" d="M222.176,118.107a6.6,6.6,0,0,0-3.644,12.1c.013.009.025.019.039.028a6.6,6.6,0,0,0,3.606,1.073,6.77,6.77,0,0,0,3.644-1.1,6.6,6.6,0,0,0-3.644-12.1Zm1.7,11.141a4.841,4.841,0,0,1-3.4,0l-.048-.019a2.785,2.785,0,0,1,3.5,0Zm1.582-.976a4.526,4.526,0,0,0-6.568,0,4.849,4.849,0,1,1,6.568,0Z" transform="translate(77.735 1659.641)"/><path class="c" d="M251.282,142.976a2.755,2.755,0,1,0,2.755,2.755A2.758,2.758,0,0,0,251.282,142.976Zm0,3.759a1,1,0,1,1,1-1A1.005,1.005,0,0,1,251.282,146.735Z" transform="translate(48.63 1637.674)"/><path class="c" d="M253.3,55.508h2.848a.875.875,0,0,0,0-1.75H253.3a.875.875,0,0,0,0,1.75Z" transform="translate(45.183 1716.481)"/><path class="c" d="M231.457,252.892H222.29a1.4,1.4,0,0,0-1.4,1.4v2.8a1.4,1.4,0,0,0,1.4,1.4h9.167a1.4,1.4,0,0,0,1.4-1.4v-2.8A1.4,1.4,0,0,0,231.457,252.892Zm-.354,3.837h-8.458v-2.087H231.1Z" transform="translate(73.038 1540.585)"/><path class="c" d="M187.361,322.448h-9.167a1.4,1.4,0,0,0-1.4,1.4.875.875,0,0,0,1.676.354h8.533v2.087H171.847a.875.875,0,0,0,0,1.75h15.513a1.4,1.4,0,0,0,1.4-1.4v-2.8a1.4,1.4,0,0,0-1.4-1.4Z" transform="translate(117.134 1479.146)"/><path class="c" d="M58.874,38.752H48.728V24.55a3.827,3.827,0,0,0-3.823-3.823h-26.3a3.827,3.827,0,0,0-3.823,3.823V37.165l-2.534-4.388A2.871,2.871,0,0,0,9.5,28.024,5.045,5.045,0,0,0,.4,29.47a5.007,5.007,0,0,0,.375,3.591,2.873,2.873,0,0,0,2.1,4.834,2.828,2.828,0,0,0,.639-.074l9.2,15.927h0l.006.011.011.016c.133.219.075.142,2.06,1.515V71.816a3.827,3.827,0,0,0,3.823,3.823h11.4a.875.875,0,0,0,0-1.75h-11.4a2.075,2.075,0,0,1-2.073-2.073v-4.3H46.978v4.3a2.075,2.075,0,0,1-2.073,2.073h-11.4a.875.875,0,0,0,0,1.75h11.4a3.827,3.827,0,0,0,3.823-3.823V59.5H58.874a.875.875,0,1,0,0-1.75H48.728V40.5H58.874a.875.875,0,1,0,0-1.75ZM2.09,29.924A3.294,3.294,0,0,1,7.907,28.8L2.242,32.07A3.268,3.268,0,0,1,2.09,29.924Zm1.369,6.053h0l-.029.017a1.12,1.12,0,0,1-1.12-1.94l7.25-4.185h0l.027-.016a1.12,1.12,0,1,1,1.12,1.94Zm9.75,15.136L5.092,37.055l2.1-1.21,1.539,2.666a.875.875,0,0,0,1.516-.875L8.7,34.97l2.1-1.21,4.092,7.088,0,0,4.022,6.966a2.4,2.4,0,0,0-2.094,1.212l-4.792-8.3a.875.875,0,1,0-1.516.875l4.79,8.3a2.414,2.414,0,0,0-2.095,1.211Zm2.944,2.995,0,0-1.741-1.2a1.647,1.647,0,0,1,.56-1.162c.327-.189.946-.087,1.744.287l.022.009a.874.874,0,0,0,1.22-.711c0-.005,0-.011,0-.016.075-.878.3-1.466.623-1.654a1.647,1.647,0,0,1,1.286.1l.306,3.79-2.634,1.521Zm4.175,1.367.1,1.221a.182.182,0,0,1-.285.165l-1.009-.7Zm26.65-16.722H40.667a.875.875,0,1,0,0,1.75h6.311V57.75H40.667a.875.875,0,1,0,0,1.75h6.311v6.266H16.536V56.5l2.61,1.8a1.933,1.933,0,0,0,3.024-1.746c-.629-7.788-.59-7.568-.679-7.765-.008-.017-.037-.073-.038-.076L16.537,40.2V24.55a2.075,2.075,0,0,1,2.073-2.073h26.3a2.075,2.075,0,0,1,2.073,2.073v14.2Z" transform="translate(268.154 1745.657)"/><path class="c" d="M454.87,148.917h-5.682a.875.875,0,1,0,0,1.75h5.682a.875.875,0,0,0,0-1.75Z" transform="translate(-127.842 1632.427)"/><path class="c" d="M449.188,124.4h5.682a.875.875,0,0,0,0-1.75h-5.682a.875.875,0,1,0,0,1.75Z" transform="translate(-127.842 1655.628)"/><path class="c" d="M454.87,311.708h-5.682a.875.875,0,1,0,0,1.75h5.682a.875.875,0,0,0,0-1.75Z" transform="translate(-127.842 1488.633)"/><path class="c" d="M454.87,285.44h-5.682a.875.875,0,0,0,0,1.75h5.682a.875.875,0,0,0,0-1.75Z" transform="translate(-127.842 1511.836)"/><circle class="d" cx="38" cy="38" r="38" transform="translate(493.25 2278)"/><path class="c" d="M31.879,52.9a2.879,2.879,0,1,0,2.879,2.879A2.883,2.883,0,0,0,31.879,52.9Zm0,3.839a.96.96,0,1,1,.96-.96A.961.961,0,0,1,31.879,56.744Z" transform="translate(507.622 2260.248)"/><path class="c" d="M55.7,17.219H47.064v-9.6A6.725,6.725,0,0,0,40.346.905H21.153a6.725,6.725,0,0,0-6.718,6.718V10.5H1.96a.96.96,0,0,0-.96.96V24.9a.96.96,0,0,0,.96.96H14.435v9.6H3.879A2.883,2.883,0,0,0,1,38.332V49.848a2.883,2.883,0,0,0,2.879,2.879H14.435v.96A6.725,6.725,0,0,0,21.153,60.4H40.346a6.725,6.725,0,0,0,6.718-6.718V36.413H55.7a4.8,4.8,0,0,0,4.8-4.8v-9.6a4.8,4.8,0,0,0-4.8-4.8ZM21.153,2.824H40.346a4.807,4.807,0,0,1,4.7,3.839h-28.6a4.807,4.807,0,0,1,4.7-3.839Zm-2.736,9.6L11.556,17.91,4.7,12.422H18.417Zm-15.5,1.037,8.037,6.43a.961.961,0,0,0,1.2,0l8.037-6.43v10.48H2.919Zm13.435,12.4h4.8a.96.96,0,0,0,.96-.96V11.461a.96.96,0,0,0-.96-.96h-4.8V8.582h28.79v8.734a4.807,4.807,0,0,0-3.839,4.7v9.6a4.807,4.807,0,0,0,3.839,4.7V46.969H24.032V45.643l3.308-1.654a.96.96,0,0,0,0-1.717l-3.308-1.654V38.332a2.883,2.883,0,0,0-2.879-2.879h-4.8ZM2.919,49.848V38.332a.961.961,0,0,1,.96-.96H21.153a.961.961,0,0,1,.96.96v2.879a.961.961,0,0,0,.531.859l2.122,1.06-2.122,1.06a.961.961,0,0,0-.531.859v4.8a.961.961,0,0,1-.96.96H3.879A.961.961,0,0,1,2.919,49.848Zm37.427,8.637H21.153a4.8,4.8,0,0,1-4.8-4.8v-.96h4.8a2.883,2.883,0,0,0,2.879-2.879v-.96H45.145v4.8A4.8,4.8,0,0,1,40.346,58.485ZM58.58,31.614A2.883,2.883,0,0,1,55.7,34.493H46.1a2.883,2.883,0,0,1-2.879-2.879v-9.6A2.883,2.883,0,0,1,46.1,19.139h9.6a2.883,2.883,0,0,1,2.879,2.879Z" transform="translate(508.751 2262.345)"/><path class="c" d="M52.8,23.905a4.8,4.8,0,1,0,4.8,4.8,4.8,4.8,0,0,0-4.8-4.8Zm0,7.677A2.879,2.879,0,1,1,55.677,28.7,2.883,2.883,0,0,1,52.8,31.582Z" transform="translate(506.855 2261.418)"/><path class="c" d="M57,21.905h1.919v1.919H57Z" transform="translate(506.492 2261.498)"/><path class="c" d="M5,40.9H20.355v1.919H5Z" transform="translate(508.589 2260.732)"/><path class="c" d="M7,44.9H18.516v1.919H7Z" transform="translate(508.509 2260.571)"/><path class="c" d="M5,48.9H20.355v1.919H5Z" transform="translate(508.589 2260.409)"/><circle class="d" cx="38" cy="38" r="38" transform="translate(833 2800)"/><path class="c" d="M45.678,20.374h1.389v5.482a.862.862,0,1,0,1.725,0V20.374h1.389a.862.862,0,1,0,0-1.725H48.792V16.143a.874.874,0,0,1,.873-.873h2.044a.862.862,0,1,0,0-1.725H49.665a2.6,2.6,0,0,0-2.6,2.6v2.506H45.678a.862.862,0,0,0,0,1.725ZM30.06,7.385a.862.862,0,1,0-.862-.862A.863.863,0,0,0,30.06,7.385ZM11.426,22.371a2.587,2.587,0,1,0-2.587-2.587A2.59,2.59,0,0,0,11.426,22.371Zm0-3.45a.862.862,0,1,1-.862.862A.863.863,0,0,1,11.426,18.921Zm3.45,6.9a2.59,2.59,0,0,0,2.587-2.587v-6.9a2.59,2.59,0,0,0-2.587-2.587h-6.9a2.59,2.59,0,0,0-2.587,2.587v6.9a2.59,2.59,0,0,0,2.587,2.587ZM7.114,23.234v-6.9a.863.863,0,0,1,.862-.862h6.9a.863.863,0,0,1,.862.862v6.9a.863.863,0,0,1-.862.862h-6.9A.864.864,0,0,1,7.114,23.234ZM16.654,38.6a1.389,1.389,0,0,0-1.447-.138,1.675,1.675,0,0,1-.363.127,1.654,1.654,0,0,1-.463.037,3.06,3.06,0,0,0-5.1,1.86,4.346,4.346,0,0,1-2.6-1.454,1.156,1.156,0,0,0-1.985.425,5.531,5.531,0,0,0,1.646,6.018c-.486.148-1.041.137-1.325.63A1.484,1.484,0,0,0,5,47.341a2.109,2.109,0,0,0,1.58,1.138,7,7,0,0,0,1.743.2,8.163,8.163,0,0,0,5.133-1.718,7.411,7.411,0,0,0,2.467-4.381,5.384,5.384,0,0,0,1.262-2.645,1.379,1.379,0,0,0-.532-1.341ZM14.5,41.582a.863.863,0,0,0-.232.46,5.816,5.816,0,0,1-1.907,3.588A6.779,6.779,0,0,1,7.47,46.9a6.571,6.571,0,0,0,1.171-.631.862.862,0,0,0-.134-1.5,3.554,3.554,0,0,1-2.353-3.854,6.051,6.051,0,0,0,3.986,1.35.862.862,0,0,0,.84-.862v-.49s0-.008,0-.012A1.335,1.335,0,0,1,13.322,40a.863.863,0,0,0,.482.28,3.4,3.4,0,0,0,1.526-.041,3.67,3.67,0,0,1-.831,1.34Zm34.194-9.138h-.061V30.589h.061a10.806,10.806,0,1,0-.061-21.612V8.16A5.469,5.469,0,0,0,43.17,2.7H16.95A5.469,5.469,0,0,0,11.488,8.16v.818a10.76,10.76,0,0,0-5.929,1.73A.862.862,0,0,0,6.5,12.156a9.079,9.079,0,1,1-2.608,2.562.862.862,0,1,0-1.431-.964A10.808,10.808,0,0,0,11.426,30.59h.061v1.878c-.226-.014-.453-.022-.682-.022a10.806,10.806,0,0,0,0,21.612c.229,0,.456-.008.682-.022v2.08a5.469,5.469,0,0,0,5.462,5.462H43.17a5.469,5.469,0,0,0,5.462-5.462V54.056h.061a10.806,10.806,0,0,0,0-21.613Zm0-21.742a9.081,9.081,0,1,1-9.081,9.081A9.091,9.091,0,0,1,48.693,10.7ZM46.907,30.441v2.15a10.756,10.756,0,0,0-1.725.434V30a10.7,10.7,0,0,0,1.725.438ZM14.938,8.735v.828a10.711,10.711,0,0,0-1.725-.438V8.16A3.742,3.742,0,0,1,16.95,4.423H43.17A3.742,3.742,0,0,1,46.907,8.16v.966a10.711,10.711,0,0,0-1.725.438V8.735a2.59,2.59,0,0,0-2.587-2.587H39.427A1.784,1.784,0,0,0,37.644,7.93a.693.693,0,0,1-.692.692H23.168a.693.693,0,0,1-.692-.692,1.781,1.781,0,0,0-1.782-1.782H17.525A2.59,2.59,0,0,0,14.938,8.735ZM13.213,30.441A10.711,10.711,0,0,0,14.938,30v3.262a10.707,10.707,0,0,0-1.725-.551ZM10.806,52.332a9.081,9.081,0,1,1,9.081-9.081A8.976,8.976,0,0,1,10.806,52.332Zm36.1,3.783a3.742,3.742,0,0,1-3.737,3.737H16.95a3.742,3.742,0,0,1-3.737-3.737V53.786a10.707,10.707,0,0,0,1.725-.551v2.3a2.59,2.59,0,0,0,2.587,2.587h25.07a2.59,2.59,0,0,0,2.587-2.587V53.471a10.711,10.711,0,0,0,1.725.438Zm1.786-3.783A9.09,9.09,0,0,1,39.9,40.955a.862.862,0,1,0-1.669-.435A10.816,10.816,0,0,0,43.457,52.7V55.54a.863.863,0,0,1-.862.862H17.525a.863.863,0,0,1-.862-.862V52.328a10.8,10.8,0,0,0,0-18.155v-4.94a10.8,10.8,0,0,0,0-18.9v-1.6a.863.863,0,0,1,.862-.862h3.168a.057.057,0,0,1,.041.017.054.054,0,0,1,.017.041,2.42,2.42,0,0,0,2.417,2.417H36.952A2.42,2.42,0,0,0,39.369,7.93a.058.058,0,0,1,.057-.057h3.168a.863.863,0,0,1,.862.862v1.6a10.8,10.8,0,0,0,.006,18.9.88.88,0,0,0-.006.1V33.79a10.828,10.828,0,0,0-3.327,2.868A.862.862,0,0,0,41.5,37.711a8.97,8.97,0,0,1,7.2-3.542,9.081,9.081,0,1,1,0,18.162ZM33.221,31.852a.863.863,0,0,0-1.185.29,2.071,2.071,0,0,1-.644.656.783.783,0,0,1-.827.012l-1.291-.784a.8.8,0,0,1-.369-.76,2.025,2.025,0,0,1,.283-.853.863.863,0,1,0-1.474-.9,3.764,3.764,0,0,0-.526,1.587l0,.017A2.518,2.518,0,0,0,28.378,33.5l1.291.784a2.517,2.517,0,0,0,2.66-.039,3.8,3.8,0,0,0,1.181-1.209A.863.863,0,0,0,33.221,31.852ZM53.232,42.326l-6.048-3.493a1.206,1.206,0,0,0-1.795,1.036v6.987a1.208,1.208,0,0,0,1.795,1.036L53.232,44.4A1.21,1.21,0,0,0,53.232,42.326ZM47.114,45.94V40.784l4.463,2.578ZM29.851,24.327a7.813,7.813,0,0,0-7.2,10.3l-.918,2.613a1.322,1.322,0,0,0,1.686,1.686l1.821-.64a7.813,7.813,0,1,0,4.606-13.962Zm.379,13.9a6.109,6.109,0,0,1-3.934-1.3,1.68,1.68,0,0,0-1.042-.365,1.66,1.66,0,0,0-.551.094l-1.06.373.647-1.841A1.662,1.662,0,0,0,24.3,34.1a6.088,6.088,0,1,1,5.933,4.123Z" transform="translate(849.5 2785.667)"/><circle class="d" cx="38" cy="38" r="38" transform="translate(861.826 3382.817)"/><path class="c" d="M58.412,32.988a2.838,2.838,0,0,0-2.487-1.44l-53.05,0a2.868,2.868,0,0,0-1.8,5.1L22.222,53.762l4.114,26.9a2.837,2.837,0,0,0,2.3,2.384,2.948,2.948,0,0,0,.554.053,2.832,2.832,0,0,0,2.46-1.424L58.4,35.862A2.839,2.839,0,0,0,58.412,32.988ZM30.161,80.8a1.146,1.146,0,0,1-2.122-.4L23.964,53.755l2.781-1.6a.861.861,0,1,0-.857-1.494l-2.781,1.6L2.153,35.3a1.146,1.146,0,0,1,.721-2.036l53.05,0a1.166,1.166,0,0,1,.224.024L29.123,48.807a.861.861,0,1,0,.857,1.494L57.006,34.788a1.173,1.173,0,0,1-.092.206Z" transform="matrix(0.755, -0.656, 0.656, 0.755, 851.282, 3384.844)"/><circle class="d" cx="38" cy="38" r="38" transform="translate(211.5 4778)"/><g transform="translate(242.677 4788.108)"><path class="c" d="M122.7,143.188a1.021,1.021,0,1,1,1-.821,1.03,1.03,0,0,1-1,.821Z" transform="translate(-121.681 -141.147)"/><g transform="translate(18.672 20.981)"><path class="c" d="M305.448,348.534a1.021,1.021,0,1,1,1.009-.862A1.031,1.031,0,0,1,305.448,348.534Z" transform="translate(-304.427 -346.494)"/></g></g><g transform="translate(230.342 4773.687)"><g transform="translate(0)"><path class="c" d="M53.01,7.6a1.021,1.021,0,0,0-.882-.663l-5.57-.417L46.141.946A1.022,1.022,0,0,0,44.4.3L39.947,4.752a4.1,4.1,0,0,0-1.2,2.76c0,.018,0,.037,0,.055l.061,3.411a23.275,23.275,0,1,0,3.332,3.3l3.372.054h.054a4.1,4.1,0,0,0,2.76-1.2l4.452-4.452A1.022,1.022,0,0,0,53.01,7.6ZM41.392,6.2,44.27,3.32l.281,3.759L40.845,10.79l-.057-3.228A2.064,2.064,0,0,1,41.392,6.2ZM24.207,50.27a21.207,21.207,0,1,1,14.15-36.99l-2.366,2.366a17.849,17.849,0,0,0-17.839-3.392,1.022,1.022,0,1,0,.694,1.922,15.808,15.808,0,0,1,15.7,2.917l-2.37,2.37a12.477,12.477,0,1,0-2.3,20.714,1.022,1.022,0,1,0-.931-1.819A10.3,10.3,0,0,1,24.207,39.5a10.435,10.435,0,1,1,6.514-18.582L28.338,23.3a7.1,7.1,0,1,0,1.472,1.418l2.375-2.375a10.425,10.425,0,0,1,1.93,10,1.022,1.022,0,0,0,1.939.644,12.469,12.469,0,0,0-2.42-12.1L36,18.527a15.822,15.822,0,1,1-24.578,1.226,1.022,1.022,0,0,0-1.65-1.205,17.866,17.866,0,1,0,27.675-1.467l2.365-2.364a21.2,21.2,0,0,1-15.6,35.554Zm5.05-21.207a5.054,5.054,0,1,1-2.392-4.292L23.607,28.03a1.022,1.022,0,1,0,1.445,1.445l3.3-3.3A5.021,5.021,0,0,1,29.257,29.063Zm17.62-17.382a2.066,2.066,0,0,1-1.365.6l-3.217-.052,1.963-1.963c.022-.022.042-.045.062-.068L46,8.523l3.758.281Z" transform="translate(-0.956 -0.001)"/></g></g><circle class="d" cx="38" cy="38" r="38" transform="translate(1219.148 5959)"/><path class="c" d="M55.371,78.839H55V51.122A2.011,2.011,0,0,0,53,49.112H51.713a63.2,63.2,0,0,0,4.3-5.242l.572.424a1.5,1.5,0,0,0,2.387-1.159l.18-6.193a1.5,1.5,0,0,0-1.973-1.461L51.3,37.457a1.5,1.5,0,0,0-.414,2.621l.94.7c-.849,1.159-1.748,2.3-2.681,3.39a.867.867,0,1,0,1.32,1.125c1.15-1.349,2.251-2.762,3.272-4.2a.867.867,0,0,0-.191-1.2l-1.262-.935L57.4,37.233l-.157,5.4-.911-.675a.867.867,0,0,0-1.223.194,62.1,62.1,0,0,1-22.025,19.1A62.1,62.1,0,0,1,4.738,68.13H2.6a.867.867,0,1,1,0-1.734H4.738A59.752,59.752,0,0,0,28.29,61.588,59.788,59.788,0,0,0,47.942,48.072.867.867,0,1,0,46.7,46.866a58.438,58.438,0,0,1-6.975,6.155h-6.93a2.011,2.011,0,0,0-2.009,2.009v3.5q-1.161.578-2.351,1.106V58.4A2.011,2.011,0,0,0,26.421,56.4H19.5A2.011,2.011,0,0,0,17.494,58.4v4.852q-1.171.262-2.351.476V61.155a2.011,2.011,0,0,0-2.009-2.009H6.216a2.011,2.011,0,0,0-2.009,2.009v3.507H2.6a2.6,2.6,0,1,0,0,5.2H4.207v8.974H3.74A3.666,3.666,0,0,0,.079,82.5v2.376a1.491,1.491,0,0,0,1.489,1.489H57.543a1.491,1.491,0,0,0,1.489-1.489V82.5a3.666,3.666,0,0,0-3.661-3.661ZM32.515,55.029a.275.275,0,0,1,.275-.275h4.488q-2.307,1.549-4.763,2.874ZM19.228,58.4a.275.275,0,0,1,.275-.275h6.918a.275.275,0,0,1,.275.275v1.968a58.381,58.381,0,0,1-7.468,2.468V58.4ZM6.216,60.88h6.918a.275.275,0,0,1,.275.275v2.864a58.412,58.412,0,0,1-7.468.629V61.155A.275.275,0,0,1,6.216,60.88ZM50.072,50.847H53a.275.275,0,0,1,.275.275V78.839H45.8V54.806q2.223-1.882,4.269-3.959ZM33.884,62.788a63.1,63.1,0,0,0,6.1-3.6v9.234a.867.867,0,0,0,1.734,0V57.993q1.2-.857,2.351-1.769V78.839H41.718V72.122a.867.867,0,1,0-1.734,0v6.717H32.515V63.471Q33.2,63.137,33.884,62.788ZM19.228,68.18A64.03,64.03,0,0,0,26.7,65.944V78.839H19.228Zm9.2-2.9q1.185-.475,2.351-1V78.839H28.43ZM5.941,69.851a63.34,63.34,0,0,0,7.468-.588v2.874a.867.867,0,0,0,1.734,0V69q1.18-.2,2.351-.438V78.839H15.143v-3a.867.867,0,1,0-1.734,0v3H5.941ZM57.3,84.631H1.813V82.5A1.929,1.929,0,0,1,3.74,80.573H55.371A1.929,1.929,0,0,1,57.3,82.5Z" transform="translate(1233 5921.052)"/><g transform="translate(607.758 726.855)"><path class="c" d="M175.919,159.472a1,1,0,1,0,.292.7A1,1,0,0,0,175.919,159.472Z" transform="translate(-174.219 -159.18)"/></g><circle class="d" cx="38" cy="38" r="38" transform="translate(561.904 717.499)"/><g transform="translate(590.405 718.097)"><g transform="translate(0)"><path class="c" d="M40.7,93.57l-7.086-7.086a5.644,5.644,0,0,0-7.856-7.856L18.67,71.542a1,1,0,0,0-1.621.314L7.38,94.567,2.133,99.814a7.283,7.283,0,1,0,10.3,10.3l.852-.852,5.6,5.6a1,1,0,0,0,1.409,0l3.826-3.826a1,1,0,0,0,0-1.409l-5.258-5.258L40.385,95.19A1,1,0,0,0,40.7,93.57ZM28.98,79.608a3.652,3.652,0,0,1,3.188,5.432L27.2,80.071A3.631,3.631,0,0,1,28.98,79.608ZM11.024,108.7a5.291,5.291,0,1,1-7.482-7.482L8.22,96.544l.143.143,7.339,7.34ZM22,110.329l-2.417,2.417-4.894-4.894,2.417-2.417ZM34.346,95.6c-.018-.021-.036-.042-.056-.062L21.673,82.92a1,1,0,0,0-1.409,1.409L32.375,96.439l-15.033,6.409L9.4,94.906l8.9-20.913L38.247,93.936Z" transform="translate(0 -71.25)"/></g></g><g transform="translate(627.375 717.507)"><path class="c" d="M375.538,65.623a1,1,0,0,0-1.409,0L371.457,68.3a1,1,0,1,0,1.409,1.409l2.673-2.673A1,1,0,0,0,375.538,65.623Z" transform="translate(-371.165 -65.331)"/></g><g transform="translate(624.93 722.625)"><path class="c" d="M348.318,117a1,1,0,1,0,.292.7A1,1,0,0,0,348.318,117Z" transform="translate(-346.618 -116.71)"/></g><g transform="translate(619.425 713.847)"><path class="c" d="M292.345,28.58a1,1,0,0,0-1,1v3.661a1,1,0,0,0,1.992,0V29.576A1,1,0,0,0,292.345,28.58Z" transform="translate(-291.349 -28.58)"/></g><g transform="translate(629.907 727.974)"><path class="c" d="M401.361,170.412h-3.783a1,1,0,1,0,0,1.992h3.783a1,1,0,1,0,0-1.992Z" transform="translate(-396.582 -170.412)"/></g><g transform="translate(630.269 750.716)"><path class="c" d="M403.2,398.734a2.988,2.988,0,1,0,2.988,2.988A2.992,2.992,0,0,0,403.2,398.734Zm0,3.984a1,1,0,1,1,1-1A1,1,0,0,1,403.2,402.718Z" transform="translate(-400.215 -398.734)"/></g><g transform="translate(625.111 745.41)"><path class="c" d="M364.4,355.234l-1.074-.97q.019-.251.019-.5t-.019-.5l1.074-.97a1,1,0,0,0,.195-1.238l-1.661-2.872a1,1,0,0,0-1.168-.449l-1.375.444a6.748,6.748,0,0,0-.872-.5l-.3-1.414a1,1,0,0,0-.974-.787H354.92a1,1,0,0,0-.974.787l-.3,1.414a6.74,6.74,0,0,0-.872.5l-1.375-.444a1,1,0,0,0-1.168.449l-1.661,2.872a1,1,0,0,0,.195,1.238l1.074.97q-.019.251-.019.5t.019.5l-1.074.97a1,1,0,0,0-.195,1.238l1.661,2.872a1,1,0,0,0,1.168.449l1.375-.444a6.756,6.756,0,0,0,.872.5l.3,1.414a1,1,0,0,0,.974.787h3.318a1,1,0,0,0,.974-.787l.3-1.414a6.743,6.743,0,0,0,.872-.5l1.375.444a1,1,0,0,0,1.168-.449l1.661-2.872A1,1,0,0,0,364.4,355.234Zm-2.788,2.416-1.1-.355a1,1,0,0,0-.933.174,4.753,4.753,0,0,1-1.287.745,1,1,0,0,0-.616.721l-.241,1.127h-1.707l-.241-1.127a1,1,0,0,0-.616-.721,4.753,4.753,0,0,1-1.287-.745,1,1,0,0,0-.933-.174l-1.1.355-.855-1.478.856-.773a1,1,0,0,0,.316-.893,4.818,4.818,0,0,1,0-1.49,1,1,0,0,0-.316-.893l-.856-.773.855-1.478,1.1.355a1,1,0,0,0,.933-.174,4.758,4.758,0,0,1,1.287-.745,1,1,0,0,0,.616-.721l.241-1.127h1.707l.241,1.127a1,1,0,0,0,.616.721,4.757,4.757,0,0,1,1.287.745,1,1,0,0,0,.933.174l1.1-.355.855,1.478-.856.773a1,1,0,0,0-.316.893,4.816,4.816,0,0,1,0,1.49,1,1,0,0,0,.316.893l.856.773Z" transform="translate(-348.433 -345.467)"/></g><g transform="translate(633.635 711)"><path class="c" d="M441.705,7.45,438.818.611a1,1,0,0,0-1.835,0l-2.887,6.84a1,1,0,1,0,1.835.775l.361-.856h3.217l.361.856a1,1,0,0,0,1.835-.775Zm-4.573-2.073.768-1.818.768,1.818h-1.535Z" transform="translate(-434.016 -0.002)"/></g><g transform="translate(590.405 711)"><g transform="translate(0 0)"><path class="c" d="M10.734,0H2.414A2.417,2.417,0,0,0,0,2.416V9.74a2.417,2.417,0,0,0,2.414,2.414h8.319A2.417,2.417,0,0,0,13.148,9.74V2.416A2.417,2.417,0,0,0,10.734,0Zm.422,9.738a.423.423,0,0,1-.422.422H2.414a.423.423,0,0,1-.422-.422V2.416a.423.423,0,0,1,.422-.422h8.319a.423.423,0,0,1,.422.422V9.74Z" transform="translate(0 -0.002)"/></g></g><g transform="translate(594.038 714.076)"><path class="c" d="M41.169,32.049l-1.517-.876a2.121,2.121,0,0,0-3.182,1.837v1.751A2.117,2.117,0,0,0,39.653,36.6l1.517-.876a2.121,2.121,0,0,0,0-3.674Zm-1,1.949-1.517.876a.129.129,0,0,1-.194-.112V33.01a.118.118,0,0,1,.065-.112.129.129,0,0,1,.065-.019.123.123,0,0,1,.064.019l1.517.876a.129.129,0,0,1,0,.224Z" transform="translate(-36.471 -30.886)"/></g><g transform="translate(595.269 732.711)"><path class="c" d="M50.548,217.969h-.719a1,1,0,0,0,0,1.992h.719a1,1,0,0,0,0-1.992Z" transform="translate(-48.833 -217.969)"/></g><g transform="translate(593.196 729.95)"><path class="c" d="M29.021,190.25a1,1,0,0,0-1,1v.634a1,1,0,0,0,1.992,0v-.634A1,1,0,0,0,29.021,190.25Z" transform="translate(-28.025 -190.25)"/></g><g transform="translate(590.405 732.711)"><path class="c" d="M1.63,217.969H1a1,1,0,0,0,0,1.992H1.63a1,1,0,0,0,0-1.992Z" transform="translate(0 -217.969)"/></g><g transform="translate(593.196 734.806)"><path class="c" d="M29.021,239a1,1,0,0,0-1,1v.727a1,1,0,0,0,1.992,0V240A1,1,0,0,0,29.021,239Z" transform="translate(-28.025 -239)"/></g><circle class="d" cx="38" cy="38" r="38" transform="translate(389.826 3962.54)"/><g transform="matrix(0.788, -0.616, 0.616, 0.788, 389.744, 3977.465)"><path class="c" d="M35.716,98.049a.835.835,0,0,0-.835.835v12.621a1.6,1.6,0,1,1-3.208,0V77.442a1.6,1.6,0,0,1,3.208,0v12.4a.835.835,0,1,0,1.67,0v-12.4a3.273,3.273,0,0,0-6.523-.393l-9.244,8.337L3.8,87.725A4.3,4.3,0,0,0,.1,91.971v4.783A4.3,4.3,0,0,0,3.8,101l3.016.416v3.919a.835.835,0,1,0,1.67,0v-3.689l8.015,1.1-2.594,4.213a.835.835,0,0,0-.124.438V118a1.115,1.115,0,0,1-1.114,1.114H9.6A1.115,1.115,0,0,1,8.49,118v-9.111a.835.835,0,0,0-1.67,0V118A2.787,2.787,0,0,0,9.6,120.788h3.069A2.787,2.787,0,0,0,15.457,118V107.636L18.313,103l2.471.34,9.223,8.319a3.274,3.274,0,0,0,6.544-.152V98.884a.835.835,0,0,0-.835-.835Zm-28.723,1.7V88.972l2.484-.342v11.465Zm-5.219-3V91.971A2.626,2.626,0,0,1,4.032,89.38l1.29-.178v10.32l-1.29-.178a2.626,2.626,0,0,1-2.258-2.591Zm19.492,4.966-3.25-.448h-.005l-6.864-.946V88.4l10.119-1.394a.835.835,0,0,0,.445-.207l4.48-4.041c0,.96.005,2.237.008,3.709a.835.835,0,0,0,.835.833h0a.835.835,0,0,0,.833-.837c-.005-2.495-.01-4.431-.012-5.209L30,79.32V109.4l-2.133-1.924c0-.026,0-.052,0-.079,0-.292.007-.716.009-1.249,0-.994.007-2.44.008-4.3,0-2.959,0-6.94-.011-11.833a.835.835,0,0,0-.835-.834h0a.835.835,0,0,0-.834.837c.016,9.327.013,13.834,0,15.959l-4.5-4.058a.833.833,0,0,0-.445-.207Z" transform="translate(0 -65.91)"/><path class="c" d="M327.334,171.465h-9.6a4.425,4.425,0,0,0-4.42,4.42v1.633l-3.268,1.987a1.546,1.546,0,0,0,0,2.642l3.268,1.987v2.028a4.425,4.425,0,0,0,4.42,4.42h2.853a.835.835,0,0,0,0-1.67H317.73a2.753,2.753,0,0,1-2.75-2.75v-2.5a.835.835,0,0,0-.4-.713l-3.495-2.125,3.495-2.125a.835.835,0,0,0,.4-.713v-2.1a2.753,2.753,0,0,1,2.75-2.75h9.6a2.753,2.753,0,0,1,2.75,2.75v10.277a2.753,2.753,0,0,1-2.75,2.75h-3.192a.835.835,0,1,0,0,1.67h3.192a4.425,4.425,0,0,0,4.42-4.42V175.885a4.425,4.425,0,0,0-4.42-4.42Z" transform="translate(-274.769 -152.374)"/><path class="c" d="M331.906,5.279v6.837a4.425,4.425,0,0,0,4.42,4.42h7.123a4.425,4.425,0,0,0,4.42-4.42V4.42A4.425,4.425,0,0,0,343.448,0H330.234A1.405,1.405,0,0,0,329.2,2.36ZM343.448,1.67a2.753,2.753,0,0,1,2.75,2.75v7.7a2.753,2.753,0,0,1-2.75,2.75h-7.123a2.753,2.753,0,0,1-2.75-2.75V4.952a.835.835,0,0,0-.222-.567L330.84,1.67Z" transform="translate(-292.124)"/><path class="c" d="M343.448,362.559h-7.123a4.425,4.425,0,0,0-4.42,4.42v6.837l-2.7,2.919a1.406,1.406,0,0,0,1.031,2.36h13.214a4.425,4.425,0,0,0,4.42-4.42v-7.7A4.425,4.425,0,0,0,343.448,362.559Zm2.75,12.116a2.753,2.753,0,0,1-2.75,2.75H330.839l2.513-2.715a.835.835,0,0,0,.222-.567v-7.164a2.753,2.753,0,0,1,2.75-2.75h7.123a2.753,2.753,0,0,1,2.75,2.75v7.7Z" transform="translate(-292.124 -322.191)"/></g></g></svg>