<?xml version="1.0" encoding="UTF-8"?>
<svg xmlns="http://www.w3.org/2000/svg" xmlns:xlink="http://www.w3.org/1999/xlink" width="187.5pt" height="187.499995pt" viewBox="0 0 187.5 187.499995" version="1.2">
<defs>
<clipPath id="clip1">
  <path d="M 26.742188 26.742188 L 160.992188 26.742188 L 160.992188 160.992188 L 26.742188 160.992188 Z M 26.742188 26.742188 "/>
</clipPath>
</defs>
<g id="surface1">
<path style=" stroke:none;fill-rule:nonzero;fill:rgb(32.159424%,44.309998%,100%);fill-opacity:1;" d="M 89.75 82.230469 L 89.75 84.289062 C 89.75 84.546875 89.726562 84.800781 89.679688 85.050781 C 89.628906 85.300781 89.554688 85.546875 89.460938 85.78125 C 89.363281 86.019531 89.242188 86.246094 89.101562 86.457031 C 88.957031 86.671875 88.796875 86.867188 88.617188 87.050781 C 88.433594 87.230469 88.238281 87.390625 88.023438 87.535156 C 87.8125 87.675781 87.585938 87.796875 87.347656 87.894531 C 87.113281 87.988281 86.867188 88.0625 86.617188 88.113281 C 86.363281 88.160156 86.113281 88.183594 85.855469 88.183594 L 65.539062 88.183594 L 65.539062 99.546875 L 85.855469 99.546875 C 86.113281 99.546875 86.363281 99.570312 86.617188 99.621094 C 86.867188 99.667969 87.113281 99.742188 87.347656 99.839844 C 87.585938 99.933594 87.8125 100.054688 88.023438 100.195312 C 88.238281 100.339844 88.433594 100.5 88.617188 100.679688 C 88.796875 100.863281 88.957031 101.058594 89.101562 101.273438 C 89.242188 101.484375 89.363281 101.710938 89.460938 101.949219 C 89.554688 102.183594 89.628906 102.429688 89.679688 102.679688 C 89.726562 102.933594 89.75 103.1875 89.75 103.441406 L 89.75 105.5 L 101.832031 93.867188 Z M 89.75 82.230469 "/>
<path style=" stroke:none;fill-rule:nonzero;fill:rgb(32.159424%,44.309998%,100%);fill-opacity:1;" d="M 99.816406 81.066406 L 110.15625 91.046875 C 110.527344 91.421875 110.8125 91.851562 111.015625 92.339844 C 111.21875 92.828125 111.316406 93.335938 111.316406 93.867188 C 111.316406 94.394531 111.21875 94.902344 111.015625 95.390625 C 110.8125 95.878906 110.527344 96.308594 110.15625 96.683594 L 99.816406 106.664062 L 99.816406 119.148438 L 122.191406 125.144531 L 122.191406 62.585938 L 99.816406 68.582031 Z M 99.816406 81.066406 "/>
<g clip-path="url(#clip1)" clip-rule="nonzero">
<path style=" stroke:none;fill-rule:nonzero;fill:rgb(32.159424%,44.309998%,100%);fill-opacity:1;" d="M 93.867188 26.742188 C 92.765625 26.742188 91.667969 26.765625 90.570312 26.820312 C 89.476562 26.875 88.378906 26.957031 87.285156 27.0625 C 86.191406 27.171875 85.101562 27.304688 84.015625 27.46875 C 82.929688 27.628906 81.847656 27.816406 80.769531 28.03125 C 79.691406 28.246094 78.621094 28.484375 77.554688 28.753906 C 76.488281 29.019531 75.429688 29.3125 74.378906 29.632812 C 73.328125 29.949219 72.285156 30.292969 71.25 30.664062 C 70.21875 31.035156 69.191406 31.429688 68.179688 31.851562 C 67.164062 32.269531 66.160156 32.714844 65.164062 33.183594 C 64.171875 33.65625 63.191406 34.148438 62.222656 34.667969 C 61.253906 35.183594 60.296875 35.726562 59.355469 36.289062 C 58.414062 36.855469 57.484375 37.441406 56.574219 38.054688 C 55.660156 38.664062 54.761719 39.296875 53.878906 39.949219 C 52.996094 40.605469 52.132812 41.28125 51.28125 41.976562 C 50.433594 42.675781 49.601562 43.390625 48.789062 44.128906 C 47.972656 44.867188 47.179688 45.625 46.402344 46.402344 C 45.625 47.179688 44.867188 47.972656 44.128906 48.789062 C 43.390625 49.601562 42.675781 50.433594 41.976562 51.28125 C 41.28125 52.132812 40.605469 52.996094 39.949219 53.878906 C 39.296875 54.761719 38.664062 55.660156 38.054688 56.574219 C 37.441406 57.484375 36.855469 58.414062 36.289062 59.355469 C 35.726562 60.296875 35.183594 61.253906 34.667969 62.222656 C 34.148438 63.191406 33.65625 64.171875 33.183594 65.164062 C 32.714844 66.160156 32.269531 67.164062 31.851562 68.179688 C 31.429688 69.191406 31.035156 70.21875 30.664062 71.25 C 30.292969 72.285156 29.949219 73.328125 29.632812 74.378906 C 29.3125 75.429688 29.019531 76.488281 28.753906 77.554688 C 28.484375 78.621094 28.246094 79.691406 28.03125 80.769531 C 27.816406 81.847656 27.628906 82.929688 27.46875 84.015625 C 27.304688 85.101562 27.171875 86.191406 27.0625 87.285156 C 26.957031 88.378906 26.875 89.476562 26.820312 90.570312 C 26.765625 91.667969 26.742188 92.765625 26.742188 93.867188 C 26.742188 94.964844 26.765625 96.0625 26.820312 97.160156 C 26.875 98.257812 26.957031 99.351562 27.0625 100.445312 C 27.171875 101.539062 27.304688 102.628906 27.46875 103.714844 C 27.628906 104.800781 27.816406 105.882812 28.03125 106.960938 C 28.246094 108.039062 28.484375 109.109375 28.753906 110.175781 C 29.019531 111.242188 29.3125 112.300781 29.632812 113.351562 C 29.949219 114.402344 30.292969 115.445312 30.664062 116.480469 C 31.035156 117.511719 31.429688 118.539062 31.851562 119.554688 C 32.269531 120.566406 32.714844 121.570312 33.183594 122.566406 C 33.65625 123.558594 34.148438 124.539062 34.667969 125.507812 C 35.183594 126.476562 35.726562 127.433594 36.289062 128.375 C 36.855469 129.316406 37.441406 130.246094 38.054688 131.15625 C 38.664062 132.070312 39.296875 132.96875 39.949219 133.851562 C 40.605469 134.734375 41.28125 135.601562 41.976562 136.449219 C 42.675781 137.296875 43.390625 138.128906 44.128906 138.945312 C 44.867188 139.757812 45.625 140.554688 46.402344 141.332031 C 47.179688 142.105469 47.972656 142.863281 48.789062 143.601562 C 49.601562 144.339844 50.433594 145.058594 51.28125 145.753906 C 52.132812 146.449219 52.996094 147.125 53.878906 147.78125 C 54.761719 148.433594 55.660156 149.066406 56.574219 149.679688 C 57.484375 150.289062 58.414062 150.875 59.355469 151.441406 C 60.296875 152.003906 61.253906 152.546875 62.222656 153.066406 C 63.191406 153.582031 64.171875 154.074219 65.164062 154.546875 C 66.160156 155.015625 67.164062 155.460938 68.179688 155.882812 C 69.191406 156.300781 70.21875 156.695312 71.25 157.066406 C 72.285156 157.4375 73.328125 157.78125 74.378906 158.101562 C 75.429688 158.417969 76.488281 158.710938 77.554688 158.980469 C 78.621094 159.246094 79.691406 159.488281 80.769531 159.699219 C 81.847656 159.914062 82.929688 160.101562 84.015625 160.265625 C 85.101562 160.425781 86.191406 160.558594 87.285156 160.667969 C 88.378906 160.773438 89.476562 160.855469 90.570312 160.910156 C 91.667969 160.964844 92.765625 160.992188 93.867188 160.992188 C 94.964844 160.992188 96.0625 160.964844 97.160156 160.910156 C 98.257812 160.855469 99.351562 160.773438 100.445312 160.667969 C 101.539062 160.558594 102.628906 160.425781 103.714844 160.265625 C 104.800781 160.101562 105.882812 159.914062 106.960938 159.699219 C 108.039062 159.488281 109.109375 159.246094 110.175781 158.980469 C 111.242188 158.710938 112.300781 158.417969 113.351562 158.101562 C 114.402344 157.78125 115.445312 157.4375 116.480469 157.066406 C 117.511719 156.695312 118.539062 156.300781 119.554688 155.882812 C 120.566406 155.460938 121.570312 155.015625 122.566406 154.546875 C 123.558594 154.074219 124.539062 153.582031 125.507812 153.066406 C 126.476562 152.546875 127.433594 152.003906 128.375 151.441406 C 129.316406 150.875 130.246094 150.289062 131.15625 149.679688 C 132.070312 149.066406 132.96875 148.433594 133.851562 147.78125 C 134.734375 147.125 135.601562 146.449219 136.449219 145.753906 C 137.296875 145.058594 138.128906 144.339844 138.945312 143.601562 C 139.757812 142.863281 140.554688 142.105469 141.332031 141.332031 C 142.105469 140.554688 142.863281 139.757812 143.601562 138.945312 C 144.339844 138.128906 145.058594 137.296875 145.753906 136.449219 C 146.449219 135.601562 147.125 134.734375 147.78125 133.851562 C 148.433594 132.96875 149.066406 132.070312 149.679688 131.15625 C 150.289062 130.246094 150.875 129.316406 151.441406 128.375 C 152.003906 127.433594 152.546875 126.476562 153.066406 125.507812 C 153.582031 124.539062 154.074219 123.558594 154.546875 122.566406 C 155.015625 121.570312 155.460938 120.566406 155.882812 119.554688 C 156.300781 118.539062 156.695312 117.511719 157.066406 116.480469 C 157.4375 115.445312 157.78125 114.402344 158.101562 113.351562 C 158.417969 112.300781 158.710938 111.242188 158.980469 110.175781 C 159.246094 109.109375 159.488281 108.039062 159.699219 106.960938 C 159.914062 105.882812 160.101562 104.800781 160.265625 103.714844 C 160.425781 102.628906 160.558594 101.539062 160.667969 100.445312 C 160.773438 99.351562 160.855469 98.257812 160.910156 97.160156 C 160.964844 96.0625 160.992188 94.964844 160.992188 93.867188 C 160.988281 92.765625 160.960938 91.667969 160.910156 90.574219 C 160.855469 89.476562 160.773438 88.378906 160.664062 87.285156 C 160.558594 86.195312 160.421875 85.105469 160.261719 84.015625 C 160.097656 82.929688 159.910156 81.847656 159.695312 80.773438 C 159.480469 79.695312 159.242188 78.625 158.972656 77.558594 C 158.707031 76.492188 158.414062 75.433594 158.09375 74.382812 C 157.777344 73.332031 157.429688 72.289062 157.0625 71.253906 C 156.691406 70.222656 156.296875 69.195312 155.875 68.183594 C 155.453125 67.167969 155.007812 66.164062 154.539062 65.171875 C 154.070312 64.175781 153.574219 63.195312 153.058594 62.226562 C 152.539062 61.257812 152 60.304688 151.433594 59.363281 C 150.867188 58.417969 150.28125 57.492188 149.671875 56.578125 C 149.058594 55.664062 148.429688 54.769531 147.773438 53.886719 C 147.117188 53.003906 146.441406 52.136719 145.746094 51.289062 C 145.050781 50.4375 144.332031 49.609375 143.59375 48.792969 C 142.855469 47.980469 142.101562 47.183594 141.324219 46.40625 C 140.546875 45.632812 139.75 44.875 138.9375 44.136719 C 138.125 43.398438 137.292969 42.679688 136.441406 41.984375 C 135.59375 41.289062 134.726562 40.613281 133.847656 39.957031 C 132.964844 39.304688 132.066406 38.671875 131.152344 38.0625 C 130.238281 37.449219 129.3125 36.863281 128.371094 36.296875 C 127.425781 35.734375 126.472656 35.191406 125.503906 34.671875 C 124.535156 34.15625 123.554688 33.660156 122.5625 33.191406 C 121.566406 32.722656 120.5625 32.277344 119.550781 31.855469 C 118.535156 31.4375 117.511719 31.039062 116.476562 30.671875 C 115.441406 30.300781 114.398438 29.957031 113.347656 29.636719 C 112.296875 29.316406 111.238281 29.023438 110.171875 28.757812 C 109.109375 28.488281 108.035156 28.25 106.960938 28.035156 C 105.882812 27.820312 104.800781 27.632812 103.714844 27.46875 C 102.628906 27.308594 101.539062 27.175781 100.445312 27.066406 C 99.351562 26.957031 98.257812 26.875 97.160156 26.824219 C 96.0625 26.769531 94.964844 26.742188 93.867188 26.742188 Z M 129.980469 130.246094 C 129.980469 130.761719 129.878906 131.261719 129.683594 131.738281 C 129.484375 132.214844 129.203125 132.636719 128.839844 133 C 128.472656 133.367188 128.054688 133.648438 127.574219 133.84375 C 127.097656 134.042969 126.601562 134.140625 126.085938 134.140625 C 125.75 134.140625 125.421875 134.09375 125.101562 134.007812 L 94.894531 125.90625 C 94.480469 125.796875 94.09375 125.621094 93.738281 125.382812 C 93.378906 125.144531 93.070312 124.859375 92.804688 124.519531 C 92.542969 124.179688 92.339844 123.804688 92.203125 123.398438 C 92.0625 122.996094 91.988281 122.578125 91.984375 122.148438 L 91.984375 114.183594 L 88.539062 117.492188 C 87.796875 118.234375 86.902344 118.605469 85.855469 118.613281 C 85.328125 118.597656 84.820312 118.496094 84.332031 118.300781 C 83.984375 118.148438 83.660156 117.953125 83.367188 117.707031 C 83.074219 117.464844 82.824219 117.183594 82.613281 116.863281 C 82.402344 116.546875 82.242188 116.203125 82.128906 115.839844 C 82.019531 115.472656 81.964844 115.101562 81.960938 114.71875 L 81.960938 107.335938 L 61.644531 107.335938 C 61.128906 107.335938 60.632812 107.234375 60.15625 107.039062 C 59.679688 106.839844 59.257812 106.558594 58.894531 106.195312 C 58.527344 105.828125 58.246094 105.410156 58.050781 104.929688 C 57.851562 104.453125 57.753906 103.957031 57.753906 103.441406 L 57.753906 84.289062 C 57.753906 83.773438 57.851562 83.277344 58.050781 82.800781 C 58.246094 82.324219 58.527344 81.902344 58.894531 81.535156 C 59.257812 81.171875 59.679688 80.890625 60.15625 80.691406 C 60.632812 80.496094 61.128906 80.394531 61.644531 80.394531 L 81.960938 80.394531 L 81.960938 73.011719 C 81.964844 72.628906 82.019531 72.257812 82.128906 71.890625 C 82.242188 71.527344 82.402344 71.183594 82.613281 70.867188 C 82.824219 70.550781 83.074219 70.269531 83.367188 70.023438 C 83.660156 69.78125 83.984375 69.582031 84.332031 69.433594 C 84.683594 69.285156 85.050781 69.191406 85.429688 69.148438 C 85.808594 69.109375 86.183594 69.125 86.558594 69.199219 C 86.933594 69.269531 87.289062 69.394531 87.625 69.570312 C 87.964844 69.75 88.269531 69.96875 88.539062 70.238281 L 91.984375 73.550781 L 91.984375 65.582031 C 91.988281 65.152344 92.0625 64.738281 92.203125 64.332031 C 92.339844 63.925781 92.542969 63.550781 92.804688 63.214844 C 93.070312 62.875 93.378906 62.585938 93.738281 62.347656 C 94.09375 62.109375 94.480469 61.933594 94.894531 61.824219 L 125.101562 53.726562 C 125.390625 53.648438 125.679688 53.605469 125.980469 53.597656 C 126.277344 53.589844 126.570312 53.613281 126.863281 53.671875 C 127.152344 53.730469 127.433594 53.820312 127.707031 53.945312 C 127.976562 54.070312 128.230469 54.222656 128.464844 54.402344 C 128.703125 54.585938 128.914062 54.789062 129.101562 55.019531 C 129.289062 55.25 129.449219 55.5 129.582031 55.765625 C 129.710938 56.035156 129.8125 56.3125 129.878906 56.601562 C 129.945312 56.890625 129.980469 57.1875 129.980469 57.484375 Z M 129.980469 130.246094 "/>
</g>
</g>
</svg>
