<?xml version="1.0" encoding="UTF-8"?>
<svg xmlns="http://www.w3.org/2000/svg" xmlns:xlink="http://www.w3.org/1999/xlink" width="540pt" height="135.000003pt" viewBox="0 0 540 135.000003" version="1.2">
<defs>
<g>
<symbol overflow="visible" id="glyph0-0">
<path style="stroke:none;" d="M 1.140625 -19.984375 L 15.609375 -19.984375 L 15.609375 0 L 1.140625 0 Z M 13.328125 -2 L 13.328125 -17.984375 L 3.421875 -17.984375 L 3.421875 -2 Z M 13.328125 -2 "/>
</symbol>
<symbol overflow="visible" id="glyph0-1">
<path style="stroke:none;" d="M 9.65625 -6.875 L 9.65625 0 L 8.1875 0 L 8.1875 -6.875 L 0.140625 -19.984375 L 1.734375 -19.984375 L 8.96875 -8.21875 L 16.1875 -19.984375 L 17.703125 -19.984375 Z M 9.65625 -6.875 "/>
</symbol>
<symbol overflow="visible" id="glyph0-2">
<path style="stroke:none;" d="M 8.84375 0.109375 C 7.4375 0.109375 6.164062 -0.210938 5.03125 -0.859375 C 3.90625 -1.503906 3.019531 -2.398438 2.375 -3.546875 C 1.726562 -4.703125 1.40625 -6.003906 1.40625 -7.453125 C 1.40625 -8.898438 1.726562 -10.195312 2.375 -11.34375 C 3.019531 -12.5 3.90625 -13.398438 5.03125 -14.046875 C 6.164062 -14.691406 7.4375 -15.015625 8.84375 -15.015625 C 10.257812 -15.015625 11.53125 -14.691406 12.65625 -14.046875 C 13.789062 -13.398438 14.679688 -12.5 15.328125 -11.34375 C 15.972656 -10.195312 16.296875 -8.898438 16.296875 -7.453125 C 16.296875 -6.003906 15.972656 -4.703125 15.328125 -3.546875 C 14.679688 -2.398438 13.789062 -1.503906 12.65625 -0.859375 C 11.53125 -0.210938 10.257812 0.109375 8.84375 0.109375 Z M 8.84375 -1.171875 C 9.988281 -1.171875 11.015625 -1.4375 11.921875 -1.96875 C 12.828125 -2.5 13.539062 -3.238281 14.0625 -4.1875 C 14.582031 -5.144531 14.84375 -6.234375 14.84375 -7.453125 C 14.84375 -8.671875 14.582031 -9.753906 14.0625 -10.703125 C 13.539062 -11.648438 12.828125 -12.390625 11.921875 -12.921875 C 11.015625 -13.460938 9.988281 -13.734375 8.84375 -13.734375 C 7.707031 -13.734375 6.6875 -13.460938 5.78125 -12.921875 C 4.875 -12.390625 4.160156 -11.648438 3.640625 -10.703125 C 3.117188 -9.753906 2.859375 -8.671875 2.859375 -7.453125 C 2.859375 -6.234375 3.117188 -5.144531 3.640625 -4.1875 C 4.160156 -3.238281 4.875 -2.5 5.78125 -1.96875 C 6.6875 -1.4375 7.707031 -1.171875 8.84375 -1.171875 Z M 8.84375 -1.171875 "/>
</symbol>
<symbol overflow="visible" id="glyph0-3">
<path style="stroke:none;" d="M 16.078125 -14.90625 L 16.078125 0 L 14.703125 0 L 14.703125 -3.203125 C 14.203125 -2.148438 13.46875 -1.332031 12.5 -0.75 C 11.53125 -0.175781 10.390625 0.109375 9.078125 0.109375 C 7.140625 0.109375 5.617188 -0.429688 4.515625 -1.515625 C 3.410156 -2.597656 2.859375 -4.15625 2.859375 -6.1875 L 2.859375 -14.90625 L 4.28125 -14.90625 L 4.28125 -6.3125 C 4.28125 -4.632812 4.707031 -3.359375 5.5625 -2.484375 C 6.414062 -1.609375 7.625 -1.171875 9.1875 -1.171875 C 10.863281 -1.171875 12.191406 -1.691406 13.171875 -2.734375 C 14.148438 -3.785156 14.640625 -5.195312 14.640625 -6.96875 L 14.640625 -14.90625 Z M 16.078125 -14.90625 "/>
</symbol>
<symbol overflow="visible" id="glyph0-4">
<path style="stroke:none;" d="M 4.390625 -11.640625 C 4.847656 -12.734375 5.5625 -13.566406 6.53125 -14.140625 C 7.507812 -14.722656 8.691406 -15.015625 10.078125 -15.015625 L 10.078125 -13.609375 L 9.734375 -13.640625 C 8.078125 -13.640625 6.78125 -13.117188 5.84375 -12.078125 C 4.914062 -11.046875 4.453125 -9.609375 4.453125 -7.765625 L 4.453125 0 L 3.03125 0 L 3.03125 -14.90625 L 4.390625 -14.90625 Z M 4.390625 -11.640625 "/>
</symbol>
<symbol overflow="visible" id="glyph0-5">
<path style="stroke:none;" d=""/>
</symbol>
<symbol overflow="visible" id="glyph0-6">
<path style="stroke:none;" d="M 16.265625 -21.1875 L 16.265625 0 L 14.875 0 L 14.875 -3.515625 C 14.28125 -2.347656 13.453125 -1.453125 12.390625 -0.828125 C 11.328125 -0.203125 10.117188 0.109375 8.765625 0.109375 C 7.378906 0.109375 6.125 -0.210938 5 -0.859375 C 3.875 -1.503906 2.992188 -2.394531 2.359375 -3.53125 C 1.722656 -4.675781 1.40625 -5.984375 1.40625 -7.453125 C 1.40625 -8.921875 1.722656 -10.226562 2.359375 -11.375 C 2.992188 -12.53125 3.875 -13.425781 5 -14.0625 C 6.125 -14.695312 7.378906 -15.015625 8.765625 -15.015625 C 10.097656 -15.015625 11.289062 -14.695312 12.34375 -14.0625 C 13.40625 -13.4375 14.238281 -12.566406 14.84375 -11.453125 L 14.84375 -21.1875 Z M 8.84375 -1.171875 C 9.988281 -1.171875 11.015625 -1.4375 11.921875 -1.96875 C 12.828125 -2.5 13.539062 -3.238281 14.0625 -4.1875 C 14.582031 -5.144531 14.84375 -6.234375 14.84375 -7.453125 C 14.84375 -8.671875 14.582031 -9.753906 14.0625 -10.703125 C 13.539062 -11.648438 12.828125 -12.390625 11.921875 -12.921875 C 11.015625 -13.460938 9.988281 -13.734375 8.84375 -13.734375 C 7.707031 -13.734375 6.6875 -13.460938 5.78125 -12.921875 C 4.875 -12.390625 4.160156 -11.648438 3.640625 -10.703125 C 3.117188 -9.753906 2.859375 -8.671875 2.859375 -7.453125 C 2.859375 -6.234375 3.117188 -5.144531 3.640625 -4.1875 C 4.160156 -3.238281 4.875 -2.5 5.78125 -1.96875 C 6.6875 -1.4375 7.707031 -1.171875 8.84375 -1.171875 Z M 8.84375 -1.171875 "/>
</symbol>
<symbol overflow="visible" id="glyph0-7">
<path style="stroke:none;" d="M 8.046875 -15.015625 C 9.890625 -15.015625 11.304688 -14.539062 12.296875 -13.59375 C 13.285156 -12.65625 13.78125 -11.273438 13.78125 -9.453125 L 13.78125 0 L 12.421875 0 L 12.421875 -2.65625 C 11.941406 -1.78125 11.242188 -1.097656 10.328125 -0.609375 C 9.421875 -0.128906 8.328125 0.109375 7.046875 0.109375 C 5.390625 0.109375 4.082031 -0.28125 3.125 -1.0625 C 2.164062 -1.84375 1.6875 -2.867188 1.6875 -4.140625 C 1.6875 -5.378906 2.128906 -6.382812 3.015625 -7.15625 C 3.898438 -7.925781 5.3125 -8.3125 7.25 -8.3125 L 12.359375 -8.3125 L 12.359375 -9.5 C 12.359375 -10.894531 11.984375 -11.953125 11.234375 -12.671875 C 10.484375 -13.398438 9.382812 -13.765625 7.9375 -13.765625 C 6.945312 -13.765625 6 -13.59375 5.09375 -13.25 C 4.1875 -12.90625 3.421875 -12.445312 2.796875 -11.875 L 2.078125 -12.90625 C 2.828125 -13.570312 3.722656 -14.085938 4.765625 -14.453125 C 5.816406 -14.828125 6.910156 -15.015625 8.046875 -15.015625 Z M 7.25 -1.0625 C 8.488281 -1.0625 9.539062 -1.34375 10.40625 -1.90625 C 11.269531 -2.476562 11.921875 -3.304688 12.359375 -4.390625 L 12.359375 -7.1875 L 7.28125 -7.1875 C 5.8125 -7.1875 4.75 -6.921875 4.09375 -6.390625 C 3.4375 -5.859375 3.109375 -5.128906 3.109375 -4.203125 C 3.109375 -3.222656 3.46875 -2.453125 4.1875 -1.890625 C 4.914062 -1.335938 5.9375 -1.0625 7.25 -1.0625 Z M 7.25 -1.0625 "/>
</symbol>
<symbol overflow="visible" id="glyph0-8">
<path style="stroke:none;" d="M 14.984375 -14.90625 L 7.34375 2.03125 C 6.769531 3.34375 6.101562 4.273438 5.34375 4.828125 C 4.59375 5.378906 3.707031 5.65625 2.6875 5.65625 C 2 5.65625 1.351562 5.539062 0.75 5.3125 C 0.15625 5.082031 -0.347656 4.75 -0.765625 4.3125 L -0.0625 3.21875 C 0.695312 4 1.625 4.390625 2.71875 4.390625 C 3.4375 4.390625 4.050781 4.191406 4.5625 3.796875 C 5.082031 3.398438 5.5625 2.710938 6 1.734375 L 6.796875 -0.0625 L 0.078125 -14.90625 L 1.59375 -14.90625 L 7.5625 -1.5625 L 13.53125 -14.90625 Z M 14.984375 -14.90625 "/>
</symbol>
<symbol overflow="visible" id="glyph0-9">
<path style="stroke:none;" d="M 10.3125 -15.015625 C 12.175781 -15.015625 13.648438 -14.472656 14.734375 -13.390625 C 15.816406 -12.304688 16.359375 -10.742188 16.359375 -8.703125 L 16.359375 0 L 14.9375 0 L 14.9375 -8.59375 C 14.9375 -10.269531 14.507812 -11.546875 13.65625 -12.421875 C 12.8125 -13.296875 11.628906 -13.734375 10.109375 -13.734375 C 8.359375 -13.734375 6.976562 -13.207031 5.96875 -12.15625 C 4.957031 -11.113281 4.453125 -9.707031 4.453125 -7.9375 L 4.453125 0 L 3.03125 0 L 3.03125 -21.1875 L 4.453125 -21.1875 L 4.453125 -11.796875 C 4.960938 -12.816406 5.722656 -13.609375 6.734375 -14.171875 C 7.742188 -14.734375 8.9375 -15.015625 10.3125 -15.015625 Z M 10.3125 -15.015625 "/>
</symbol>
<symbol overflow="visible" id="glyph0-10">
<path style="stroke:none;" d="M 15.609375 -7.109375 L 2.796875 -7.109375 C 2.835938 -5.941406 3.132812 -4.90625 3.6875 -4 C 4.238281 -3.101562 4.984375 -2.40625 5.921875 -1.90625 C 6.867188 -1.414062 7.929688 -1.171875 9.109375 -1.171875 C 10.078125 -1.171875 10.972656 -1.347656 11.796875 -1.703125 C 12.628906 -2.054688 13.320312 -2.570312 13.875 -3.25 L 14.703125 -2.3125 C 14.054688 -1.53125 13.242188 -0.929688 12.265625 -0.515625 C 11.285156 -0.0976562 10.222656 0.109375 9.078125 0.109375 C 7.585938 0.109375 6.265625 -0.210938 5.109375 -0.859375 C 3.953125 -1.503906 3.046875 -2.394531 2.390625 -3.53125 C 1.734375 -4.675781 1.40625 -5.984375 1.40625 -7.453125 C 1.40625 -8.898438 1.710938 -10.195312 2.328125 -11.34375 C 2.941406 -12.5 3.789062 -13.398438 4.875 -14.046875 C 5.96875 -14.691406 7.1875 -15.015625 8.53125 -15.015625 C 9.882812 -15.015625 11.097656 -14.695312 12.171875 -14.0625 C 13.242188 -13.425781 14.085938 -12.535156 14.703125 -11.390625 C 15.328125 -10.242188 15.640625 -8.945312 15.640625 -7.5 Z M 8.53125 -13.765625 C 7.488281 -13.765625 6.546875 -13.53125 5.703125 -13.0625 C 4.867188 -12.59375 4.195312 -11.929688 3.6875 -11.078125 C 3.1875 -10.234375 2.898438 -9.28125 2.828125 -8.21875 L 14.25 -8.21875 C 14.1875 -9.28125 13.898438 -10.226562 13.390625 -11.0625 C 12.878906 -11.90625 12.203125 -12.566406 11.359375 -13.046875 C 10.523438 -13.523438 9.582031 -13.765625 8.53125 -13.765625 Z M 8.53125 -13.765625 "/>
</symbol>
<symbol overflow="visible" id="glyph0-11">
<path style="stroke:none;" d="M 2.765625 -19.984375 L 4.421875 -19.984375 L 4.140625 -5.734375 L 3.046875 -5.734375 Z M 3.59375 0.109375 C 3.269531 0.109375 2.992188 -0.00390625 2.765625 -0.234375 C 2.535156 -0.460938 2.421875 -0.738281 2.421875 -1.0625 C 2.421875 -1.382812 2.535156 -1.660156 2.765625 -1.890625 C 2.992188 -2.117188 3.269531 -2.234375 3.59375 -2.234375 C 3.9375 -2.234375 4.222656 -2.117188 4.453125 -1.890625 C 4.679688 -1.660156 4.796875 -1.382812 4.796875 -1.0625 C 4.796875 -0.738281 4.679688 -0.460938 4.453125 -0.234375 C 4.222656 -0.00390625 3.9375 0.109375 3.59375 0.109375 Z M 3.59375 0.109375 "/>
</symbol>
</g>
<clipPath id="clip1">
  <path d="M 1.984375 0 L 538.015625 0 L 538.015625 134.007812 L 1.984375 134.007812 Z M 1.984375 0 "/>
</clipPath>
<clipPath id="clip2">
  <path d="M 289 80.117188 L 324.566406 80.117188 L 324.566406 94 L 289 94 Z M 289 80.117188 "/>
</clipPath>
<clipPath id="clip3">
  <path d="M 282.875 85 L 298 85 L 298 100.21875 L 282.875 100.21875 Z M 282.875 85 "/>
</clipPath>
<clipPath id="clip4">
  <path d="M 487.230469 22.527344 L 497 22.527344 L 497 33 L 487.230469 33 Z M 487.230469 22.527344 "/>
</clipPath>
<clipPath id="clip5">
  <path d="M 494 29 L 511.796875 29 L 511.796875 37.417969 L 494 37.417969 Z M 494 29 "/>
</clipPath>
<clipPath id="clip6">
  <path d="M 505 34 L 511.796875 34 L 511.796875 37.417969 L 505 37.417969 Z M 505 34 "/>
</clipPath>
<clipPath id="clip7">
  <path d="M 499 26 L 511.796875 26 L 511.796875 34 L 499 34 Z M 499 26 "/>
</clipPath>
<clipPath id="clip8">
  <path d="M 491 33 L 496 33 L 496 37.417969 L 491 37.417969 Z M 491 33 "/>
</clipPath>
<clipPath id="clip9">
  <path d="M 489 122 L 501.761719 122 L 501.761719 129.578125 L 489 129.578125 Z M 489 122 "/>
</clipPath>
<clipPath id="clip10">
  <path d="M 475 119 L 485 119 L 485 129.578125 L 475 129.578125 Z M 475 119 "/>
</clipPath>
<clipPath id="clip11">
  <path d="M 324.644531 49 L 338 49 L 338 65 L 324.644531 65 Z M 324.644531 49 "/>
</clipPath>
<clipPath id="clip12">
  <path d="M 324.644531 59 L 330 59 L 330 65 L 324.644531 65 Z M 324.644531 59 "/>
</clipPath>
<clipPath id="clip13">
  <path d="M 188.5 28.441406 L 219.769531 28.441406 L 219.769531 59.710938 L 188.5 59.710938 Z M 188.5 28.441406 "/>
</clipPath>
<clipPath id="clip14">
  <path d="M 28.0625 90 L 51 90 L 51 113.457031 L 28.0625 113.457031 Z M 28.0625 90 "/>
</clipPath>
<clipPath id="clip15">
  <path d="M 31 88.144531 L 53.375 88.144531 L 53.375 111 L 31 111 Z M 31 88.144531 "/>
</clipPath>
</defs>
<g id="surface1">
<g clip-path="url(#clip1)" clip-rule="nonzero">
<path style=" stroke:none;fill-rule:nonzero;fill:rgb(100%,100%,100%);fill-opacity:1;" d="M 1.984375 0 L 538.015625 0 L 538.015625 141.453125 L 1.984375 141.453125 Z M 1.984375 0 "/>
<path style=" stroke:none;fill-rule:nonzero;fill:rgb(100%,100%,100%);fill-opacity:1;" d="M 1.984375 0 L 538.015625 0 L 538.015625 134.007812 L 1.984375 134.007812 Z M 1.984375 0 "/>
<path style=" stroke:none;fill-rule:nonzero;fill:rgb(93.728638%,96.859741%,100%);fill-opacity:1;" d="M 1.984375 0 L 538.015625 0 L 538.015625 134.007812 L 1.984375 134.007812 Z M 1.984375 0 "/>
</g>
<g clip-path="url(#clip2)" clip-rule="nonzero">
<path style=" stroke:none;fill-rule:nonzero;fill:rgb(100%,92.939758%,94.898987%);fill-opacity:1;" d="M 289.949219 80.191406 L 324.566406 80.191406 L 324.566406 93.089844 L 289.949219 93.089844 Z M 289.949219 80.191406 "/>
</g>
<g clip-path="url(#clip3)" clip-rule="nonzero">
<path style=" stroke:none;fill-rule:nonzero;fill:rgb(0%,0%,0%);fill-opacity:1;" d="M 289.949219 100.144531 C 286.035156 100.144531 282.875 96.890625 282.875 92.929688 C 282.875 88.941406 286.066406 85.714844 289.949219 85.714844 C 293.078125 85.714844 295.863281 87.855469 296.738281 90.886719 L 296.144531 91.078125 C 295.332031 88.300781 292.796875 86.355469 289.949219 86.355469 C 286.378906 86.355469 283.5 89.324219 283.5 92.929688 C 283.5 96.570312 286.410156 99.507812 289.949219 99.507812 C 293.515625 99.507812 296.394531 96.539062 296.394531 92.929688 L 297.023438 92.929688 C 297.054688 96.890625 293.859375 100.144531 289.949219 100.144531 Z M 289.949219 100.144531 "/>
</g>
<path style=" stroke:none;fill-rule:nonzero;fill:rgb(0%,0%,0%);fill-opacity:1;" d="M 492.191406 33.058594 L 491.574219 33.058594 L 491.574219 26.789062 L 499.484375 26.789062 L 499.484375 27.402344 L 492.191406 27.402344 Z M 492.191406 33.058594 "/>
<g clip-path="url(#clip4)" clip-rule="nonzero">
<path style=" stroke:none;fill-rule:nonzero;fill:rgb(92.939758%,30.979919%,35.688782%);fill-opacity:1;" d="M 496.910156 27.339844 C 496.910156 27.652344 496.878906 27.964844 496.816406 28.269531 C 496.753906 28.578125 496.664062 28.875 496.539062 29.164062 C 496.417969 29.457031 496.269531 29.730469 496.09375 29.992188 C 495.917969 30.25 495.714844 30.492188 495.492188 30.714844 C 495.265625 30.933594 495.023438 31.132812 494.757812 31.304688 C 494.492188 31.480469 494.214844 31.628906 493.921875 31.746094 C 493.628906 31.867188 493.324219 31.957031 493.011719 32.019531 C 492.703125 32.078125 492.386719 32.109375 492.070312 32.109375 C 491.75 32.109375 491.4375 32.078125 491.125 32.019531 C 490.8125 31.957031 490.511719 31.867188 490.214844 31.746094 C 489.921875 31.628906 489.644531 31.480469 489.378906 31.304688 C 489.117188 31.132812 488.871094 30.933594 488.644531 30.714844 C 488.421875 30.492188 488.222656 30.25 488.042969 29.992188 C 487.867188 29.730469 487.71875 29.457031 487.597656 29.164062 C 487.476562 28.875 487.382812 28.578125 487.320312 28.269531 C 487.257812 27.964844 487.230469 27.652344 487.230469 27.339844 C 487.230469 27.027344 487.257812 26.71875 487.320312 26.410156 C 487.382812 26.101562 487.476562 25.804688 487.597656 25.515625 C 487.71875 25.226562 487.867188 24.953125 488.042969 24.691406 C 488.222656 24.429688 488.421875 24.191406 488.644531 23.96875 C 488.871094 23.746094 489.117188 23.550781 489.378906 23.375 C 489.644531 23.203125 489.921875 23.054688 490.214844 22.933594 C 490.511719 22.816406 490.8125 22.726562 491.125 22.664062 C 491.4375 22.601562 491.75 22.570312 492.070312 22.570312 C 492.386719 22.570312 492.703125 22.601562 493.011719 22.664062 C 493.324219 22.726562 493.628906 22.816406 493.921875 22.933594 C 494.214844 23.054688 494.492188 23.203125 494.757812 23.375 C 495.023438 23.550781 495.265625 23.746094 495.492188 23.96875 C 495.714844 24.191406 495.917969 24.429688 496.09375 24.691406 C 496.269531 24.953125 496.417969 25.226562 496.539062 25.515625 C 496.664062 25.804688 496.753906 26.101562 496.816406 26.410156 C 496.878906 26.71875 496.910156 27.027344 496.910156 27.339844 Z M 496.910156 27.339844 "/>
</g>
<g clip-path="url(#clip5)" clip-rule="nonzero">
<path style=" stroke:none;fill-rule:nonzero;fill:rgb(0%,0%,0%);fill-opacity:1;" d="M 503.953125 37.488281 L 494.675781 37.488281 L 494.675781 29.847656 L 511.863281 29.847656 L 511.863281 30.460938 L 495.296875 30.460938 L 495.296875 36.878906 L 503.953125 36.878906 Z M 503.953125 37.488281 "/>
</g>
<g clip-path="url(#clip6)" clip-rule="nonzero">
<path style=" stroke:none;fill-rule:nonzero;fill:rgb(0%,0%,0%);fill-opacity:1;" d="M 512.175781 37.488281 L 505.503906 37.488281 L 505.503906 36.878906 L 511.554688 36.878906 L 511.554688 34.859375 L 512.175781 34.859375 Z M 512.175781 37.488281 "/>
</g>
<g clip-path="url(#clip7)" clip-rule="nonzero">
<path style=" stroke:none;fill-rule:nonzero;fill:rgb(0%,0%,0%);fill-opacity:1;" d="M 512.175781 33.332031 L 511.554688 33.332031 L 511.554688 30.277344 L 508.636719 27.402344 L 499.484375 27.402344 L 499.484375 26.789062 L 508.886719 26.789062 L 512.175781 30.03125 Z M 512.175781 33.332031 "/>
</g>
<g clip-path="url(#clip8)" clip-rule="nonzero">
<path style=" stroke:none;fill-rule:nonzero;fill:rgb(0%,0%,0%);fill-opacity:1;" d="M 494.769531 37.398438 L 491.574219 34.25 L 491.574219 33.058594 L 492.191406 33.058594 L 492.191406 34.003906 L 495.203125 36.96875 Z M 494.769531 37.398438 "/>
</g>
<path style=" stroke:none;fill-rule:nonzero;fill:rgb(0%,0%,0%);fill-opacity:1;" d="M 494.984375 30.460938 C 494.890625 30.460938 494.832031 30.429688 494.769531 30.367188 L 491.757812 27.402344 C 491.632812 27.28125 491.632812 27.097656 491.757812 26.972656 C 491.882812 26.851562 492.070312 26.851562 492.191406 26.972656 L 495.203125 29.9375 C 495.328125 30.0625 495.328125 30.246094 495.203125 30.367188 C 495.140625 30.429688 495.078125 30.460938 494.984375 30.460938 Z M 494.984375 30.460938 "/>
<path style=" stroke:none;fill-rule:nonzero;fill:rgb(100%,100%,100%);fill-opacity:1;" d="M 455.550781 99.339844 L 469.703125 99.339844 L 469.703125 113.523438 L 455.550781 113.523438 Z M 455.550781 99.339844 "/>
<path style=" stroke:none;fill-rule:nonzero;fill:rgb(0%,0%,0%);fill-opacity:1;" d="M 335.5625 64.859375 L 331.160156 64.859375 L 331.160156 64.230469 L 335.28125 64.230469 L 339.90625 59.566406 L 340.375 60.039062 Z M 335.5625 64.859375 "/>
<path style=" stroke:none;fill-rule:nonzero;fill:rgb(0%,0%,0%);fill-opacity:1;" d="M 343.585938 49.417969 L 344.214844 49.417969 L 344.214844 82.101562 L 343.585938 82.101562 Z M 343.585938 49.417969 "/>
<path style=" stroke:none;fill-rule:nonzero;fill:rgb(92.939758%,30.979919%,35.688782%);fill-opacity:1;" d="M 380.664062 96.882812 L 383.371094 96.882812 L 392.429688 113.746094 L 390.070312 116.707031 L 374.5 116.707031 L 371.671875 113.175781 Z M 380.664062 96.882812 "/>
<path style=" stroke:none;fill-rule:nonzero;fill:rgb(5.488586%,66.668701%,100%);fill-opacity:1;" d="M 436.933594 37.628906 L 437.371094 19.382812 L 431.585938 18.6875 L 427.121094 23.414062 L 427.589844 24.582031 L 423.0625 30.347656 Z M 436.933594 37.628906 "/>
<path style=" stroke:none;fill-rule:nonzero;fill:rgb(100%,63.529968%,55.288696%);fill-opacity:1;" d="M 359.5 64.957031 C 359.5 65.761719 359.421875 66.5625 359.261719 67.351562 C 359.105469 68.144531 358.875 68.914062 358.566406 69.660156 C 358.257812 70.40625 357.878906 71.113281 357.433594 71.785156 C 356.984375 72.457031 356.476562 73.078125 355.90625 73.648438 C 355.335938 74.21875 354.71875 74.726562 354.046875 75.175781 C 353.378906 75.625 352.671875 76.003906 351.925781 76.3125 C 351.183594 76.621094 350.414062 76.855469 349.625 77.011719 C 348.835938 77.167969 348.039062 77.246094 347.234375 77.246094 C 346.425781 77.246094 345.628906 77.167969 344.839844 77.011719 C 344.050781 76.855469 343.28125 76.621094 342.539062 76.3125 C 341.792969 76.003906 341.089844 75.625 340.417969 75.175781 C 339.75 74.726562 339.128906 74.21875 338.558594 73.648438 C 337.988281 73.078125 337.480469 72.457031 337.035156 71.785156 C 336.585938 71.113281 336.207031 70.40625 335.902344 69.660156 C 335.59375 68.914062 335.359375 68.144531 335.203125 67.351562 C 335.046875 66.5625 334.96875 65.761719 334.96875 64.957031 C 334.96875 64.148438 335.046875 63.347656 335.203125 62.558594 C 335.359375 61.765625 335.59375 60.996094 335.902344 60.25 C 336.207031 59.507812 336.585938 58.796875 337.035156 58.125 C 337.480469 57.457031 337.988281 56.835938 338.558594 56.265625 C 339.128906 55.691406 339.75 55.183594 340.417969 54.734375 C 341.089844 54.285156 341.792969 53.910156 342.539062 53.597656 C 343.28125 53.289062 344.050781 53.058594 344.839844 52.898438 C 345.628906 52.742188 346.425781 52.664062 347.234375 52.664062 C 348.039062 52.664062 348.835938 52.742188 349.625 52.898438 C 350.414062 53.058594 351.183594 53.289062 351.925781 53.597656 C 352.671875 53.910156 353.378906 54.285156 354.046875 54.734375 C 354.71875 55.183594 355.335938 55.691406 355.90625 56.265625 C 356.476562 56.835938 356.984375 57.457031 357.433594 58.125 C 357.878906 58.796875 358.257812 59.507812 358.566406 60.25 C 358.875 60.996094 359.105469 61.765625 359.261719 62.558594 C 359.421875 63.347656 359.5 64.148438 359.5 64.957031 Z M 359.5 64.957031 "/>
<path style=" stroke:none;fill-rule:nonzero;fill:rgb(100%,63.529968%,55.288696%);fill-opacity:1;" d="M 477.945312 76.429688 L 485.871094 85.09375 L 477.378906 89.601562 Z M 477.945312 76.429688 "/>
<path style=" stroke:none;fill-rule:nonzero;fill:rgb(100%,63.529968%,55.288696%);fill-opacity:1;" d="M 472.851562 69.117188 L 476.6875 71.730469 L 478.792969 79.515625 L 472.851562 81.40625 Z M 472.851562 69.117188 "/>
<path style=" stroke:none;fill-rule:nonzero;fill:rgb(0%,0%,0%);fill-opacity:1;" d="M 416.332031 43.902344 L 472.851562 43.902344 L 472.851562 44.53125 L 416.332031 44.53125 Z M 416.332031 43.902344 "/>
<path style=" stroke:none;fill-rule:nonzero;fill:rgb(0%,0%,0%);fill-opacity:1;" d="M 347.042969 43.902344 L 408.6875 43.902344 L 408.6875 44.53125 L 347.042969 44.53125 Z M 347.042969 43.902344 "/>
<path style=" stroke:none;fill-rule:nonzero;fill:rgb(100%,63.529968%,55.288696%);fill-opacity:1;" d="M 457.125 41.066406 C 457.125 41.273438 457.085938 41.476562 457.003906 41.667969 C 456.925781 41.863281 456.8125 42.03125 456.664062 42.179688 C 456.515625 42.328125 456.347656 42.441406 456.152344 42.519531 C 455.960938 42.601562 455.761719 42.640625 455.550781 42.640625 C 455.34375 42.640625 455.140625 42.601562 454.949219 42.519531 C 454.757812 42.441406 454.585938 42.328125 454.441406 42.179688 C 454.292969 42.03125 454.179688 41.863281 454.097656 41.667969 C 454.019531 41.476562 453.980469 41.273438 453.980469 41.066406 C 453.980469 40.855469 454.019531 40.65625 454.097656 40.460938 C 454.179688 40.269531 454.292969 40.097656 454.441406 39.949219 C 454.585938 39.804688 454.757812 39.691406 454.949219 39.609375 C 455.140625 39.53125 455.34375 39.488281 455.550781 39.488281 C 455.761719 39.488281 455.960938 39.53125 456.152344 39.609375 C 456.347656 39.691406 456.515625 39.804688 456.664062 39.949219 C 456.8125 40.097656 456.925781 40.269531 457.003906 40.460938 C 457.085938 40.65625 457.125 40.855469 457.125 41.066406 Z M 457.125 41.066406 "/>
<path style=" stroke:none;fill-rule:nonzero;fill:rgb(92.939758%,30.979919%,35.688782%);fill-opacity:1;" d="M 461.84375 41.066406 C 461.84375 41.273438 461.800781 41.476562 461.722656 41.667969 C 461.640625 41.863281 461.527344 42.03125 461.382812 42.179688 C 461.234375 42.328125 461.0625 42.441406 460.871094 42.519531 C 460.679688 42.601562 460.476562 42.640625 460.269531 42.640625 C 460.0625 42.640625 459.859375 42.601562 459.667969 42.519531 C 459.476562 42.441406 459.304688 42.328125 459.15625 42.179688 C 459.011719 42.03125 458.894531 41.863281 458.816406 41.667969 C 458.738281 41.476562 458.695312 41.273438 458.695312 41.066406 C 458.695312 40.855469 458.738281 40.65625 458.816406 40.460938 C 458.894531 40.269531 459.011719 40.097656 459.15625 39.949219 C 459.304688 39.804688 459.476562 39.691406 459.667969 39.609375 C 459.859375 39.53125 460.0625 39.488281 460.269531 39.488281 C 460.476562 39.488281 460.679688 39.53125 460.871094 39.609375 C 461.0625 39.691406 461.234375 39.804688 461.382812 39.949219 C 461.527344 40.097656 461.640625 40.269531 461.722656 40.460938 C 461.800781 40.65625 461.84375 40.855469 461.84375 41.066406 Z M 461.84375 41.066406 "/>
<path style=" stroke:none;fill-rule:nonzero;fill:rgb(5.488586%,66.668701%,100%);fill-opacity:1;" d="M 466.558594 41.066406 C 466.558594 41.273438 466.519531 41.476562 466.441406 41.667969 C 466.359375 41.863281 466.246094 42.03125 466.097656 42.179688 C 465.953125 42.328125 465.78125 42.441406 465.589844 42.519531 C 465.394531 42.601562 465.195312 42.640625 464.988281 42.640625 C 464.777344 42.640625 464.578125 42.601562 464.386719 42.519531 C 464.191406 42.441406 464.023438 42.328125 463.875 42.179688 C 463.726562 42.03125 463.613281 41.863281 463.535156 41.667969 C 463.453125 41.476562 463.414062 41.273438 463.414062 41.066406 C 463.414062 40.855469 463.453125 40.65625 463.535156 40.460938 C 463.613281 40.269531 463.726562 40.097656 463.875 39.949219 C 464.023438 39.804688 464.191406 39.691406 464.386719 39.609375 C 464.578125 39.53125 464.777344 39.488281 464.988281 39.488281 C 465.195312 39.488281 465.394531 39.53125 465.589844 39.609375 C 465.78125 39.691406 465.953125 39.804688 466.097656 39.949219 C 466.246094 40.097656 466.359375 40.269531 466.441406 40.460938 C 466.519531 40.65625 466.558594 40.855469 466.558594 41.066406 Z M 466.558594 41.066406 "/>
<path style=" stroke:none;fill-rule:nonzero;fill:rgb(0%,0%,0%);fill-opacity:1;" d="M 415.042969 29.027344 L 411.582031 28.046875 L 407.839844 29.371094 L 395.226562 50.140625 L 398.84375 52.664062 L 409.601562 40.9375 L 411.363281 31.199219 Z M 415.042969 29.027344 "/>
<path style=" stroke:none;fill-rule:nonzero;fill:rgb(0%,0%,0%);fill-opacity:1;" d="M 415.3125 46.015625 L 419.195312 35.796875 L 419.78125 36.019531 L 415.898438 46.242188 Z M 415.3125 46.015625 "/>
<path style=" stroke:none;fill-rule:nonzero;fill:rgb(0%,0%,0%);fill-opacity:1;" d="M 410.765625 59.691406 L 405.984375 57.421875 L 410.703125 31.230469 L 416.644531 27.703125 L 426.144531 32.683594 L 425.863281 33.25 L 416.675781 28.425781 L 411.269531 31.609375 L 406.675781 57.078125 L 410.417969 58.839844 L 414.757812 47.464844 L 415.355469 47.683594 Z M 410.765625 59.691406 "/>
<path style=" stroke:none;fill-rule:nonzero;fill:rgb(0%,0%,0%);fill-opacity:1;" d="M 488.261719 124.082031 L 477.535156 102.933594 L 478.101562 102.648438 L 488.574219 123.292969 L 493.480469 121.59375 L 488.828125 107.722656 L 489.488281 105.832031 L 485.996094 94.140625 L 486.59375 93.953125 L 490.117188 105.832031 L 489.519531 107.722656 L 494.300781 122 Z M 488.261719 124.082031 "/>
<path style=" stroke:none;fill-rule:nonzero;fill:rgb(0%,0%,0%);fill-opacity:1;" d="M 483.8125 86.886719 L 484.414062 86.707031 L 486.15625 92.53125 L 485.554688 92.714844 Z M 483.8125 86.886719 "/>
<g clip-path="url(#clip9)" clip-rule="nonzero">
<path style=" stroke:none;fill-rule:nonzero;fill:rgb(0%,0%,0%);fill-opacity:1;" d="M 489.425781 123.355469 L 490.746094 127.011719 L 490.746094 129.660156 L 501.660156 129.660156 L 500.777344 128.179688 L 499.082031 128.054688 L 493.703125 125.753906 L 492.980469 122.128906 Z M 489.425781 123.355469 "/>
</g>
<path style=" stroke:none;fill-rule:nonzero;fill:rgb(0%,0%,0%);fill-opacity:1;" d="M 489.769531 121.875 L 483.730469 105.707031 L 482.632812 105.707031 L 483.199219 104.476562 L 478.195312 92.722656 L 478.480469 92.628906 L 483.542969 104.507812 L 483.132812 105.390625 L 483.921875 105.390625 L 490.054688 121.78125 Z M 489.769531 121.875 "/>
<path style=" stroke:none;fill-rule:nonzero;fill:rgb(0%,0%,0%);fill-opacity:1;" d="M 474.011719 81.1875 L 473.917969 80.902344 L 478.605469 79.421875 L 476.96875 73.527344 L 477.253906 73.433594 L 478.984375 79.609375 Z M 474.011719 81.1875 "/>
<path style=" stroke:none;fill-rule:nonzero;fill:rgb(0%,0%,0%);fill-opacity:1;" d="M 474.359375 120.207031 L 466.589844 118.882812 L 465.554688 116.832031 L 466.121094 116.582031 L 467 118.3125 L 474.011719 119.511719 L 475.273438 116.992188 L 477.851562 100.507812 L 476.71875 97.511719 L 477.503906 79.800781 L 478.132812 79.832031 L 477.347656 97.417969 L 478.511719 100.445312 L 478.511719 100.507812 L 475.902344 117.210938 Z M 474.359375 120.207031 "/>
<path style=" stroke:none;fill-rule:nonzero;fill:rgb(0%,0%,0%);fill-opacity:1;" d="M 474.503906 105.683594 L 474.589844 105.382812 L 478.214844 106.429688 L 478.128906 106.730469 Z M 474.503906 105.683594 "/>
<path style=" stroke:none;fill-rule:nonzero;fill:rgb(0%,0%,0%);fill-opacity:1;" d="M 474.125 107.832031 L 474.210938 107.527344 L 477.871094 108.585938 L 477.78125 108.886719 Z M 474.125 107.832031 "/>
<path style=" stroke:none;fill-rule:nonzero;fill:rgb(0%,0%,0%);fill-opacity:1;" d="M 473.980469 110.023438 L 474.066406 109.71875 L 477.722656 110.773438 L 477.636719 111.078125 Z M 473.980469 110.023438 "/>
<path style=" stroke:none;fill-rule:nonzero;fill:rgb(0%,0%,0%);fill-opacity:1;" d="M 480.082031 107.25 L 477.660156 119.953125 L 482.316406 123.261719 L 485.085938 117.085938 Z M 480.082031 107.25 "/>
<g clip-path="url(#clip10)" clip-rule="nonzero">
<path style=" stroke:none;fill-rule:nonzero;fill:rgb(0%,0%,0%);fill-opacity:1;" d="M 478.824219 119.859375 L 477.097656 124.207031 L 475.273438 125.5625 L 478.324219 129.660156 L 484.894531 129.660156 L 484.109375 128.335938 L 480.871094 127.644531 L 480.050781 124.996094 L 481.75 121.496094 Z M 478.824219 119.859375 "/>
</g>
<path style=" stroke:none;fill-rule:nonzero;fill:rgb(0%,0%,0%);fill-opacity:1;" d="M 475.523438 70.125 L 474.925781 66.6875 L 477.441406 65.839844 L 476.75 63.253906 L 477.789062 62.152344 L 476.246094 60.007812 L 476.75 59.628906 L 478.605469 62.214844 L 477.441406 63.410156 L 478.195312 66.246094 L 475.648438 67.128906 L 476.121094 70 Z M 475.523438 70.125 "/>
<path style=" stroke:none;fill-rule:nonzero;fill:rgb(0%,0%,0%);fill-opacity:1;" d="M 473.164062 61.835938 L 472.535156 61.835938 L 472.535156 38.230469 L 452.722656 38.230469 L 452.722656 37.597656 L 473.164062 37.597656 Z M 473.164062 61.835938 "/>
<path style=" stroke:none;fill-rule:nonzero;fill:rgb(0%,0%,0%);fill-opacity:1;" d="M 419.097656 37.597656 L 449.542969 37.597656 L 449.542969 38.230469 L 419.097656 38.230469 Z M 419.097656 37.597656 "/>
<path style=" stroke:none;fill-rule:nonzero;fill:rgb(0%,0%,0%);fill-opacity:1;" d="M 436.933594 15.0625 L 436.933594 14.433594 C 437.46875 14.433594 437.9375 13.992188 437.9375 13.425781 C 437.9375 12.890625 437.5 12.417969 436.933594 12.417969 C 436.398438 12.417969 435.925781 12.859375 435.925781 13.425781 L 435.296875 13.425781 C 435.296875 12.511719 436.019531 11.785156 436.933594 11.785156 C 437.84375 11.785156 438.566406 12.511719 438.566406 13.425781 C 438.566406 14.339844 437.8125 15.0625 436.933594 15.0625 Z M 436.933594 15.0625 "/>
<path style=" stroke:none;fill-rule:nonzero;fill:rgb(0%,0%,0%);fill-opacity:1;" d="M 387.082031 91.652344 L 387.082031 91.019531 C 387.898438 91.019531 388.558594 90.359375 388.558594 89.539062 C 388.558594 88.71875 387.898438 88.058594 387.082031 88.058594 C 386.265625 88.058594 385.605469 88.71875 385.605469 89.539062 L 384.976562 89.539062 C 384.976562 88.371094 385.917969 87.425781 387.082031 87.425781 C 388.246094 87.425781 389.1875 88.371094 389.1875 89.539062 C 389.1875 90.707031 388.246094 91.652344 387.082031 91.652344 Z M 387.082031 91.652344 "/>
<path style=" stroke:none;fill-rule:nonzero;fill:rgb(0%,0%,0%);fill-opacity:1;" d="M 376.921875 91.652344 C 375.757812 91.652344 374.816406 90.707031 374.816406 89.539062 C 374.816406 88.371094 375.757812 87.425781 376.921875 87.425781 C 378.085938 87.425781 379.03125 88.371094 379.03125 89.539062 L 378.402344 89.539062 C 378.402344 88.71875 377.742188 88.058594 376.921875 88.058594 C 376.105469 88.058594 375.445312 88.71875 375.445312 89.539062 C 375.445312 90.359375 376.105469 91.019531 376.921875 91.019531 Z M 376.921875 91.652344 "/>
<path style=" stroke:none;fill-rule:nonzero;fill:rgb(0%,0%,0%);fill-opacity:1;" d="M 474.046875 59.816406 L 473.917969 59.1875 C 474.078125 59.15625 477.628906 58.304688 479.109375 53.578125 L 479.707031 53.765625 C 478.101562 58.871094 474.203125 59.785156 474.046875 59.816406 Z M 474.046875 59.816406 "/>
<path style=" stroke:none;fill-rule:nonzero;fill:rgb(0%,0%,0%);fill-opacity:1;" d="M 474.109375 58.148438 L 473.886719 57.550781 L 474.011719 57.832031 L 473.886719 57.550781 C 473.980469 57.515625 476.121094 56.667969 476.433594 54.019531 L 477.0625 54.082031 C 476.6875 57.109375 474.203125 58.117188 474.109375 58.148438 Z M 474.109375 58.148438 "/>
<path style=" stroke:none;fill-rule:nonzero;fill:rgb(0%,0%,0%);fill-opacity:1;" d="M 475.835938 65.398438 C 475.648438 65.398438 475.492188 65.363281 475.367188 65.300781 C 474.988281 65.113281 474.894531 64.765625 474.863281 64.765625 L 475.175781 64.671875 L 475.019531 64.734375 L 475.175781 64.671875 C 475.175781 64.671875 475.273438 64.925781 475.523438 65.019531 C 475.742188 65.113281 476.027344 65.113281 476.339844 64.988281 L 476.433594 65.269531 C 476.214844 65.363281 476.027344 65.398438 475.835938 65.398438 Z M 475.835938 65.398438 "/>
<path style=" stroke:none;fill-rule:nonzero;fill:rgb(0%,0%,0%);fill-opacity:1;" d="M 408.847656 57.296875 L 408.53125 57.203125 L 413.46875 41.414062 L 414.320312 41.003906 L 413.5 39.488281 L 416.804688 31.988281 L 427.183594 36.777344 L 427.058594 37.0625 L 416.960938 32.398438 L 413.878906 39.488281 L 414.757812 41.128906 L 413.722656 41.632812 Z M 408.847656 57.296875 "/>
<path style=" stroke:none;fill-rule:nonzero;fill:rgb(5.488586%,66.668701%,100%);fill-opacity:1;" d="M 431.585938 18.6875 L 426.425781 20.738281 L 428.15625 24.296875 Z M 431.585938 18.6875 "/>
<path style=" stroke:none;fill-rule:nonzero;fill:rgb(5.488586%,66.668701%,100%);fill-opacity:1;" d="M 437.371094 19.382812 L 441.367188 23.320312 L 436.113281 25.714844 Z M 437.371094 19.382812 "/>
<path style=" stroke:none;fill-rule:nonzero;fill:rgb(0%,0%,0%);fill-opacity:1;" d="M 433.914062 18.5 L 433.316406 18.339844 L 433.691406 16.796875 L 432.433594 15.851562 L 432.6875 13.519531 L 432.121094 12.792969 L 433.316406 11.0625 L 433.851562 11.40625 L 432.90625 12.761719 L 433.347656 13.332031 L 433.09375 15.566406 L 434.417969 16.546875 Z M 433.914062 18.5 "/>
<path style=" stroke:none;fill-rule:nonzero;fill:rgb(0%,0%,0%);fill-opacity:1;" d="M 434.101562 15.125 C 433.976562 15.125 433.820312 15.09375 433.722656 15.0625 L 433.820312 14.78125 L 433.753906 14.9375 L 433.820312 14.78125 C 433.882812 14.8125 434.449219 14.96875 434.699219 14.433594 L 434.980469 14.558594 C 434.792969 14.96875 434.417969 15.125 434.101562 15.125 Z M 434.101562 15.125 "/>
<path style=" stroke:none;fill-rule:nonzero;fill:rgb(0%,0%,0%);fill-opacity:1;" d="M 429.070312 25.308594 C 428.441406 25.308594 427.90625 25.148438 427.527344 24.800781 C 426.929688 24.265625 426.929688 23.449219 426.929688 23.414062 L 426.929688 23.351562 L 429.636719 20.707031 L 429.855469 20.925781 L 427.246094 23.480469 C 427.246094 23.667969 427.339844 24.171875 427.75 24.550781 C 428.125 24.898438 428.722656 25.023438 429.511719 24.960938 L 429.542969 25.273438 C 429.382812 25.273438 429.226562 25.308594 429.070312 25.308594 Z M 429.070312 25.308594 "/>
<path style=" stroke:none;fill-rule:nonzero;fill:rgb(0%,0%,0%);fill-opacity:1;" d="M 438.597656 24.738281 L 438.472656 24.457031 L 441.085938 23.257812 L 438.726562 20.925781 L 438.945312 20.707031 L 441.648438 23.351562 Z M 438.597656 24.738281 "/>
<path style=" stroke:none;fill-rule:nonzero;fill:rgb(0%,0%,0%);fill-opacity:1;" d="M 406.960938 57.550781 L 406.332031 60.890625 L 400.449219 63.726562 L 398.46875 63.539062 L 398.46875 65.050781 L 402.179688 66.246094 L 409.222656 64.703125 L 408.910156 62.527344 L 409.980469 58.96875 Z M 406.960938 57.550781 "/>
<path style=" stroke:none;fill-rule:nonzero;fill:rgb(0%,0%,0%);fill-opacity:1;" d="M 396.203125 50.363281 L 394.378906 53.199219 L 389.441406 52.066406 L 387.960938 51.089844 L 386.609375 51.402344 L 387.867188 53.292969 L 395.417969 57.234375 L 396.265625 54.585938 L 398.71875 51.90625 Z M 396.203125 50.363281 "/>
<path style=" stroke:none;fill-rule:nonzero;fill:rgb(0%,0%,0%);fill-opacity:1;" d="M 452.3125 39.269531 L 450.171875 39.269531 L 448.632812 37.21875 L 449.136719 36.84375 L 450.488281 38.636719 L 451.304688 38.636719 L 449.859375 35.707031 L 446.554688 37.0625 L 444.261719 31.703125 L 443.285156 31.105469 L 439.667969 24.109375 L 440.234375 23.792969 L 443.757812 30.664062 L 444.765625 31.296875 L 446.871094 36.242188 L 450.140625 34.886719 Z M 452.3125 39.269531 "/>
<path style=" stroke:none;fill-rule:nonzero;fill:rgb(0%,0%,0%);fill-opacity:1;" d="M 453.632812 38.828125 L 451.589844 38.828125 L 451.589844 38.199219 L 452.53125 38.199219 L 451.273438 36.117188 L 450.550781 36.464844 L 450.300781 35.898438 L 451.496094 35.296875 Z M 453.632812 38.828125 "/>
<path style=" stroke:none;fill-rule:nonzero;fill:rgb(0%,0%,0%);fill-opacity:1;" d="M 444.511719 37.851562 L 443.882812 37.851562 L 443.882812 36.90625 L 441.242188 32.902344 L 440.519531 31.074219 L 437.96875 26.628906 L 438.503906 26.316406 L 441.085938 30.824219 L 441.808594 32.648438 L 444.511719 36.714844 Z M 444.511719 37.851562 "/>
<path style=" stroke:none;fill-rule:nonzero;fill:rgb(0%,0%,0%);fill-opacity:1;" d="M 417.402344 28.300781 L 417.023438 27.796875 L 418.660156 26.535156 L 419.414062 26.535156 L 426.585938 21.839844 L 426.898438 22.375 L 419.601562 27.167969 L 418.878906 27.167969 Z M 417.402344 28.300781 "/>
<path style=" stroke:none;fill-rule:nonzero;fill:rgb(0%,0%,0%);fill-opacity:1;" d="M 454.042969 38.070312 L 453.476562 37.757812 L 453.789062 37.25 L 451.964844 37.0625 L 452.027344 36.433594 L 454.796875 36.714844 Z M 454.042969 38.070312 "/>
<path style=" stroke:none;fill-rule:nonzero;fill:rgb(0%,0%,0%);fill-opacity:1;" d="M 473.792969 56.761719 L 473.511719 56.195312 L 473.667969 56.476562 L 473.511719 56.195312 C 473.542969 56.164062 474.390625 55.722656 474.578125 54.554688 L 475.207031 54.648438 C 474.957031 56.164062 473.824219 56.730469 473.792969 56.761719 Z M 473.792969 56.761719 "/>
<path style=" stroke:none;fill-rule:nonzero;fill:rgb(5.488586%,66.668701%,100%);fill-opacity:1;" d="M 437.4375 81.1875 L 466.558594 81.1875 L 466.558594 110.371094 L 437.4375 110.371094 Z M 437.4375 81.1875 "/>
<path style=" stroke:none;fill-rule:nonzero;fill:rgb(0%,0%,0%);fill-opacity:1;" d="M 437.78125 91.714844 C 432.121094 91.714844 427.496094 87.082031 427.496094 81.40625 C 427.496094 75.734375 432.121094 71.101562 437.78125 71.101562 C 439.824219 71.101562 441.839844 71.699219 443.539062 72.867188 L 443.191406 73.402344 C 441.585938 72.332031 439.730469 71.761719 437.8125 71.761719 C 432.496094 71.761719 428.15625 76.113281 428.15625 81.4375 C 428.15625 86.765625 432.496094 91.113281 437.8125 91.113281 C 443.128906 91.113281 447.46875 86.765625 447.46875 81.4375 C 447.46875 78.949219 446.523438 76.585938 444.796875 74.757812 L 445.234375 74.316406 C 447.058594 76.238281 448.066406 78.761719 448.066406 81.4375 C 448.066406 87.082031 443.441406 91.714844 437.78125 91.714844 Z M 437.78125 91.714844 "/>
<path style=" stroke:none;fill-rule:nonzero;fill:rgb(0%,0%,0%);fill-opacity:1;" d="M 419.859375 29.273438 L 423.914062 26.621094 L 424.257812 27.148438 L 420.203125 29.800781 Z M 419.859375 29.273438 "/>
<path style=" stroke:none;fill-rule:nonzero;fill:rgb(0%,0%,0%);fill-opacity:1;" d="M 381.957031 91.839844 C 381.921875 91.839844 381.859375 91.839844 381.828125 91.839844 C 380.980469 91.777344 380.476562 91.082031 380.445312 91.050781 L 380.695312 90.863281 C 380.695312 90.863281 381.167969 91.460938 381.859375 91.523438 C 382.332031 91.554688 382.835938 91.335938 383.308594 90.832031 L 383.527344 91.050781 C 383.023438 91.585938 382.488281 91.839844 381.957031 91.839844 Z M 381.957031 91.839844 "/>
<path style=" stroke:none;fill-rule:nonzero;fill:rgb(0%,0%,0%);fill-opacity:1;" d="M 381.261719 96.125 L 380.632812 96.125 L 380.632812 94.457031 L 378.402344 93.511719 L 378.402344 90.957031 L 379.03125 90.957031 L 379.03125 93.070312 L 381.261719 94.046875 Z M 381.261719 96.125 "/>
<path style=" stroke:none;fill-rule:nonzero;fill:rgb(0%,0%,0%);fill-opacity:1;" d="M 381.957031 90.328125 L 381.074219 89.886719 L 381.765625 88.75 L 382.019531 88.910156 L 381.515625 89.757812 L 382.082031 90.042969 Z M 381.957031 90.328125 "/>
<path style=" stroke:none;fill-rule:nonzero;fill:rgb(92.939758%,30.979919%,35.688782%);fill-opacity:1;" d="M 380.664062 96.882812 L 374.25 101.515625 L 382.019531 106.808594 Z M 380.664062 96.882812 "/>
<path style=" stroke:none;fill-rule:nonzero;fill:rgb(92.939758%,30.979919%,35.688782%);fill-opacity:1;" d="M 383.371094 96.882812 L 389.753906 101.515625 L 382.019531 106.808594 Z M 383.371094 96.882812 "/>
<path style=" stroke:none;fill-rule:nonzero;fill:rgb(0%,0%,0%);fill-opacity:1;" d="M 376.96875 103.386719 L 378.566406 100.417969 L 378.84375 100.566406 L 377.246094 103.535156 Z M 376.96875 103.386719 "/>
<path style=" stroke:none;fill-rule:nonzero;fill:rgb(0%,0%,0%);fill-opacity:1;" d="M 387.679688 103.121094 L 387.492188 102.871094 L 389.472656 101.515625 L 387.742188 100.253906 L 387.929688 100.003906 L 390.039062 101.515625 Z M 387.679688 103.121094 "/>
<path style=" stroke:none;fill-rule:nonzero;fill:rgb(0%,0%,0%);fill-opacity:1;" d="M 456.371094 13.488281 C 452.691406 10.082031 449.167969 10.964844 445.738281 11.847656 C 444.890625 12.070312 444.007812 12.289062 443.128906 12.449219 C 437.339844 13.425781 436.304688 8.289062 436.273438 8.257812 L 436.902344 8.128906 C 436.933594 8.320312 437.875 12.699219 443.035156 11.816406 C 443.851562 11.691406 444.699219 11.472656 445.582031 11.25 C 448.976562 10.398438 452.847656 9.390625 456.777344 13.046875 Z M 456.371094 13.488281 "/>
<path style=" stroke:none;fill-rule:nonzero;fill:rgb(0%,0%,0%);fill-opacity:1;" d="M 441.871094 9.769531 C 441.398438 9.769531 440.957031 9.675781 440.550781 9.484375 C 439.386719 8.949219 439.039062 7.847656 439.007812 7.78125 L 439.605469 7.59375 C 439.605469 7.59375 439.890625 8.507812 440.800781 8.917969 C 441.585938 9.265625 442.625 9.171875 443.851562 8.632812 L 443.945312 8.601562 C 447.65625 6.964844 453.289062 4.503906 458.632812 8.792969 L 458.226562 9.296875 C 453.191406 5.261719 448.003906 7.53125 444.199219 9.203125 L 444.101562 9.234375 C 443.285156 9.578125 442.53125 9.769531 441.871094 9.769531 Z M 441.871094 9.769531 "/>
<path style=" stroke:none;fill-rule:nonzero;fill:rgb(0%,0%,0%);fill-opacity:1;" d="M 452.816406 17.175781 C 451.621094 15.09375 449.574219 13.363281 443.066406 15 C 440.925781 15.535156 439.132812 15.410156 437.71875 14.621094 L 438.035156 14.085938 C 439.292969 14.8125 440.957031 14.90625 442.90625 14.402344 C 449.859375 12.667969 452.09375 14.652344 453.351562 16.859375 Z M 452.816406 17.175781 "/>
<path style=" stroke:none;fill-rule:nonzero;fill:rgb(0%,0%,0%);fill-opacity:1;" d="M 435.738281 12.667969 C 434.667969 10.902344 434.574219 8.917969 434.574219 8.855469 L 435.203125 8.824219 C 435.203125 8.855469 435.296875 10.714844 436.273438 12.351562 Z M 435.738281 12.667969 "/>
<path style=" stroke:none;fill-rule:nonzero;fill:rgb(0%,0%,0%);fill-opacity:1;" d="M 448.601562 19.824219 C 447.40625 17.492188 444.355469 17.238281 441.808594 18.058594 C 438.757812 19.035156 437.75 17.269531 437.6875 17.207031 L 438.222656 16.890625 C 438.253906 16.953125 439.070312 18.277344 441.585938 17.460938 C 444.355469 16.578125 447.75 16.859375 449.105469 19.539062 Z M 448.601562 19.824219 "/>
<path style=" stroke:none;fill-rule:nonzero;fill:rgb(0%,0%,0%);fill-opacity:1;" d="M 469.832031 120.171875 L 440.832031 120.171875 L 440.832031 119.542969 L 469.578125 119.542969 L 470.175781 118.945312 L 470.617188 119.386719 Z M 469.832031 120.171875 "/>
<path style=" stroke:none;fill-rule:nonzero;fill:rgb(0%,0%,0%);fill-opacity:1;" d="M 435.484375 119.542969 L 439.261719 119.542969 L 439.261719 120.171875 L 435.484375 120.171875 Z M 435.484375 119.542969 "/>
<path style=" stroke:none;fill-rule:nonzero;fill:rgb(0%,0%,0%);fill-opacity:1;" d="M 432.339844 120.171875 L 343.585938 120.171875 L 343.585938 83.707031 L 344.214844 83.707031 L 344.214844 119.542969 L 432.339844 119.542969 Z M 432.339844 120.171875 "/>
<path style=" stroke:none;fill-rule:nonzero;fill:rgb(0%,0%,0%);fill-opacity:1;" d="M 344.214844 49.417969 L 343.585938 49.417969 L 343.585938 40.9375 L 346.917969 37.597656 L 391.769531 37.597656 L 391.769531 38.230469 L 347.171875 38.230469 L 344.214844 41.191406 Z M 344.214844 49.417969 "/>
<path style=" stroke:none;fill-rule:nonzero;fill:rgb(0%,0%,0%);fill-opacity:1;" d="M 393.339844 37.597656 L 405.605469 37.597656 L 405.605469 38.230469 L 393.339844 38.230469 Z M 393.339844 37.597656 "/>
<path style=" stroke:none;fill-rule:nonzero;fill:rgb(0%,0%,0%);fill-opacity:1;" d="M 366.511719 117.023438 L 346.730469 117.023438 L 346.730469 37.914062 L 347.359375 37.914062 L 347.359375 116.390625 L 366.511719 116.390625 Z M 366.511719 117.023438 "/>
<path style=" stroke:none;fill-rule:nonzero;fill:rgb(0%,0%,0%);fill-opacity:1;" d="M 374.5 116.390625 L 390.101562 116.390625 L 390.101562 117.023438 L 374.5 117.023438 Z M 374.5 116.390625 "/>
<path style=" stroke:none;fill-rule:nonzero;fill:rgb(0%,0%,0%);fill-opacity:1;" d="M 398.027344 116.390625 L 424.570312 116.390625 L 424.570312 117.023438 L 398.027344 117.023438 Z M 398.027344 116.390625 "/>
<path style=" stroke:none;fill-rule:nonzero;fill:rgb(0%,0%,0%);fill-opacity:1;" d="M 473.164062 117.148438 L 469.734375 115.980469 L 468.320312 117.023438 L 426.175781 117.023438 L 426.175781 116.390625 L 468.101562 116.390625 L 469.640625 115.289062 L 472.535156 116.265625 L 472.535156 92.691406 L 473.164062 92.691406 Z M 473.164062 117.148438 "/>
<path style=" stroke:none;fill-rule:nonzero;fill:rgb(0%,0%,0%);fill-opacity:1;" d="M 473.164062 89.539062 L 472.535156 89.539062 L 472.535156 64.703125 C 471.78125 64.546875 471.214844 63.882812 471.214844 63.097656 C 471.214844 62.183594 471.9375 61.457031 472.851562 61.457031 C 473.761719 61.457031 474.484375 62.183594 474.484375 63.097656 L 473.855469 63.097656 C 473.855469 62.558594 473.417969 62.085938 472.851562 62.085938 C 472.285156 62.085938 471.84375 62.527344 471.84375 63.097656 C 471.84375 63.664062 472.285156 64.105469 472.851562 64.105469 L 473.164062 64.105469 Z M 473.164062 89.539062 "/>
<path style=" stroke:none;fill-rule:nonzero;fill:rgb(0%,0%,0%);fill-opacity:1;" d="M 369.375 119.511719 L 365.410156 116.171875 L 365.789062 115.699219 L 369.53125 118.820312 L 371.011719 118.410156 L 371.796875 118.628906 L 372.960938 117.96875 L 374.125 118 L 374.691406 117.398438 L 370.570312 112.324219 L 367.171875 112.703125 L 359.90625 116.992188 L 359.59375 116.421875 L 366.984375 112.105469 L 370.820312 111.664062 L 375.539062 117.433594 L 374.375 118.660156 L 373.117188 118.597656 L 371.890625 119.292969 L 371.011719 119.070312 Z M 369.375 119.511719 "/>
<path style=" stroke:none;fill-rule:nonzero;fill:rgb(0%,0%,0%);fill-opacity:1;" d="M 367.824219 111.164062 L 375.21875 102.820312 L 375.691406 103.242188 L 368.296875 111.582031 Z M 367.824219 111.164062 "/>
<path style=" stroke:none;fill-rule:nonzero;fill:rgb(0%,0%,0%);fill-opacity:1;" d="M 369 116.773438 L 369.230469 116.554688 L 371.121094 118.582031 L 370.890625 118.796875 Z M 369 116.773438 "/>
<path style=" stroke:none;fill-rule:nonzero;fill:rgb(0%,0%,0%);fill-opacity:1;" d="M 370.871094 115.992188 L 371.109375 115.785156 L 373.15625 118.179688 L 372.917969 118.382812 Z M 370.871094 115.992188 "/>
<path style=" stroke:none;fill-rule:nonzero;fill:rgb(0%,0%,0%);fill-opacity:1;" d="M 395.164062 119.511719 L 393.5625 119.070312 L 392.679688 119.292969 L 391.421875 118.597656 L 390.164062 118.660156 L 389 117.433594 L 393.71875 111.664062 L 397.585938 112.105469 L 404.945312 116.421875 L 404.632812 116.992188 L 397.367188 112.703125 L 393.96875 112.324219 L 389.847656 117.398438 L 390.414062 118 L 391.578125 117.96875 L 392.742188 118.628906 L 393.5625 118.410156 L 395.007812 118.820312 L 398.75 115.699219 L 399.160156 116.171875 Z M 395.164062 119.511719 "/>
<path style=" stroke:none;fill-rule:nonzero;fill:rgb(0%,0%,0%);fill-opacity:1;" d="M 393.4375 118.621094 L 395.328125 116.597656 L 395.558594 116.8125 L 393.667969 118.835938 Z M 393.4375 118.621094 "/>
<path style=" stroke:none;fill-rule:nonzero;fill:rgb(0%,0%,0%);fill-opacity:1;" d="M 391.417969 118.167969 L 393.464844 115.777344 L 393.703125 115.980469 L 391.65625 118.371094 Z M 391.417969 118.167969 "/>
<path style=" stroke:none;fill-rule:nonzero;fill:rgb(0%,0%,0%);fill-opacity:1;" d="M 389.496094 103.679688 L 389.996094 103.296875 L 395.683594 110.71875 L 395.183594 111.105469 Z M 389.496094 103.679688 "/>
<path style=" stroke:none;fill-rule:nonzero;fill:rgb(0%,0%,0%);fill-opacity:1;" d="M 434.007812 27.039062 C 433.945312 27.039062 433.914062 27.039062 433.851562 27.039062 C 432.59375 26.945312 431.742188 25.589844 431.710938 25.527344 L 431.996094 25.371094 C 431.996094 25.371094 432.8125 26.660156 433.882812 26.757812 C 434.480469 26.820312 435.046875 26.503906 435.613281 25.875 L 435.863281 26.09375 C 435.265625 26.695312 434.636719 27.039062 434.007812 27.039062 Z M 434.007812 27.039062 "/>
<path style=" stroke:none;fill-rule:nonzero;fill:rgb(0%,0%,0%);fill-opacity:1;" d="M 382.394531 87.113281 C 377.550781 87.113281 375.789062 83.394531 375.757812 83.328125 L 376.324219 83.078125 C 376.417969 83.265625 378.683594 87.964844 385.414062 86.007812 L 385.605469 86.609375 C 384.441406 86.984375 383.371094 87.113281 382.394531 87.113281 Z M 382.394531 87.113281 "/>
<path style=" stroke:none;fill-rule:nonzero;fill:rgb(0%,0%,0%);fill-opacity:1;" d="M 383.371094 85.285156 C 378.339844 85.285156 377.332031 81.1875 377.300781 81.125 L 377.898438 80.964844 L 377.582031 81.03125 L 377.898438 80.964844 C 377.929688 81.15625 379.0625 85.503906 385.101562 84.464844 L 385.195312 85.09375 C 384.535156 85.222656 383.90625 85.285156 383.371094 85.285156 Z M 383.371094 85.285156 "/>
<path style=" stroke:none;fill-rule:nonzero;fill:rgb(0%,0%,0%);fill-opacity:1;" d="M 384.535156 83.769531 C 380.730469 83.519531 379.910156 80.933594 379.878906 80.839844 L 380.476562 80.652344 C 380.507812 80.746094 381.230469 82.921875 384.566406 83.140625 Z M 384.535156 83.769531 "/>
<path style=" stroke:none;fill-rule:nonzero;fill:rgb(0%,0%,0%);fill-opacity:1;" d="M 332.324219 60.132812 L 329.460938 60.132812 L 329.460938 49.417969 L 330.09375 49.417969 L 330.09375 59.503906 L 332.324219 59.503906 Z M 332.324219 60.132812 "/>
<path style=" stroke:none;fill-rule:nonzero;fill:rgb(0%,0%,0%);fill-opacity:1;" d="M 340.472656 60.132812 L 333.898438 60.132812 L 333.898438 59.503906 L 339.839844 59.503906 L 339.839844 49.734375 L 338.804688 49.734375 L 338.804688 49.101562 L 340.472656 49.101562 Z M 340.472656 60.132812 "/>
<g clip-path="url(#clip11)" clip-rule="nonzero">
<path style=" stroke:none;fill-rule:nonzero;fill:rgb(0%,0%,0%);fill-opacity:1;" d="M 329.589844 64.859375 L 324.746094 64.859375 L 324.746094 54.019531 L 329.652344 49.101562 L 337.230469 49.101562 L 337.230469 49.734375 L 329.933594 49.734375 L 325.375 54.300781 L 325.375 64.230469 L 329.589844 64.230469 Z M 329.589844 64.859375 "/>
</g>
<path style=" stroke:none;fill-rule:nonzero;fill:rgb(0%,0%,0%);fill-opacity:1;" d="M 343.664062 119.628906 L 346.796875 116.488281 L 347.242188 116.933594 L 344.105469 120.078125 Z M 343.664062 119.628906 "/>
<path style=" stroke:none;fill-rule:nonzero;fill:rgb(100%,100%,100%);fill-opacity:1;" d="M 355.097656 42.640625 L 386.011719 42.640625 C 386.894531 42.640625 387.585938 41.949219 387.585938 41.066406 C 387.585938 40.183594 386.894531 39.488281 386.011719 39.488281 L 355.097656 39.488281 C 354.214844 39.488281 353.523438 40.183594 353.523438 41.066406 C 353.523438 41.949219 354.246094 42.640625 355.097656 42.640625 Z M 355.097656 42.640625 "/>
<g clip-path="url(#clip12)" clip-rule="nonzero">
<path style=" stroke:none;fill-rule:nonzero;fill:rgb(0%,0%,0%);fill-opacity:1;" d="M 324.839844 64.332031 L 329.554688 59.605469 L 330 60.054688 L 325.285156 64.777344 Z M 324.839844 64.332031 "/>
</g>
<path style=" stroke:none;fill-rule:nonzero;fill:rgb(0%,0%,0%);fill-opacity:1;" d="M 384.472656 82.542969 C 384.441406 82.542969 383.339844 82.226562 382.867188 80.964844 L 383.464844 80.746094 C 383.8125 81.691406 384.628906 81.910156 384.628906 81.910156 Z M 384.472656 82.542969 "/>
<g clip-path="url(#clip13)" clip-rule="nonzero">
<path style=" stroke:none;fill-rule:nonzero;fill:rgb(95.689392%,96.469116%,98.81897%);fill-opacity:1;" d="M 219.769531 51.902344 L 211.957031 44.09375 L 219.769531 36.25 L 211.957031 28.441406 L 204.117188 36.25 L 196.308594 28.441406 L 188.5 36.25 L 196.308594 44.09375 L 188.5 51.902344 L 196.308594 59.710938 L 204.117188 51.902344 L 211.957031 59.710938 Z M 219.769531 51.902344 "/>
</g>
<g clip-path="url(#clip14)" clip-rule="nonzero">
<path style=" stroke:none;fill-rule:nonzero;fill:rgb(0%,0%,0%);fill-opacity:1;" d="M 50.632812 113.515625 L 35.367188 113.515625 L 35.367188 112.894531 L 50.011719 112.894531 L 50.011719 91.566406 L 28.683594 91.566406 L 28.683594 112.894531 L 33.8125 112.894531 L 33.8125 113.515625 L 28.0625 113.515625 L 28.0625 90.945312 L 50.632812 90.945312 Z M 50.632812 113.515625 "/>
</g>
<g clip-path="url(#clip15)" clip-rule="nonzero">
<path style=" stroke:none;fill-rule:nonzero;fill:rgb(5.488586%,66.668701%,100%);fill-opacity:1;" d="M 31.480469 88.144531 L 53.433594 88.144531 L 53.433594 110.097656 L 31.480469 110.097656 Z M 31.480469 88.144531 "/>
</g>
<g style="fill:rgb(0%,0%,0%);fill-opacity:1;">
  <use xlink:href="#glyph0-1" x="43.781178" y="64.909835"/>
</g>
<g style="fill:rgb(0%,0%,0%);fill-opacity:1;">
  <use xlink:href="#glyph0-2" x="61.615404" y="64.909835"/>
</g>
<g style="fill:rgb(0%,0%,0%);fill-opacity:1;">
  <use xlink:href="#glyph0-3" x="79.30696" y="64.909835"/>
</g>
<g style="fill:rgb(0%,0%,0%);fill-opacity:1;">
  <use xlink:href="#glyph0-4" x="98.39671" y="64.909835"/>
</g>
<g style="fill:rgb(0%,0%,0%);fill-opacity:1;">
  <use xlink:href="#glyph0-5" x="109.639408" y="64.909835"/>
</g>
<g style="fill:rgb(0%,0%,0%);fill-opacity:1;">
  <use xlink:href="#glyph0-6" x="116.972843" y="64.909835"/>
</g>
<g style="fill:rgb(0%,0%,0%);fill-opacity:1;">
  <use xlink:href="#glyph0-7" x="136.233809" y="64.909835"/>
</g>
<g style="fill:rgb(0%,0%,0%);fill-opacity:1;">
  <use xlink:href="#glyph0-8" x="152.869572" y="64.909835"/>
</g>
<g style="fill:rgb(0%,0%,0%);fill-opacity:1;">
  <use xlink:href="#glyph0-7" x="43.781178" y="93.200275"/>
</g>
<g style="fill:rgb(0%,0%,0%);fill-opacity:1;">
  <use xlink:href="#glyph0-9" x="60.416941" y="93.200275"/>
</g>
<g style="fill:rgb(0%,0%,0%);fill-opacity:1;">
  <use xlink:href="#glyph0-10" x="79.620835" y="93.200275"/>
</g>
<g style="fill:rgb(0%,0%,0%);fill-opacity:1;">
  <use xlink:href="#glyph0-7" x="96.656082" y="93.200275"/>
</g>
<g style="fill:rgb(0%,0%,0%);fill-opacity:1;">
  <use xlink:href="#glyph0-6" x="113.291845" y="93.200275"/>
</g>
<g style="fill:rgb(0%,0%,0%);fill-opacity:1;">
  <use xlink:href="#glyph0-11" x="132.552812" y="93.200275"/>
</g>
<path style=" stroke:none;fill-rule:nonzero;fill:rgb(100%,63.529968%,55.288696%);fill-opacity:1;" d="M 33.003906 49.96875 C 32.679688 49.96875 32.355469 50 32.039062 50.0625 C 31.71875 50.125 31.410156 50.21875 31.113281 50.34375 C 30.8125 50.46875 30.527344 50.621094 30.257812 50.800781 C 29.988281 50.980469 29.738281 51.1875 29.507812 51.414062 C 29.277344 51.644531 29.074219 51.894531 28.894531 52.164062 C 28.714844 52.433594 28.5625 52.71875 28.4375 53.019531 C 28.3125 53.316406 28.21875 53.628906 28.15625 53.945312 C 28.09375 54.261719 28.0625 54.585938 28.0625 54.910156 C 28.0625 55.234375 28.09375 55.554688 28.15625 55.875 C 28.21875 56.191406 28.3125 56.5 28.4375 56.800781 C 28.5625 57.101562 28.714844 57.386719 28.894531 57.65625 C 29.074219 57.925781 29.277344 58.175781 29.507812 58.402344 C 29.738281 58.632812 29.988281 58.835938 30.257812 59.019531 C 30.527344 59.199219 30.8125 59.351562 31.113281 59.476562 C 31.410156 59.597656 31.71875 59.691406 32.039062 59.757812 C 32.355469 59.820312 32.679688 59.851562 33.003906 59.851562 C 33.328125 59.851562 33.648438 59.820312 33.964844 59.757812 C 34.285156 59.691406 34.59375 59.597656 34.894531 59.476562 C 35.195312 59.351562 35.476562 59.199219 35.746094 59.019531 C 36.019531 58.835938 36.265625 58.632812 36.496094 58.402344 C 36.726562 58.175781 36.929688 57.925781 37.113281 57.65625 C 37.292969 57.386719 37.445312 57.101562 37.566406 56.800781 C 37.691406 56.5 37.785156 56.191406 37.847656 55.875 C 37.914062 55.554688 37.945312 55.234375 37.945312 54.910156 C 37.945312 54.585938 37.914062 54.261719 37.847656 53.945312 C 37.785156 53.628906 37.691406 53.316406 37.566406 53.019531 C 37.445312 52.71875 37.292969 52.433594 37.113281 52.164062 C 36.929688 51.894531 36.726562 51.644531 36.496094 51.414062 C 36.265625 51.1875 36.019531 50.980469 35.746094 50.800781 C 35.476562 50.621094 35.195312 50.46875 34.894531 50.34375 C 34.59375 50.21875 34.285156 50.125 33.964844 50.0625 C 33.648438 50 33.328125 49.96875 33.003906 49.96875 Z M 33.003906 49.96875 "/>
</g>
</svg>
