<?xml version="1.0" encoding="UTF-8"?>
<svg xmlns="http://www.w3.org/2000/svg" xmlns:xlink="http://www.w3.org/1999/xlink" width="1188pt" height="296.999993pt" viewBox="0 0 1188 296.999993" version="1.2">
<defs>
<g>
<symbol overflow="visible" id="glyph0-0">
<path style="stroke:none;" d="M 2.53125 -44.28125 L 34.609375 -44.28125 L 34.609375 0 L 2.53125 0 Z M 29.546875 -4.421875 L 29.546875 -39.859375 L 7.59375 -39.859375 L 7.59375 -4.421875 Z M 29.546875 -4.421875 "/>
</symbol>
<symbol overflow="visible" id="glyph0-1">
<path style="stroke:none;" d="M 21.390625 -15.25 L 21.390625 0 L 18.15625 0 L 18.15625 -15.25 L 0.3125 -44.28125 L 3.859375 -44.28125 L 19.859375 -18.21875 L 35.875 -44.28125 L 39.21875 -44.28125 Z M 21.390625 -15.25 "/>
</symbol>
<symbol overflow="visible" id="glyph0-2">
<path style="stroke:none;" d="M 19.609375 0.25 C 16.492188 0.25 13.679688 -0.460938 11.171875 -1.890625 C 8.660156 -3.328125 6.6875 -5.320312 5.25 -7.875 C 3.8125 -10.425781 3.09375 -13.304688 3.09375 -16.515625 C 3.09375 -19.722656 3.8125 -22.597656 5.25 -25.140625 C 6.6875 -27.691406 8.660156 -29.6875 11.171875 -31.125 C 13.679688 -32.5625 16.492188 -33.28125 19.609375 -33.28125 C 22.734375 -33.28125 25.550781 -32.5625 28.0625 -31.125 C 30.570312 -29.6875 32.539062 -27.691406 33.96875 -25.140625 C 35.40625 -22.597656 36.125 -19.722656 36.125 -16.515625 C 36.125 -13.304688 35.40625 -10.425781 33.96875 -7.875 C 32.539062 -5.320312 30.570312 -3.328125 28.0625 -1.890625 C 25.550781 -0.460938 22.734375 0.25 19.609375 0.25 Z M 19.609375 -2.59375 C 22.140625 -2.59375 24.40625 -3.179688 26.40625 -4.359375 C 28.414062 -5.546875 30 -7.191406 31.15625 -9.296875 C 32.3125 -11.410156 32.890625 -13.816406 32.890625 -16.515625 C 32.890625 -19.210938 32.3125 -21.613281 31.15625 -23.71875 C 30 -25.832031 28.414062 -27.476562 26.40625 -28.65625 C 24.40625 -29.84375 22.140625 -30.4375 19.609375 -30.4375 C 17.078125 -30.4375 14.8125 -29.84375 12.8125 -28.65625 C 10.8125 -27.476562 9.226562 -25.832031 8.0625 -23.71875 C 6.90625 -21.613281 6.328125 -19.210938 6.328125 -16.515625 C 6.328125 -13.816406 6.90625 -11.410156 8.0625 -9.296875 C 9.226562 -7.191406 10.8125 -5.546875 12.8125 -4.359375 C 14.8125 -3.179688 17.078125 -2.59375 19.609375 -2.59375 Z M 19.609375 -2.59375 "/>
</symbol>
<symbol overflow="visible" id="glyph0-3">
<path style="stroke:none;" d="M 35.625 -33.03125 L 35.625 0 L 32.578125 0 L 32.578125 -7.078125 C 31.484375 -4.765625 29.859375 -2.960938 27.703125 -1.671875 C 25.554688 -0.390625 23.03125 0.25 20.125 0.25 C 15.820312 0.25 12.445312 -0.945312 10 -3.34375 C 7.550781 -5.75 6.328125 -9.210938 6.328125 -13.734375 L 6.328125 -33.03125 L 9.484375 -33.03125 L 9.484375 -13.984375 C 9.484375 -10.273438 10.429688 -7.445312 12.328125 -5.5 C 14.234375 -3.5625 16.914062 -2.59375 20.375 -2.59375 C 24.082031 -2.59375 27.019531 -3.75 29.1875 -6.0625 C 31.363281 -8.382812 32.453125 -11.507812 32.453125 -15.4375 L 32.453125 -33.03125 Z M 35.625 -33.03125 "/>
</symbol>
<symbol overflow="visible" id="glyph0-4">
<path style="stroke:none;" d="M 9.75 -25.8125 C 10.757812 -28.21875 12.335938 -30.0625 14.484375 -31.34375 C 16.640625 -32.632812 19.253906 -33.28125 22.328125 -33.28125 L 22.328125 -30.171875 L 21.578125 -30.234375 C 17.898438 -30.234375 15.03125 -29.082031 12.96875 -26.78125 C 10.90625 -24.488281 9.875 -21.296875 9.875 -17.203125 L 9.875 0 L 6.703125 0 L 6.703125 -33.03125 L 9.75 -33.03125 Z M 9.75 -25.8125 "/>
</symbol>
<symbol overflow="visible" id="glyph0-5">
<path style="stroke:none;" d=""/>
</symbol>
<symbol overflow="visible" id="glyph0-6">
<path style="stroke:none;" d="M 36.0625 -46.9375 L 36.0625 0 L 32.96875 0 L 32.96875 -7.78125 C 31.65625 -5.207031 29.816406 -3.222656 27.453125 -1.828125 C 25.097656 -0.441406 22.421875 0.25 19.421875 0.25 C 16.335938 0.25 13.550781 -0.460938 11.0625 -1.890625 C 8.582031 -3.328125 6.632812 -5.3125 5.21875 -7.84375 C 3.800781 -10.375 3.09375 -13.265625 3.09375 -16.515625 C 3.09375 -19.765625 3.800781 -22.660156 5.21875 -25.203125 C 6.632812 -27.753906 8.582031 -29.738281 11.0625 -31.15625 C 13.550781 -32.570312 16.335938 -33.28125 19.421875 -33.28125 C 22.367188 -33.28125 25.015625 -32.582031 27.359375 -31.1875 C 29.703125 -29.800781 31.546875 -27.863281 32.890625 -25.375 L 32.890625 -46.9375 Z M 19.609375 -2.59375 C 22.140625 -2.59375 24.40625 -3.179688 26.40625 -4.359375 C 28.414062 -5.546875 30 -7.191406 31.15625 -9.296875 C 32.3125 -11.410156 32.890625 -13.816406 32.890625 -16.515625 C 32.890625 -19.210938 32.3125 -21.613281 31.15625 -23.71875 C 30 -25.832031 28.414062 -27.476562 26.40625 -28.65625 C 24.40625 -29.84375 22.140625 -30.4375 19.609375 -30.4375 C 17.078125 -30.4375 14.8125 -29.84375 12.8125 -28.65625 C 10.8125 -27.476562 9.226562 -25.832031 8.0625 -23.71875 C 6.90625 -21.613281 6.328125 -19.210938 6.328125 -16.515625 C 6.328125 -13.816406 6.90625 -11.410156 8.0625 -9.296875 C 9.226562 -7.191406 10.8125 -5.546875 12.8125 -4.359375 C 14.8125 -3.179688 17.078125 -2.59375 19.609375 -2.59375 Z M 19.609375 -2.59375 "/>
</symbol>
<symbol overflow="visible" id="glyph0-7">
<path style="stroke:none;" d="M 17.84375 -33.28125 C 21.9375 -33.28125 25.078125 -32.234375 27.265625 -30.140625 C 29.460938 -28.054688 30.5625 -24.988281 30.5625 -20.9375 L 30.5625 0 L 27.515625 0 L 27.515625 -5.890625 C 26.460938 -3.941406 24.921875 -2.429688 22.890625 -1.359375 C 20.867188 -0.285156 18.445312 0.25 15.625 0.25 C 11.957031 0.25 9.054688 -0.613281 6.921875 -2.34375 C 4.796875 -4.070312 3.734375 -6.347656 3.734375 -9.171875 C 3.734375 -11.910156 4.710938 -14.132812 6.671875 -15.84375 C 8.628906 -17.550781 11.757812 -18.40625 16.0625 -18.40625 L 27.390625 -18.40625 L 27.390625 -21.0625 C 27.390625 -24.144531 26.554688 -26.488281 24.890625 -28.09375 C 23.222656 -29.695312 20.789062 -30.5 17.59375 -30.5 C 15.394531 -30.5 13.289062 -30.117188 11.28125 -29.359375 C 9.28125 -28.597656 7.585938 -27.582031 6.203125 -26.3125 L 4.625 -28.59375 C 6.257812 -30.070312 8.238281 -31.222656 10.5625 -32.046875 C 12.882812 -32.867188 15.3125 -33.28125 17.84375 -33.28125 Z M 16.0625 -2.34375 C 18.8125 -2.34375 21.144531 -2.972656 23.0625 -4.234375 C 24.976562 -5.503906 26.421875 -7.34375 27.390625 -9.75 L 27.390625 -15.9375 L 16.125 -15.9375 C 12.882812 -15.9375 10.535156 -15.347656 9.078125 -14.171875 C 7.617188 -12.992188 6.890625 -11.367188 6.890625 -9.296875 C 6.890625 -7.148438 7.691406 -5.453125 9.296875 -4.203125 C 10.898438 -2.960938 13.15625 -2.34375 16.0625 -2.34375 Z M 16.0625 -2.34375 "/>
</symbol>
<symbol overflow="visible" id="glyph0-8">
<path style="stroke:none;" d="M 33.21875 -33.03125 L 16.265625 4.484375 C 14.992188 7.398438 13.523438 9.46875 11.859375 10.6875 C 10.191406 11.914062 8.222656 12.53125 5.953125 12.53125 C 4.429688 12.53125 3.003906 12.273438 1.671875 11.765625 C 0.347656 11.265625 -0.773438 10.523438 -1.703125 9.546875 L -0.125 7.15625 C 1.5625 8.882812 3.609375 9.75 6.015625 9.75 C 7.617188 9.75 8.988281 9.300781 10.125 8.40625 C 11.257812 7.519531 12.3125 6.003906 13.28125 3.859375 L 15.0625 -0.125 L 0.1875 -33.03125 L 3.546875 -33.03125 L 16.765625 -3.484375 L 29.984375 -33.03125 Z M 33.21875 -33.03125 "/>
</symbol>
<symbol overflow="visible" id="glyph0-9">
<path style="stroke:none;" d="M 22.84375 -33.28125 C 26.96875 -33.28125 30.234375 -32.078125 32.640625 -29.671875 C 35.046875 -27.265625 36.25 -23.804688 36.25 -19.296875 L 36.25 0 L 33.09375 0 L 33.09375 -19.046875 C 33.09375 -22.753906 32.148438 -25.578125 30.265625 -27.515625 C 28.390625 -29.460938 25.765625 -30.4375 22.390625 -30.4375 C 18.515625 -30.4375 15.457031 -29.273438 13.21875 -26.953125 C 10.988281 -24.628906 9.875 -21.507812 9.875 -17.59375 L 9.875 0 L 6.703125 0 L 6.703125 -46.9375 L 9.875 -46.9375 L 9.875 -26.125 C 11.007812 -28.40625 12.691406 -30.164062 14.921875 -31.40625 C 17.160156 -32.65625 19.800781 -33.28125 22.84375 -33.28125 Z M 22.84375 -33.28125 "/>
</symbol>
<symbol overflow="visible" id="glyph0-10">
<path style="stroke:none;" d="M 34.609375 -15.75 L 6.203125 -15.75 C 6.285156 -13.175781 6.9375 -10.890625 8.15625 -8.890625 C 9.382812 -6.890625 11.039062 -5.335938 13.125 -4.234375 C 15.21875 -3.140625 17.570312 -2.59375 20.1875 -2.59375 C 22.332031 -2.59375 24.320312 -2.984375 26.15625 -3.765625 C 27.988281 -4.546875 29.519531 -5.695312 30.75 -7.21875 L 32.578125 -5.125 C 31.148438 -3.394531 29.347656 -2.066406 27.171875 -1.140625 C 25.003906 -0.210938 22.65625 0.25 20.125 0.25 C 16.832031 0.25 13.898438 -0.460938 11.328125 -1.890625 C 8.753906 -3.328125 6.738281 -5.3125 5.28125 -7.84375 C 3.820312 -10.375 3.09375 -13.265625 3.09375 -16.515625 C 3.09375 -19.722656 3.78125 -22.597656 5.15625 -25.140625 C 6.53125 -27.691406 8.414062 -29.6875 10.8125 -31.125 C 13.21875 -32.5625 15.921875 -33.28125 18.921875 -33.28125 C 21.910156 -33.28125 24.597656 -32.570312 26.984375 -31.15625 C 29.367188 -29.738281 31.242188 -27.765625 32.609375 -25.234375 C 33.984375 -22.710938 34.671875 -19.847656 34.671875 -16.640625 Z M 18.921875 -30.5 C 16.597656 -30.5 14.507812 -29.976562 12.65625 -28.9375 C 10.800781 -27.90625 9.3125 -26.453125 8.1875 -24.578125 C 7.070312 -22.703125 6.429688 -20.582031 6.265625 -18.21875 L 31.5625 -18.21875 C 31.4375 -20.582031 30.804688 -22.691406 29.671875 -24.546875 C 28.535156 -26.398438 27.035156 -27.851562 25.171875 -28.90625 C 23.316406 -29.96875 21.234375 -30.5 18.921875 -30.5 Z M 18.921875 -30.5 "/>
</symbol>
<symbol overflow="visible" id="glyph0-11">
<path style="stroke:none;" d="M 6.140625 -44.28125 L 9.8125 -44.28125 L 9.171875 -12.71875 L 6.765625 -12.71875 Z M 7.96875 0.25 C 7.25 0.25 6.632812 0 6.125 -0.5 C 5.625 -1.007812 5.375 -1.625 5.375 -2.34375 C 5.375 -3.0625 5.625 -3.671875 6.125 -4.171875 C 6.632812 -4.679688 7.25 -4.9375 7.96875 -4.9375 C 8.726562 -4.9375 9.359375 -4.679688 9.859375 -4.171875 C 10.367188 -3.671875 10.625 -3.0625 10.625 -2.34375 C 10.625 -1.625 10.367188 -1.007812 9.859375 -0.5 C 9.359375 0 8.726562 0.25 7.96875 0.25 Z M 7.96875 0.25 "/>
</symbol>
</g>
<clipPath id="clip1">
  <path d="M 638 177.566406 L 714.46875 177.566406 L 714.46875 206 L 638 206 Z M 638 177.566406 "/>
</clipPath>
<clipPath id="clip2">
  <path d="M 622.53125 189 L 654 189 L 654 220.808594 L 622.53125 220.808594 Z M 622.53125 189 "/>
</clipPath>
<clipPath id="clip3">
  <path d="M 1075.441406 50 L 1097 50 L 1097 72 L 1075.441406 72 Z M 1075.441406 50 "/>
</clipPath>
<clipPath id="clip4">
  <path d="M 1091 66 L 1129.441406 66 L 1129.441406 82.929688 L 1091 82.929688 Z M 1091 66 "/>
</clipPath>
<clipPath id="clip5">
  <path d="M 1115 77 L 1129.441406 77 L 1129.441406 82.929688 L 1115 82.929688 Z M 1115 77 "/>
</clipPath>
<clipPath id="clip6">
  <path d="M 1102 59 L 1129.441406 59 L 1129.441406 74 L 1102 74 Z M 1102 59 "/>
</clipPath>
<clipPath id="clip7">
  <path d="M 1084 73 L 1093 73 L 1093 82.929688 L 1084 82.929688 Z M 1084 73 "/>
</clipPath>
<clipPath id="clip8">
  <path d="M 1080 269 L 1108.105469 269 L 1108.105469 286.464844 L 1080 286.464844 Z M 1080 269 "/>
</clipPath>
<clipPath id="clip9">
  <path d="M 1049 264 L 1071 264 L 1071 286.464844 L 1049 286.464844 Z M 1049 264 "/>
</clipPath>
<clipPath id="clip10">
  <path d="M 715.105469 108 L 744 108 L 744 144 L 715.105469 144 Z M 715.105469 108 "/>
</clipPath>
<clipPath id="clip11">
  <path d="M 715.105469 131 L 727 131 L 727 144 L 715.105469 144 Z M 715.105469 131 "/>
</clipPath>
<clipPath id="clip12">
  <path d="M 413.371094 63.039062 L 483.121094 63.039062 L 483.121094 132.789062 L 413.371094 132.789062 Z M 413.371094 63.039062 "/>
</clipPath>
<clipPath id="clip13">
  <path d="M 57.792969 201 L 109 201 L 109 251.605469 L 57.792969 251.605469 Z M 57.792969 201 "/>
</clipPath>
<clipPath id="clip14">
  <path d="M 65 195.355469 L 114.042969 195.355469 L 114.042969 245 L 65 245 Z M 65 195.355469 "/>
</clipPath>
</defs>
<g id="surface1">
<rect x="0" y="0" width="1188" height="296.999993" style="fill:rgb(100%,100%,100%);fill-opacity:1;stroke:none;"/>
<rect x="0" y="0" width="1188" height="296.999993" style="fill:rgb(100%,100%,100%);fill-opacity:1;stroke:none;"/>
<rect x="0" y="0" width="1188" height="296.999993" style="fill:rgb(0%,29.019165%,67.83905%);fill-opacity:1;stroke:none;"/>
<g clip-path="url(#clip1)" clip-rule="nonzero">
<path style=" stroke:none;fill-rule:nonzero;fill:rgb(92.939758%,30.979919%,35.688782%);fill-opacity:1;" d="M 638.132812 177.726562 L 714.46875 177.726562 L 714.46875 205.472656 L 638.132812 205.472656 Z M 638.132812 177.726562 "/>
</g>
<g clip-path="url(#clip2)" clip-rule="nonzero">
<path style=" stroke:none;fill-rule:nonzero;fill:rgb(0%,0%,0%);fill-opacity:1;" d="M 638.132812 220.652344 C 629.503906 220.652344 622.53125 213.644531 622.53125 205.128906 C 622.53125 196.542969 629.574219 189.609375 638.132812 189.609375 C 645.035156 189.609375 651.175781 194.210938 653.109375 200.734375 L 651.796875 201.144531 C 650.003906 195.171875 644.410156 190.980469 638.132812 190.980469 C 630.261719 190.980469 623.914062 197.367188 623.914062 205.128906 C 623.914062 212.957031 630.332031 219.277344 638.132812 219.277344 C 646 219.277344 652.347656 212.890625 652.347656 205.128906 L 653.730469 205.128906 C 653.796875 213.644531 646.757812 220.652344 638.132812 220.652344 Z M 638.132812 220.652344 "/>
</g>
<path style=" stroke:none;fill-rule:nonzero;fill:rgb(0%,0%,0%);fill-opacity:1;" d="M 1086.265625 73.253906 L 1084.910156 73.253906 L 1084.910156 59.375 L 1102.160156 59.375 L 1102.160156 60.730469 L 1086.265625 60.730469 Z M 1086.265625 73.253906 "/>
<g clip-path="url(#clip3)" clip-rule="nonzero">
<path style=" stroke:none;fill-rule:nonzero;fill:rgb(92.939758%,30.979919%,35.688782%);fill-opacity:1;" d="M 1096.546875 60.59375 C 1096.546875 61.289062 1096.476562 61.972656 1096.34375 62.65625 C 1096.207031 63.335938 1096.007812 63.996094 1095.742188 64.636719 C 1095.476562 65.277344 1095.152344 65.886719 1094.765625 66.460938 C 1094.382812 67.039062 1093.945312 67.570312 1093.453125 68.0625 C 1092.964844 68.550781 1092.433594 68.992188 1091.855469 69.375 C 1091.28125 69.761719 1090.671875 70.085938 1090.03125 70.351562 C 1089.390625 70.617188 1088.730469 70.816406 1088.050781 70.953125 C 1087.371094 71.089844 1086.6875 71.15625 1085.992188 71.15625 C 1085.300781 71.15625 1084.613281 71.089844 1083.9375 70.953125 C 1083.257812 70.816406 1082.597656 70.617188 1081.957031 70.351562 C 1081.316406 70.085938 1080.707031 69.761719 1080.132812 69.375 C 1079.554688 68.992188 1079.023438 68.550781 1078.535156 68.0625 C 1078.042969 67.570312 1077.605469 67.039062 1077.222656 66.460938 C 1076.835938 65.886719 1076.511719 65.277344 1076.246094 64.636719 C 1075.980469 63.996094 1075.78125 63.335938 1075.644531 62.65625 C 1075.511719 61.972656 1075.441406 61.289062 1075.441406 60.59375 C 1075.441406 59.898438 1075.511719 59.214844 1075.644531 58.535156 C 1075.78125 57.851562 1075.980469 57.191406 1076.246094 56.550781 C 1076.511719 55.910156 1076.835938 55.300781 1077.222656 54.726562 C 1077.605469 54.148438 1078.042969 53.617188 1078.535156 53.125 C 1079.023438 52.636719 1079.554688 52.199219 1080.132812 51.8125 C 1080.707031 51.425781 1081.316406 51.101562 1081.957031 50.835938 C 1082.597656 50.570312 1083.257812 50.371094 1083.9375 50.234375 C 1084.613281 50.101562 1085.300781 50.03125 1085.992188 50.03125 C 1086.6875 50.03125 1087.371094 50.101562 1088.050781 50.234375 C 1088.730469 50.371094 1089.390625 50.570312 1090.03125 50.835938 C 1090.671875 51.101562 1091.28125 51.425781 1091.855469 51.8125 C 1092.433594 52.199219 1092.964844 52.636719 1093.453125 53.125 C 1093.945312 53.617188 1094.382812 54.148438 1094.765625 54.726562 C 1095.152344 55.300781 1095.476562 55.910156 1095.742188 56.550781 C 1096.007812 57.191406 1096.207031 57.851562 1096.34375 58.535156 C 1096.476562 59.214844 1096.546875 59.898438 1096.546875 60.59375 Z M 1096.546875 60.59375 "/>
</g>
<g clip-path="url(#clip4)" clip-rule="nonzero">
<path style=" stroke:none;fill-rule:nonzero;fill:rgb(0%,0%,0%);fill-opacity:1;" d="M 1111.898438 83.070312 L 1091.675781 83.070312 L 1091.675781 66.144531 L 1129.144531 66.144531 L 1129.144531 67.5 L 1093.027344 67.5 L 1093.027344 81.71875 L 1111.898438 81.71875 Z M 1111.898438 83.070312 "/>
</g>
<g clip-path="url(#clip5)" clip-rule="nonzero">
<path style=" stroke:none;fill-rule:nonzero;fill:rgb(0%,0%,0%);fill-opacity:1;" d="M 1129.820312 83.070312 L 1115.28125 83.070312 L 1115.28125 81.71875 L 1128.46875 81.71875 L 1128.46875 77.25 L 1129.820312 77.25 Z M 1129.820312 83.070312 "/>
</g>
<g clip-path="url(#clip6)" clip-rule="nonzero">
<path style=" stroke:none;fill-rule:nonzero;fill:rgb(0%,0%,0%);fill-opacity:1;" d="M 1129.820312 73.863281 L 1128.46875 73.863281 L 1128.46875 67.09375 L 1122.109375 60.730469 L 1102.160156 60.730469 L 1102.160156 59.375 L 1122.652344 59.375 L 1129.820312 66.550781 Z M 1129.820312 73.863281 "/>
</g>
<g clip-path="url(#clip7)" clip-rule="nonzero">
<path style=" stroke:none;fill-rule:nonzero;fill:rgb(0%,0%,0%);fill-opacity:1;" d="M 1091.878906 82.867188 L 1084.910156 75.894531 L 1084.910156 73.253906 L 1086.265625 73.253906 L 1086.265625 75.351562 L 1092.824219 81.921875 Z M 1091.878906 82.867188 "/>
</g>
<path style=" stroke:none;fill-rule:nonzero;fill:rgb(0%,0%,0%);fill-opacity:1;" d="M 1092.351562 67.5 C 1092.148438 67.5 1092.011719 67.433594 1091.878906 67.296875 L 1085.316406 60.730469 C 1085.046875 60.457031 1085.046875 60.050781 1085.316406 59.78125 C 1085.589844 59.511719 1085.992188 59.511719 1086.265625 59.78125 L 1092.824219 66.347656 C 1093.09375 66.621094 1093.09375 67.027344 1092.824219 67.296875 C 1092.691406 67.433594 1092.554688 67.5 1092.351562 67.5 Z M 1092.351562 67.5 "/>
<path style=" stroke:none;fill-rule:nonzero;fill:rgb(100%,100%,100%);fill-opacity:1;" d="M 1005.675781 219.488281 L 1037.089844 219.488281 L 1037.089844 250.816406 L 1005.675781 250.816406 Z M 1005.675781 219.488281 "/>
<path style=" stroke:none;fill-rule:nonzero;fill:rgb(0%,0%,0%);fill-opacity:1;" d="M 739.347656 143.316406 L 729.574219 143.316406 L 729.574219 141.925781 L 738.71875 141.925781 L 748.984375 131.621094 L 750.03125 132.664062 Z M 739.347656 143.316406 "/>
<path style=" stroke:none;fill-rule:nonzero;fill:rgb(0%,0%,0%);fill-opacity:1;" d="M 757.152344 109.199219 L 758.546875 109.199219 L 758.546875 181.402344 L 757.152344 181.402344 Z M 757.152344 109.199219 "/>
<path style=" stroke:none;fill-rule:nonzero;fill:rgb(92.939758%,30.979919%,35.688782%);fill-opacity:1;" d="M 839.457031 214.054688 L 845.460938 214.054688 L 865.566406 251.304688 L 860.332031 257.851562 L 825.773438 257.851562 L 819.492188 250.050781 Z M 839.457031 214.054688 "/>
<path style=" stroke:none;fill-rule:nonzero;fill:rgb(5.488586%,66.668701%,100%);fill-opacity:1;" d="M 964.347656 83.160156 L 965.324219 42.847656 L 952.480469 41.316406 L 942.566406 51.761719 L 943.613281 54.335938 L 933.5625 67.078125 Z M 964.347656 83.160156 "/>
<path style=" stroke:none;fill-rule:nonzero;fill:rgb(100%,63.529968%,55.288696%);fill-opacity:1;" d="M 792.476562 143.527344 C 792.476562 144.414062 792.429688 145.300781 792.34375 146.1875 C 792.257812 147.074219 792.125 147.949219 791.953125 148.824219 C 791.777344 149.695312 791.5625 150.558594 791.300781 151.410156 C 791.042969 152.257812 790.742188 153.09375 790.402344 153.917969 C 790.0625 154.738281 789.679688 155.542969 789.261719 156.324219 C 788.839844 157.109375 788.382812 157.871094 787.886719 158.613281 C 787.390625 159.351562 786.859375 160.066406 786.292969 160.753906 C 785.730469 161.441406 785.132812 162.097656 784.5 162.726562 C 783.871094 163.355469 783.210938 163.953125 782.519531 164.515625 C 781.832031 165.082031 781.117188 165.609375 780.375 166.101562 C 779.632812 166.597656 778.871094 167.054688 778.082031 167.472656 C 777.296875 167.894531 776.492188 168.273438 775.667969 168.613281 C 774.84375 168.953125 774.003906 169.253906 773.152344 169.511719 C 772.296875 169.769531 771.433594 169.984375 770.558594 170.15625 C 769.6875 170.332031 768.804688 170.460938 767.917969 170.550781 C 767.03125 170.636719 766.140625 170.679688 765.25 170.679688 C 764.355469 170.679688 763.46875 170.636719 762.578125 170.550781 C 761.691406 170.460938 760.8125 170.332031 759.9375 170.15625 C 759.0625 169.984375 758.199219 169.769531 757.34375 169.511719 C 756.492188 169.253906 755.652344 168.953125 754.828125 168.613281 C 754.003906 168.273438 753.199219 167.894531 752.414062 167.472656 C 751.628906 167.054688 750.863281 166.597656 750.121094 166.101562 C 749.382812 165.609375 748.664062 165.082031 747.976562 164.515625 C 747.289062 163.953125 746.628906 163.355469 745.996094 162.726562 C 745.367188 162.097656 744.769531 161.441406 744.203125 160.753906 C 743.636719 160.066406 743.105469 159.351562 742.609375 158.613281 C 742.117188 157.871094 741.65625 157.109375 741.238281 156.324219 C 740.816406 155.542969 740.4375 154.738281 740.09375 153.917969 C 739.753906 153.09375 739.453125 152.257812 739.195312 151.410156 C 738.9375 150.558594 738.71875 149.695312 738.546875 148.824219 C 738.371094 147.949219 738.242188 147.074219 738.152344 146.1875 C 738.066406 145.300781 738.023438 144.414062 738.023438 143.527344 C 738.023438 142.636719 738.066406 141.75 738.152344 140.863281 C 738.242188 139.980469 738.371094 139.101562 738.546875 138.230469 C 738.71875 137.355469 738.9375 136.496094 739.195312 135.644531 C 739.453125 134.792969 739.753906 133.957031 740.09375 133.132812 C 740.4375 132.3125 740.816406 131.511719 741.238281 130.726562 C 741.65625 129.941406 742.117188 129.179688 742.609375 128.441406 C 743.105469 127.699219 743.636719 126.988281 744.203125 126.300781 C 744.769531 125.613281 745.367188 124.953125 745.996094 124.324219 C 746.628906 123.695312 747.289062 123.101562 747.976562 122.535156 C 748.664062 121.972656 749.382812 121.441406 750.121094 120.949219 C 750.863281 120.453125 751.628906 119.996094 752.414062 119.578125 C 753.199219 119.160156 754.003906 118.78125 754.828125 118.4375 C 755.652344 118.097656 756.492188 117.800781 757.34375 117.542969 C 758.199219 117.285156 759.0625 117.066406 759.9375 116.894531 C 760.8125 116.71875 761.691406 116.589844 762.578125 116.503906 C 763.46875 116.414062 764.355469 116.371094 765.25 116.371094 C 766.140625 116.371094 767.03125 116.414062 767.917969 116.503906 C 768.804688 116.589844 769.6875 116.71875 770.558594 116.894531 C 771.433594 117.066406 772.296875 117.285156 773.152344 117.542969 C 774.003906 117.800781 774.84375 118.097656 775.667969 118.4375 C 776.492188 118.78125 777.296875 119.160156 778.082031 119.578125 C 778.871094 119.996094 779.632812 120.453125 780.375 120.949219 C 781.117188 121.441406 781.832031 121.972656 782.519531 122.535156 C 783.210938 123.101562 783.871094 123.695312 784.5 124.324219 C 785.132812 124.953125 785.730469 125.613281 786.292969 126.300781 C 786.859375 126.988281 787.390625 127.699219 787.886719 128.441406 C 788.382812 129.179688 788.839844 129.941406 789.261719 130.726562 C 789.679688 131.511719 790.0625 132.3125 790.402344 133.132812 C 790.742188 133.957031 791.042969 134.792969 791.300781 135.644531 C 791.5625 136.496094 791.777344 137.355469 791.953125 138.230469 C 792.125 139.101562 792.257812 139.980469 792.34375 140.863281 C 792.429688 141.75 792.476562 142.636719 792.476562 143.527344 Z M 792.476562 143.527344 "/>
<path style=" stroke:none;fill-rule:nonzero;fill:rgb(100%,63.529968%,55.288696%);fill-opacity:1;" d="M 1055.382812 168.871094 L 1072.972656 188.015625 L 1054.125 197.972656 Z M 1055.382812 168.871094 "/>
<path style=" stroke:none;fill-rule:nonzero;fill:rgb(100%,63.529968%,55.288696%);fill-opacity:1;" d="M 1044.070312 152.714844 L 1052.589844 158.496094 L 1057.265625 175.691406 L 1044.070312 179.871094 Z M 1044.070312 152.714844 "/>
<path style=" stroke:none;fill-rule:nonzero;fill:rgb(0%,0%,0%);fill-opacity:1;" d="M 918.621094 97.015625 L 1044.070312 97.015625 L 1044.070312 98.410156 L 918.621094 98.410156 Z M 918.621094 97.015625 "/>
<path style=" stroke:none;fill-rule:nonzero;fill:rgb(0%,0%,0%);fill-opacity:1;" d="M 764.828125 97.015625 L 901.660156 97.015625 L 901.660156 98.410156 L 764.828125 98.410156 Z M 764.828125 97.015625 "/>
<path style=" stroke:none;fill-rule:nonzero;fill:rgb(100%,63.529968%,55.288696%);fill-opacity:1;" d="M 1009.167969 90.75 C 1009.167969 91.210938 1009.078125 91.65625 1008.902344 92.082031 C 1008.722656 92.507812 1008.472656 92.886719 1008.144531 93.210938 C 1007.816406 93.539062 1007.441406 93.789062 1007.011719 93.964844 C 1006.585938 94.144531 1006.140625 94.230469 1005.675781 94.230469 C 1005.214844 94.230469 1004.769531 94.144531 1004.339844 93.964844 C 1003.914062 93.789062 1003.535156 93.539062 1003.207031 93.210938 C 1002.882812 92.886719 1002.628906 92.507812 1002.453125 92.082031 C 1002.273438 91.65625 1002.1875 91.210938 1002.1875 90.75 C 1002.1875 90.289062 1002.273438 89.84375 1002.453125 89.417969 C 1002.628906 88.992188 1002.882812 88.613281 1003.207031 88.289062 C 1003.535156 87.960938 1003.914062 87.710938 1004.339844 87.535156 C 1004.769531 87.355469 1005.214844 87.269531 1005.675781 87.269531 C 1006.140625 87.269531 1006.585938 87.355469 1007.011719 87.535156 C 1007.441406 87.710938 1007.816406 87.960938 1008.144531 88.289062 C 1008.472656 88.613281 1008.722656 88.992188 1008.902344 89.417969 C 1009.078125 89.84375 1009.167969 90.289062 1009.167969 90.75 Z M 1009.167969 90.75 "/>
<path style=" stroke:none;fill-rule:nonzero;fill:rgb(92.939758%,30.979919%,35.688782%);fill-opacity:1;" d="M 1019.636719 90.75 C 1019.636719 91.210938 1019.550781 91.65625 1019.371094 92.082031 C 1019.195312 92.507812 1018.945312 92.886719 1018.617188 93.210938 C 1018.289062 93.539062 1017.910156 93.789062 1017.484375 93.964844 C 1017.054688 94.144531 1016.609375 94.230469 1016.148438 94.230469 C 1015.683594 94.230469 1015.238281 94.144531 1014.8125 93.964844 C 1014.382812 93.789062 1014.007812 93.539062 1013.679688 93.210938 C 1013.351562 92.886719 1013.101562 92.507812 1012.921875 92.082031 C 1012.746094 91.65625 1012.65625 91.210938 1012.65625 90.75 C 1012.65625 90.289062 1012.746094 89.84375 1012.921875 89.417969 C 1013.101562 88.992188 1013.351562 88.613281 1013.679688 88.289062 C 1014.007812 87.960938 1014.382812 87.710938 1014.8125 87.535156 C 1015.238281 87.355469 1015.683594 87.269531 1016.148438 87.269531 C 1016.609375 87.269531 1017.054688 87.355469 1017.484375 87.535156 C 1017.910156 87.710938 1018.289062 87.960938 1018.617188 88.289062 C 1018.945312 88.613281 1019.195312 88.992188 1019.371094 89.417969 C 1019.550781 89.84375 1019.636719 90.289062 1019.636719 90.75 Z M 1019.636719 90.75 "/>
<path style=" stroke:none;fill-rule:nonzero;fill:rgb(5.488586%,66.668701%,100%);fill-opacity:1;" d="M 1030.109375 90.75 C 1030.109375 91.210938 1030.019531 91.65625 1029.84375 92.082031 C 1029.667969 92.507812 1029.414062 92.886719 1029.085938 93.210938 C 1028.761719 93.539062 1028.382812 93.789062 1027.957031 93.964844 C 1027.527344 94.144531 1027.082031 94.230469 1026.621094 94.230469 C 1026.15625 94.230469 1025.710938 94.144531 1025.285156 93.964844 C 1024.855469 93.789062 1024.480469 93.539062 1024.152344 93.210938 C 1023.824219 92.886719 1023.570312 92.507812 1023.394531 92.082031 C 1023.21875 91.65625 1023.128906 91.210938 1023.128906 90.75 C 1023.128906 90.289062 1023.21875 89.84375 1023.394531 89.417969 C 1023.570312 88.992188 1023.824219 88.613281 1024.152344 88.289062 C 1024.480469 87.960938 1024.855469 87.710938 1025.285156 87.535156 C 1025.710938 87.355469 1026.15625 87.269531 1026.621094 87.269531 C 1027.082031 87.269531 1027.527344 87.355469 1027.957031 87.535156 C 1028.382812 87.710938 1028.761719 87.960938 1029.085938 88.289062 C 1029.414062 88.613281 1029.667969 88.992188 1029.84375 89.417969 C 1030.019531 89.84375 1030.109375 90.289062 1030.109375 90.75 Z M 1030.109375 90.75 "/>
<path style=" stroke:none;fill-rule:nonzero;fill:rgb(0%,0%,0%);fill-opacity:1;" d="M 915.761719 64.152344 L 908.082031 61.996094 L 899.773438 64.917969 L 871.78125 110.800781 L 879.808594 116.371094 L 903.683594 90.472656 L 907.59375 68.957031 Z M 915.761719 64.152344 "/>
<path style=" stroke:none;fill-rule:nonzero;fill:rgb(0%,0%,0%);fill-opacity:1;" d="M 916.355469 101.6875 L 924.976562 79.109375 L 926.285156 79.605469 L 917.660156 102.183594 Z M 916.355469 101.6875 "/>
<path style=" stroke:none;fill-rule:nonzero;fill:rgb(0%,0%,0%);fill-opacity:1;" d="M 906.265625 131.898438 L 895.65625 126.886719 L 906.125 69.027344 L 919.320312 61.230469 L 940.402344 72.230469 L 939.773438 73.484375 L 919.390625 62.832031 L 907.382812 69.863281 L 897.191406 126.121094 L 905.5 130.019531 L 915.132812 104.882812 L 916.457031 105.371094 Z M 906.265625 131.898438 "/>
<path style=" stroke:none;fill-rule:nonzero;fill:rgb(0%,0%,0%);fill-opacity:1;" d="M 1078.28125 274.140625 L 1054.472656 227.425781 L 1055.730469 226.796875 L 1078.976562 272.402344 L 1089.867188 268.640625 L 1079.535156 238.007812 L 1081.003906 233.828125 L 1073.253906 208 L 1074.578125 207.582031 L 1082.398438 233.828125 L 1081.070312 238.007812 L 1091.683594 269.546875 Z M 1078.28125 274.140625 "/>
<path style=" stroke:none;fill-rule:nonzero;fill:rgb(0%,0%,0%);fill-opacity:1;" d="M 1068.40625 191.972656 L 1069.742188 191.574219 L 1073.605469 204.445312 L 1072.269531 204.847656 Z M 1068.40625 191.972656 "/>
<g clip-path="url(#clip8)" clip-rule="nonzero">
<path style=" stroke:none;fill-rule:nonzero;fill:rgb(0%,0%,0%);fill-opacity:1;" d="M 1080.863281 272.542969 L 1083.792969 280.617188 L 1083.792969 286.464844 L 1108.019531 286.464844 L 1106.0625 283.195312 L 1102.292969 282.914062 L 1090.355469 277.832031 L 1088.75 269.824219 Z M 1080.863281 272.542969 "/>
</g>
<path style=" stroke:none;fill-rule:nonzero;fill:rgb(0%,0%,0%);fill-opacity:1;" d="M 1081.628906 269.269531 L 1068.226562 233.550781 L 1065.785156 233.550781 L 1067.039062 230.835938 L 1055.941406 204.867188 L 1056.566406 204.65625 L 1067.808594 230.90625 L 1066.898438 232.855469 L 1068.644531 232.855469 L 1082.257812 269.058594 Z M 1081.628906 269.269531 "/>
<path style=" stroke:none;fill-rule:nonzero;fill:rgb(0%,0%,0%);fill-opacity:1;" d="M 1046.65625 179.382812 L 1046.445312 178.757812 L 1056.847656 175.484375 L 1053.21875 162.464844 L 1053.84375 162.253906 L 1057.683594 175.902344 Z M 1046.65625 179.382812 "/>
<path style=" stroke:none;fill-rule:nonzero;fill:rgb(0%,0%,0%);fill-opacity:1;" d="M 1047.421875 265.578125 L 1030.179688 262.652344 L 1027.875 258.128906 L 1029.132812 257.570312 L 1031.085938 261.402344 L 1046.65625 264.046875 L 1049.449219 258.476562 L 1055.171875 222.0625 L 1052.660156 215.449219 L 1054.402344 176.320312 L 1055.800781 176.390625 L 1054.054688 215.238281 L 1056.636719 221.921875 L 1056.636719 222.0625 L 1050.84375 258.964844 Z M 1047.421875 265.578125 "/>
<path style=" stroke:none;fill-rule:nonzero;fill:rgb(0%,0%,0%);fill-opacity:1;" d="M 1047.738281 233.5 L 1047.933594 232.832031 L 1055.980469 235.144531 L 1055.789062 235.8125 Z M 1047.738281 233.5 "/>
<path style=" stroke:none;fill-rule:nonzero;fill:rgb(0%,0%,0%);fill-opacity:1;" d="M 1046.902344 238.246094 L 1047.097656 237.574219 L 1055.214844 239.90625 L 1055.019531 240.578125 Z M 1046.902344 238.246094 "/>
<path style=" stroke:none;fill-rule:nonzero;fill:rgb(0%,0%,0%);fill-opacity:1;" d="M 1046.578125 243.082031 L 1046.773438 242.414062 L 1054.890625 244.746094 L 1054.695312 245.414062 Z M 1046.578125 243.082031 "/>
<path style=" stroke:none;fill-rule:nonzero;fill:rgb(0%,0%,0%);fill-opacity:1;" d="M 1060.128906 236.960938 L 1054.753906 265.023438 L 1065.085938 272.332031 L 1071.226562 258.6875 Z M 1060.128906 236.960938 "/>
<g clip-path="url(#clip9)" clip-rule="nonzero">
<path style=" stroke:none;fill-rule:nonzero;fill:rgb(0%,0%,0%);fill-opacity:1;" d="M 1057.335938 264.8125 L 1053.496094 274.421875 L 1049.449219 277.414062 L 1056.21875 286.464844 L 1070.808594 286.464844 L 1069.0625 283.542969 L 1061.875 282.011719 L 1060.058594 276.160156 L 1063.828125 268.433594 Z M 1057.335938 264.8125 "/>
</g>
<path style=" stroke:none;fill-rule:nonzero;fill:rgb(0%,0%,0%);fill-opacity:1;" d="M 1050.007812 154.945312 L 1048.679688 147.355469 L 1054.265625 145.476562 L 1052.730469 139.765625 L 1055.03125 137.328125 L 1051.613281 132.59375 L 1052.730469 131.757812 L 1056.847656 137.46875 L 1054.265625 140.113281 L 1055.941406 146.378906 L 1050.285156 148.332031 L 1051.332031 154.664062 Z M 1050.007812 154.945312 "/>
<path style=" stroke:none;fill-rule:nonzero;fill:rgb(0%,0%,0%);fill-opacity:1;" d="M 1044.769531 136.632812 L 1043.375 136.632812 L 1043.375 84.484375 L 999.394531 84.484375 L 999.394531 83.089844 L 1044.769531 83.089844 Z M 1044.769531 136.632812 "/>
<path style=" stroke:none;fill-rule:nonzero;fill:rgb(0%,0%,0%);fill-opacity:1;" d="M 924.765625 83.089844 L 992.34375 83.089844 L 992.34375 84.484375 L 924.765625 84.484375 Z M 924.765625 83.089844 "/>
<path style=" stroke:none;fill-rule:nonzero;fill:rgb(0%,0%,0%);fill-opacity:1;" d="M 964.347656 33.308594 L 964.347656 31.917969 C 965.535156 31.917969 966.582031 30.941406 966.582031 29.6875 C 966.582031 28.503906 965.605469 27.460938 964.347656 27.460938 C 963.160156 27.460938 962.113281 28.4375 962.113281 29.6875 L 960.71875 29.6875 C 960.71875 27.671875 962.324219 26.070312 964.347656 26.070312 C 966.371094 26.070312 967.980469 27.671875 967.980469 29.6875 C 967.980469 31.707031 966.304688 33.308594 964.347656 33.308594 Z M 964.347656 33.308594 "/>
<path style=" stroke:none;fill-rule:nonzero;fill:rgb(0%,0%,0%);fill-opacity:1;" d="M 853.699219 202.5 L 853.699219 201.105469 C 855.515625 201.105469 856.980469 199.644531 856.980469 197.832031 C 856.980469 196.023438 855.515625 194.5625 853.699219 194.5625 C 851.882812 194.5625 850.417969 196.023438 850.417969 197.832031 L 849.019531 197.832031 C 849.019531 195.257812 851.117188 193.167969 853.699219 193.167969 C 856.28125 193.167969 858.375 195.257812 858.375 197.832031 C 858.375 200.410156 856.28125 202.5 853.699219 202.5 Z M 853.699219 202.5 "/>
<path style=" stroke:none;fill-rule:nonzero;fill:rgb(0%,0%,0%);fill-opacity:1;" d="M 831.148438 202.5 C 828.566406 202.5 826.472656 200.410156 826.472656 197.832031 C 826.472656 195.257812 828.566406 193.167969 831.148438 193.167969 C 833.734375 193.167969 835.828125 195.257812 835.828125 197.832031 L 834.429688 197.832031 C 834.429688 196.023438 832.964844 194.5625 831.148438 194.5625 C 829.335938 194.5625 827.867188 196.023438 827.867188 197.832031 C 827.867188 199.644531 829.335938 201.105469 831.148438 201.105469 Z M 831.148438 202.5 "/>
<path style=" stroke:none;fill-rule:nonzero;fill:rgb(0%,0%,0%);fill-opacity:1;" d="M 1046.726562 132.175781 L 1046.445312 130.785156 C 1046.792969 130.714844 1054.683594 128.835938 1057.964844 118.390625 L 1059.289062 118.808594 C 1055.730469 130.089844 1047.074219 132.109375 1046.726562 132.175781 Z M 1046.726562 132.175781 "/>
<path style=" stroke:none;fill-rule:nonzero;fill:rgb(0%,0%,0%);fill-opacity:1;" d="M 1046.863281 128.488281 L 1046.375 127.164062 L 1046.65625 127.789062 L 1046.375 127.164062 C 1046.585938 127.09375 1051.332031 125.214844 1052.03125 119.367188 L 1053.425781 119.503906 C 1052.589844 126.1875 1047.074219 128.417969 1046.863281 128.488281 Z M 1046.863281 128.488281 "/>
<path style=" stroke:none;fill-rule:nonzero;fill:rgb(0%,0%,0%);fill-opacity:1;" d="M 1050.703125 144.5 C 1050.285156 144.5 1049.9375 144.429688 1049.65625 144.292969 C 1048.820312 143.875 1048.609375 143.109375 1048.539062 143.109375 L 1049.238281 142.898438 L 1048.890625 143.039062 L 1049.238281 142.898438 C 1049.238281 142.898438 1049.449219 143.457031 1050.007812 143.664062 C 1050.496094 143.875 1051.125 143.875 1051.820312 143.59375 L 1052.03125 144.222656 C 1051.542969 144.429688 1051.125 144.5 1050.703125 144.5 Z M 1050.703125 144.5 "/>
<path style=" stroke:none;fill-rule:nonzero;fill:rgb(0%,0%,0%);fill-opacity:1;" d="M 902.007812 126.605469 L 901.308594 126.398438 L 912.269531 91.515625 L 914.15625 90.609375 L 912.339844 87.269531 L 919.667969 70.699219 L 942.707031 81.28125 L 942.429688 81.90625 L 920.019531 71.601562 L 913.175781 87.269531 L 915.132812 90.890625 L 912.828125 92.003906 Z M 902.007812 126.605469 "/>
<path style=" stroke:none;fill-rule:nonzero;fill:rgb(5.488586%,66.668701%,100%);fill-opacity:1;" d="M 952.480469 41.316406 L 941.03125 45.84375 L 944.871094 53.710938 Z M 952.480469 41.316406 "/>
<path style=" stroke:none;fill-rule:nonzero;fill:rgb(5.488586%,66.668701%,100%);fill-opacity:1;" d="M 965.324219 42.847656 L 974.191406 51.550781 L 962.535156 56.84375 Z M 965.324219 42.847656 "/>
<path style=" stroke:none;fill-rule:nonzero;fill:rgb(0%,0%,0%);fill-opacity:1;" d="M 957.648438 40.898438 L 956.320312 40.550781 L 957.15625 37.140625 L 954.367188 35.050781 L 954.925781 29.898438 L 953.667969 28.296875 L 956.320312 24.46875 L 957.507812 25.234375 L 955.414062 28.226562 L 956.390625 29.480469 L 955.832031 34.421875 L 958.761719 36.582031 Z M 957.648438 40.898438 "/>
<path style=" stroke:none;fill-rule:nonzero;fill:rgb(0%,0%,0%);fill-opacity:1;" d="M 958.066406 33.449219 C 957.785156 33.449219 957.4375 33.378906 957.226562 33.308594 L 957.4375 32.683594 L 957.296875 33.03125 L 957.4375 32.683594 C 957.578125 32.753906 958.832031 33.101562 959.390625 31.917969 L 960.019531 32.195312 C 959.601562 33.101562 958.761719 33.449219 958.066406 33.449219 Z M 958.066406 33.449219 "/>
<path style=" stroke:none;fill-rule:nonzero;fill:rgb(0%,0%,0%);fill-opacity:1;" d="M 946.894531 55.9375 C 945.5 55.9375 944.3125 55.589844 943.476562 54.824219 C 942.148438 53.640625 942.148438 51.828125 942.148438 51.761719 L 942.148438 51.621094 L 948.152344 45.773438 L 948.640625 46.261719 L 942.847656 51.898438 C 942.847656 52.316406 943.054688 53.429688 943.964844 54.265625 C 944.800781 55.03125 946.128906 55.3125 947.875 55.171875 L 947.941406 55.867188 C 947.59375 55.867188 947.246094 55.9375 946.894531 55.9375 Z M 946.894531 55.9375 "/>
<path style=" stroke:none;fill-rule:nonzero;fill:rgb(0%,0%,0%);fill-opacity:1;" d="M 968.046875 54.683594 L 967.769531 54.058594 L 973.5625 51.414062 L 968.328125 46.261719 L 968.816406 45.773438 L 974.820312 51.621094 Z M 968.046875 54.683594 "/>
<path style=" stroke:none;fill-rule:nonzero;fill:rgb(0%,0%,0%);fill-opacity:1;" d="M 897.820312 127.164062 L 896.421875 134.542969 L 883.367188 140.8125 L 878.96875 140.394531 L 878.96875 143.734375 L 887.207031 146.378906 L 902.84375 142.96875 L 902.148438 138.164062 L 904.519531 130.296875 Z M 897.820312 127.164062 "/>
<path style=" stroke:none;fill-rule:nonzero;fill:rgb(0%,0%,0%);fill-opacity:1;" d="M 873.945312 111.289062 L 869.894531 117.554688 L 858.933594 115.050781 L 855.652344 112.890625 L 852.652344 113.585938 L 855.445312 117.765625 L 872.199219 126.46875 L 874.082031 120.621094 L 879.527344 114.703125 Z M 873.945312 111.289062 "/>
<path style=" stroke:none;fill-rule:nonzero;fill:rgb(0%,0%,0%);fill-opacity:1;" d="M 998.484375 86.78125 L 993.738281 86.78125 L 990.316406 82.257812 L 991.433594 81.421875 L 994.4375 85.390625 L 996.25 85.390625 L 993.039062 78.914062 L 985.710938 81.90625 L 980.613281 70.070312 L 978.449219 68.75 L 970.421875 53.292969 L 971.679688 52.597656 L 979.496094 67.773438 L 981.730469 69.167969 L 986.410156 80.097656 L 993.667969 77.105469 Z M 998.484375 86.78125 "/>
<path style=" stroke:none;fill-rule:nonzero;fill:rgb(0%,0%,0%);fill-opacity:1;" d="M 1001.417969 85.808594 L 996.878906 85.808594 L 996.878906 84.414062 L 998.972656 84.414062 L 996.183594 79.820312 L 994.578125 80.585938 L 994.019531 79.332031 L 996.671875 78.007812 Z M 1001.417969 85.808594 "/>
<path style=" stroke:none;fill-rule:nonzero;fill:rgb(0%,0%,0%);fill-opacity:1;" d="M 981.171875 83.648438 L 979.777344 83.648438 L 979.777344 81.558594 L 973.914062 72.71875 L 972.308594 68.679688 L 966.652344 58.863281 L 967.839844 58.164062 L 973.5625 68.121094 L 975.167969 72.160156 L 981.171875 81.140625 Z M 981.171875 83.648438 "/>
<path style=" stroke:none;fill-rule:nonzero;fill:rgb(0%,0%,0%);fill-opacity:1;" d="M 920.996094 62.550781 L 920.160156 61.4375 L 923.789062 58.652344 L 925.464844 58.652344 L 941.378906 48.277344 L 942.078125 49.460938 L 925.882812 60.046875 L 924.277344 60.046875 Z M 920.996094 62.550781 "/>
<path style=" stroke:none;fill-rule:nonzero;fill:rgb(0%,0%,0%);fill-opacity:1;" d="M 1002.324219 84.136719 L 1001.070312 83.441406 L 1001.765625 82.324219 L 997.71875 81.90625 L 997.859375 80.515625 L 1004 81.140625 Z M 1002.324219 84.136719 "/>
<path style=" stroke:none;fill-rule:nonzero;fill:rgb(0%,0%,0%);fill-opacity:1;" d="M 1046.167969 125.421875 L 1045.539062 124.171875 L 1045.886719 124.796875 L 1045.539062 124.171875 C 1045.609375 124.101562 1047.492188 123.125 1047.910156 120.550781 L 1049.308594 120.757812 C 1048.75 124.101562 1046.234375 125.355469 1046.167969 125.421875 Z M 1046.167969 125.421875 "/>
<path style=" stroke:none;fill-rule:nonzero;fill:rgb(5.488586%,66.668701%,100%);fill-opacity:1;" d="M 965.464844 179.382812 L 1030.109375 179.382812 L 1030.109375 243.855469 L 965.464844 243.855469 Z M 965.464844 179.382812 "/>
<path style=" stroke:none;fill-rule:nonzero;fill:rgb(0%,0%,0%);fill-opacity:1;" d="M 966.234375 202.636719 C 953.667969 202.636719 943.40625 192.402344 943.40625 179.871094 C 943.40625 167.335938 953.667969 157.101562 966.234375 157.101562 C 970.769531 157.101562 975.238281 158.425781 979.007812 161 L 978.242188 162.183594 C 974.679688 159.816406 970.5625 158.566406 966.304688 158.566406 C 954.503906 158.566406 944.871094 168.171875 944.871094 179.941406 C 944.871094 191.707031 954.503906 201.316406 966.304688 201.316406 C 978.101562 201.316406 987.734375 191.707031 987.734375 179.941406 C 987.734375 174.441406 985.640625 169.21875 981.800781 165.179688 L 982.777344 164.203125 C 986.828125 168.453125 989.0625 174.023438 989.0625 179.941406 C 989.0625 192.402344 978.800781 202.636719 966.234375 202.636719 Z M 966.234375 202.636719 "/>
<path style=" stroke:none;fill-rule:nonzero;fill:rgb(0%,0%,0%);fill-opacity:1;" d="M 926.453125 64.699219 L 935.453125 58.835938 L 936.21875 60.003906 L 927.21875 65.867188 Z M 926.453125 64.699219 "/>
<path style=" stroke:none;fill-rule:nonzero;fill:rgb(0%,0%,0%);fill-opacity:1;" d="M 842.320312 202.917969 C 842.25 202.917969 842.109375 202.917969 842.039062 202.917969 C 840.15625 202.777344 839.039062 201.246094 838.96875 201.175781 L 839.527344 200.757812 C 839.527344 200.757812 840.574219 202.082031 842.109375 202.21875 C 843.15625 202.289062 844.273438 201.800781 845.320312 200.6875 L 845.808594 201.175781 C 844.691406 202.359375 843.507812 202.917969 842.320312 202.917969 Z M 842.320312 202.917969 "/>
<path style=" stroke:none;fill-rule:nonzero;fill:rgb(0%,0%,0%);fill-opacity:1;" d="M 840.785156 212.386719 L 839.386719 212.386719 L 839.386719 208.695312 L 834.429688 206.605469 L 834.429688 200.964844 L 835.828125 200.964844 L 835.828125 205.632812 L 840.785156 207.789062 Z M 840.785156 212.386719 "/>
<path style=" stroke:none;fill-rule:nonzero;fill:rgb(0%,0%,0%);fill-opacity:1;" d="M 842.320312 199.574219 L 840.363281 198.597656 L 841.902344 196.09375 L 842.460938 196.441406 L 841.34375 198.320312 L 842.597656 198.949219 Z M 842.320312 199.574219 "/>
<path style=" stroke:none;fill-rule:nonzero;fill:rgb(92.939758%,30.979919%,35.688782%);fill-opacity:1;" d="M 839.457031 214.054688 L 825.214844 224.289062 L 842.460938 235.988281 Z M 839.457031 214.054688 "/>
<path style=" stroke:none;fill-rule:nonzero;fill:rgb(92.939758%,30.979919%,35.688782%);fill-opacity:1;" d="M 845.460938 214.054688 L 859.632812 224.289062 L 842.460938 235.988281 Z M 845.460938 214.054688 "/>
<path style=" stroke:none;fill-rule:nonzero;fill:rgb(0%,0%,0%);fill-opacity:1;" d="M 831.25 228.425781 L 834.796875 221.867188 L 835.410156 222.199219 L 831.863281 228.753906 Z M 831.25 228.425781 "/>
<path style=" stroke:none;fill-rule:nonzero;fill:rgb(0%,0%,0%);fill-opacity:1;" d="M 855.023438 227.839844 L 854.605469 227.285156 L 859.003906 224.289062 L 855.164062 221.507812 L 855.582031 220.949219 L 860.261719 224.289062 Z M 855.023438 227.839844 "/>
<path style=" stroke:none;fill-rule:nonzero;fill:rgb(0%,0%,0%);fill-opacity:1;" d="M 1007.492188 29.828125 C 999.324219 22.308594 991.503906 24.257812 983.894531 26.207031 C 982.011719 26.695312 980.054688 27.183594 978.101562 27.53125 C 965.257812 29.6875 962.953125 18.339844 962.882812 18.269531 L 964.277344 17.992188 C 964.347656 18.410156 966.441406 28.085938 977.890625 26.136719 C 979.707031 25.859375 981.589844 25.371094 983.546875 24.886719 C 991.085938 23.003906 999.671875 20.777344 1008.398438 28.855469 Z M 1007.492188 29.828125 "/>
<path style=" stroke:none;fill-rule:nonzero;fill:rgb(0%,0%,0%);fill-opacity:1;" d="M 975.308594 21.613281 C 974.261719 21.613281 973.285156 21.402344 972.375 20.984375 C 969.792969 19.800781 969.027344 17.367188 968.957031 17.226562 L 970.28125 16.808594 C 970.28125 16.808594 970.910156 18.828125 972.933594 19.734375 C 974.679688 20.5 976.984375 20.289062 979.707031 19.105469 L 979.917969 19.035156 C 988.152344 15.417969 1000.648438 9.984375 1012.519531 19.453125 L 1011.609375 20.566406 C 1000.441406 11.65625 988.921875 16.667969 980.476562 20.359375 L 980.265625 20.429688 C 978.449219 21.195312 976.773438 21.613281 975.308594 21.613281 Z M 975.308594 21.613281 "/>
<path style=" stroke:none;fill-rule:nonzero;fill:rgb(0%,0%,0%);fill-opacity:1;" d="M 999.601562 37.972656 C 996.949219 33.378906 992.414062 29.550781 977.960938 33.171875 C 973.214844 34.355469 969.234375 34.074219 966.09375 32.335938 L 966.792969 31.152344 C 969.585938 32.753906 973.285156 32.960938 977.613281 31.847656 C 993.039062 28.019531 997.996094 32.40625 1000.789062 37.277344 Z M 999.601562 37.972656 "/>
<path style=" stroke:none;fill-rule:nonzero;fill:rgb(0%,0%,0%);fill-opacity:1;" d="M 961.695312 28.019531 C 959.320312 24.121094 959.113281 19.734375 959.113281 19.59375 L 960.507812 19.523438 C 960.507812 19.59375 960.71875 23.703125 962.882812 27.320312 Z M 961.695312 28.019531 "/>
<path style=" stroke:none;fill-rule:nonzero;fill:rgb(0%,0%,0%);fill-opacity:1;" d="M 990.25 43.824219 C 987.59375 38.671875 980.824219 38.113281 975.167969 39.925781 C 968.398438 42.082031 966.164062 38.183594 966.023438 38.042969 L 967.210938 37.347656 C 967.28125 37.488281 969.09375 40.410156 974.679688 38.601562 C 980.824219 36.652344 988.363281 37.277344 991.363281 43.195312 Z M 990.25 43.824219 "/>
<path style=" stroke:none;fill-rule:nonzero;fill:rgb(0%,0%,0%);fill-opacity:1;" d="M 1037.371094 265.507812 L 973.003906 265.507812 L 973.003906 264.117188 L 1036.8125 264.117188 L 1038.136719 262.792969 L 1039.117188 263.769531 Z M 1037.371094 265.507812 "/>
<path style=" stroke:none;fill-rule:nonzero;fill:rgb(0%,0%,0%);fill-opacity:1;" d="M 961.136719 264.117188 L 969.515625 264.117188 L 969.515625 265.507812 L 961.136719 265.507812 Z M 961.136719 264.117188 "/>
<path style=" stroke:none;fill-rule:nonzero;fill:rgb(0%,0%,0%);fill-opacity:1;" d="M 954.15625 265.507812 L 757.152344 265.507812 L 757.152344 184.953125 L 758.546875 184.953125 L 758.546875 264.117188 L 954.15625 264.117188 Z M 954.15625 265.507812 "/>
<path style=" stroke:none;fill-rule:nonzero;fill:rgb(0%,0%,0%);fill-opacity:1;" d="M 758.546875 109.199219 L 757.152344 109.199219 L 757.152344 90.472656 L 764.550781 83.089844 L 864.101562 83.089844 L 864.101562 84.484375 L 765.109375 84.484375 L 758.546875 91.027344 Z M 758.546875 109.199219 "/>
<path style=" stroke:none;fill-rule:nonzero;fill:rgb(0%,0%,0%);fill-opacity:1;" d="M 867.589844 83.089844 L 894.816406 83.089844 L 894.816406 84.484375 L 867.589844 84.484375 Z M 867.589844 83.089844 "/>
<path style=" stroke:none;fill-rule:nonzero;fill:rgb(0%,0%,0%);fill-opacity:1;" d="M 808.042969 258.546875 L 764.132812 258.546875 L 764.132812 83.789062 L 765.527344 83.789062 L 765.527344 257.152344 L 808.042969 257.152344 Z M 808.042969 258.546875 "/>
<path style=" stroke:none;fill-rule:nonzero;fill:rgb(0%,0%,0%);fill-opacity:1;" d="M 825.773438 257.152344 L 860.402344 257.152344 L 860.402344 258.546875 L 825.773438 258.546875 Z M 825.773438 257.152344 "/>
<path style=" stroke:none;fill-rule:nonzero;fill:rgb(0%,0%,0%);fill-opacity:1;" d="M 877.992188 257.152344 L 936.914062 257.152344 L 936.914062 258.546875 L 877.992188 258.546875 Z M 877.992188 257.152344 "/>
<path style=" stroke:none;fill-rule:nonzero;fill:rgb(0%,0%,0%);fill-opacity:1;" d="M 1044.769531 258.824219 L 1037.160156 256.25 L 1034.019531 258.546875 L 940.472656 258.546875 L 940.472656 257.152344 L 1033.53125 257.152344 L 1036.953125 254.71875 L 1043.375 256.875 L 1043.375 204.796875 L 1044.769531 204.796875 Z M 1044.769531 258.824219 "/>
<path style=" stroke:none;fill-rule:nonzero;fill:rgb(0%,0%,0%);fill-opacity:1;" d="M 1044.769531 197.832031 L 1043.375 197.832031 L 1043.375 142.96875 C 1041.699219 142.621094 1040.441406 141.160156 1040.441406 139.417969 C 1040.441406 137.398438 1042.046875 135.796875 1044.070312 135.796875 C 1046.097656 135.796875 1047.703125 137.398438 1047.703125 139.417969 L 1046.304688 139.417969 C 1046.304688 138.234375 1045.328125 137.191406 1044.070312 137.191406 C 1042.816406 137.191406 1041.839844 138.164062 1041.839844 139.417969 C 1041.839844 140.671875 1042.816406 141.644531 1044.070312 141.644531 L 1044.769531 141.644531 Z M 1044.769531 197.832031 "/>
<path style=" stroke:none;fill-rule:nonzero;fill:rgb(0%,0%,0%);fill-opacity:1;" d="M 814.394531 264.046875 L 805.597656 256.667969 L 806.4375 255.621094 L 814.746094 262.515625 L 818.027344 261.609375 L 819.769531 262.097656 L 822.355469 260.636719 L 824.9375 260.703125 L 826.191406 259.382812 L 817.046875 248.171875 L 809.507812 249.007812 L 793.382812 258.476562 L 792.683594 257.222656 L 809.089844 247.683594 L 817.605469 246.710938 L 828.078125 259.453125 L 825.496094 262.167969 L 822.703125 262.027344 L 819.980469 263.558594 L 818.027344 263.070312 Z M 814.394531 264.046875 "/>
<path style=" stroke:none;fill-rule:nonzero;fill:rgb(0%,0%,0%);fill-opacity:1;" d="M 810.957031 245.605469 L 827.367188 227.175781 L 828.414062 228.101562 L 812 246.527344 Z M 810.957031 245.605469 "/>
<path style=" stroke:none;fill-rule:nonzero;fill:rgb(0%,0%,0%);fill-opacity:1;" d="M 813.5625 257.992188 L 814.074219 257.519531 L 818.265625 261.996094 L 817.757812 262.46875 Z M 813.5625 257.992188 "/>
<path style=" stroke:none;fill-rule:nonzero;fill:rgb(0%,0%,0%);fill-opacity:1;" d="M 817.710938 256.269531 L 818.242188 255.816406 L 822.789062 261.097656 L 822.261719 261.554688 Z M 817.710938 256.269531 "/>
<path style=" stroke:none;fill-rule:nonzero;fill:rgb(0%,0%,0%);fill-opacity:1;" d="M 871.640625 264.046875 L 868.078125 263.070312 L 866.125 263.558594 L 863.332031 262.027344 L 860.539062 262.167969 L 857.957031 259.453125 L 868.429688 246.710938 L 877.015625 247.683594 L 893.351562 257.222656 L 892.652344 258.476562 L 876.527344 249.007812 L 868.988281 248.171875 L 859.84375 259.382812 L 861.097656 260.703125 L 863.679688 260.636719 L 866.265625 262.097656 L 868.078125 261.609375 L 871.289062 262.515625 L 879.597656 255.621094 L 880.507812 256.667969 Z M 871.640625 264.046875 "/>
<path style=" stroke:none;fill-rule:nonzero;fill:rgb(0%,0%,0%);fill-opacity:1;" d="M 867.808594 262.082031 L 872.003906 257.605469 L 872.515625 258.082031 L 868.320312 262.558594 Z M 867.808594 262.082031 "/>
<path style=" stroke:none;fill-rule:nonzero;fill:rgb(0%,0%,0%);fill-opacity:1;" d="M 863.320312 261.078125 L 867.867188 255.792969 L 868.394531 256.246094 L 863.847656 261.53125 Z M 863.320312 261.078125 "/>
<path style=" stroke:none;fill-rule:nonzero;fill:rgb(0%,0%,0%);fill-opacity:1;" d="M 859.058594 229.070312 L 860.164062 228.222656 L 872.789062 244.625 L 871.683594 245.472656 Z M 859.058594 229.070312 "/>
<path style=" stroke:none;fill-rule:nonzero;fill:rgb(0%,0%,0%);fill-opacity:1;" d="M 957.855469 59.765625 C 957.714844 59.765625 957.648438 59.765625 957.507812 59.765625 C 954.714844 59.558594 952.828125 56.5625 952.761719 56.425781 L 953.386719 56.078125 C 953.386719 56.078125 955.203125 58.933594 957.578125 59.140625 C 958.902344 59.28125 960.160156 58.582031 961.417969 57.191406 L 961.976562 57.679688 C 960.648438 59 959.253906 59.765625 957.855469 59.765625 Z M 957.855469 59.765625 "/>
<path style=" stroke:none;fill-rule:nonzero;fill:rgb(0%,0%,0%);fill-opacity:1;" d="M 843.296875 192.472656 C 832.546875 192.472656 828.636719 184.257812 828.566406 184.117188 L 829.824219 183.558594 C 830.03125 183.976562 835.058594 194.351562 850 190.035156 L 850.417969 191.359375 C 847.835938 192.195312 845.460938 192.472656 843.296875 192.472656 Z M 843.296875 192.472656 "/>
<path style=" stroke:none;fill-rule:nonzero;fill:rgb(0%,0%,0%);fill-opacity:1;" d="M 845.460938 188.433594 C 834.292969 188.433594 832.058594 179.382812 831.988281 179.242188 L 833.3125 178.894531 L 832.617188 179.035156 L 833.3125 178.894531 C 833.382812 179.3125 835.898438 188.921875 849.300781 186.625 L 849.511719 188.015625 C 848.042969 188.292969 846.648438 188.433594 845.460938 188.433594 Z M 845.460938 188.433594 "/>
<path style=" stroke:none;fill-rule:nonzero;fill:rgb(0%,0%,0%);fill-opacity:1;" d="M 848.042969 185.09375 C 839.597656 184.535156 837.78125 178.824219 837.710938 178.617188 L 839.039062 178.199219 C 839.109375 178.40625 840.714844 183.210938 848.113281 183.699219 Z M 848.042969 185.09375 "/>
<path style=" stroke:none;fill-rule:nonzero;fill:rgb(0%,0%,0%);fill-opacity:1;" d="M 732.160156 132.875 L 725.804688 132.875 L 725.804688 109.199219 L 727.203125 109.199219 L 727.203125 131.480469 L 732.160156 131.480469 Z M 732.160156 132.875 "/>
<path style=" stroke:none;fill-rule:nonzero;fill:rgb(0%,0%,0%);fill-opacity:1;" d="M 750.238281 132.875 L 735.648438 132.875 L 735.648438 131.480469 L 748.84375 131.480469 L 748.84375 109.898438 L 746.539062 109.898438 L 746.539062 108.503906 L 750.238281 108.503906 Z M 750.238281 132.875 "/>
<g clip-path="url(#clip10)" clip-rule="nonzero">
<path style=" stroke:none;fill-rule:nonzero;fill:rgb(0%,0%,0%);fill-opacity:1;" d="M 726.085938 143.316406 L 715.335938 143.316406 L 715.335938 119.367188 L 726.222656 108.503906 L 743.050781 108.503906 L 743.050781 109.898438 L 726.851562 109.898438 L 716.730469 119.992188 L 716.730469 141.925781 L 726.085938 141.925781 Z M 726.085938 143.316406 "/>
</g>
<path style=" stroke:none;fill-rule:nonzero;fill:rgb(0%,0%,0%);fill-opacity:1;" d="M 757.324219 264.308594 L 764.285156 257.367188 L 765.269531 258.351562 L 758.3125 265.292969 Z M 757.324219 264.308594 "/>
<path style=" stroke:none;fill-rule:nonzero;fill:rgb(100%,100%,100%);fill-opacity:1;" d="M 782.703125 94.230469 L 851.324219 94.230469 C 853.28125 94.230469 854.816406 92.699219 854.816406 90.75 C 854.816406 88.800781 853.28125 87.269531 851.324219 87.269531 L 782.703125 87.269531 C 780.746094 87.269531 779.210938 88.800781 779.210938 90.75 C 779.210938 92.699219 780.816406 94.230469 782.703125 94.230469 Z M 782.703125 94.230469 "/>
<g clip-path="url(#clip11)" clip-rule="nonzero">
<path style=" stroke:none;fill-rule:nonzero;fill:rgb(0%,0%,0%);fill-opacity:1;" d="M 715.542969 142.148438 L 726.007812 131.710938 L 726.992188 132.695312 L 716.527344 143.132812 Z M 715.542969 142.148438 "/>
</g>
<path style=" stroke:none;fill-rule:nonzero;fill:rgb(0%,0%,0%);fill-opacity:1;" d="M 847.90625 182.375 C 847.835938 182.375 845.390625 181.679688 844.34375 178.894531 L 845.671875 178.40625 C 846.4375 180.496094 848.253906 180.984375 848.253906 180.984375 Z M 847.90625 182.375 "/>
<g clip-path="url(#clip12)" clip-rule="nonzero">
<path style=" stroke:none;fill-rule:nonzero;fill:rgb(100%,100%,100%);fill-opacity:1;" d="M 483.261719 115.472656 L 465.808594 98.019531 L 483.261719 80.492188 L 465.808594 63.039062 L 448.28125 80.492188 L 430.824219 63.039062 L 413.371094 80.492188 L 430.824219 98.019531 L 413.371094 115.472656 L 430.824219 132.929688 L 448.28125 115.472656 L 465.808594 132.929688 Z M 483.261719 115.472656 "/>
</g>
<g clip-path="url(#clip13)" clip-rule="nonzero">
<path style=" stroke:none;fill-rule:nonzero;fill:rgb(0%,0%,0%);fill-opacity:1;" d="M 108.078125 251.875 L 74.070312 251.875 L 74.070312 250.492188 L 106.695312 250.492188 L 106.695312 202.976562 L 59.175781 202.976562 L 59.175781 250.492188 L 70.605469 250.492188 L 70.605469 251.875 L 57.792969 251.875 L 57.792969 201.589844 L 108.078125 201.589844 Z M 108.078125 251.875 "/>
</g>
<g clip-path="url(#clip14)" clip-rule="nonzero">
<path style=" stroke:none;fill-rule:nonzero;fill:rgb(5.488586%,66.668701%,100%);fill-opacity:1;" d="M 65.410156 195.355469 L 114.3125 195.355469 L 114.3125 244.257812 L 65.410156 244.257812 Z M 65.410156 195.355469 "/>
</g>
<g style="fill:rgb(100%,100%,100%);fill-opacity:1;">
  <use xlink:href="#glyph0-1" x="92.63209" y="144.659778"/>
</g>
<g style="fill:rgb(100%,100%,100%);fill-opacity:1;">
  <use xlink:href="#glyph0-2" x="132.165027" y="144.659778"/>
</g>
<g style="fill:rgb(100%,100%,100%);fill-opacity:1;">
  <use xlink:href="#glyph0-3" x="171.381701" y="144.659778"/>
</g>
<g style="fill:rgb(100%,100%,100%);fill-opacity:1;">
  <use xlink:href="#glyph0-4" x="213.697749" y="144.659778"/>
</g>
<g style="fill:rgb(100%,100%,100%);fill-opacity:1;">
  <use xlink:href="#glyph0-5" x="238.61931" y="144.659778"/>
</g>
<g style="fill:rgb(100%,100%,100%);fill-opacity:1;">
  <use xlink:href="#glyph0-6" x="254.875252" y="144.659778"/>
</g>
<g style="fill:rgb(100%,100%,100%);fill-opacity:1;">
  <use xlink:href="#glyph0-7" x="297.570836" y="144.659778"/>
</g>
<g style="fill:rgb(100%,100%,100%);fill-opacity:1;">
  <use xlink:href="#glyph0-8" x="334.447156" y="144.659778"/>
</g>
<g style="fill:rgb(100%,100%,100%);fill-opacity:1;">
  <use xlink:href="#glyph0-7" x="92.63209" y="207.640205"/>
</g>
<g style="fill:rgb(100%,100%,100%);fill-opacity:1;">
  <use xlink:href="#glyph0-9" x="129.50841" y="207.640205"/>
</g>
<g style="fill:rgb(100%,100%,100%);fill-opacity:1;">
  <use xlink:href="#glyph0-10" x="172.077479" y="207.640205"/>
</g>
<g style="fill:rgb(100%,100%,100%);fill-opacity:1;">
  <use xlink:href="#glyph0-7" x="209.839335" y="207.640205"/>
</g>
<g style="fill:rgb(100%,100%,100%);fill-opacity:1;">
  <use xlink:href="#glyph0-6" x="246.715655" y="207.640205"/>
</g>
<g style="fill:rgb(100%,100%,100%);fill-opacity:1;">
  <use xlink:href="#glyph0-11" x="289.411228" y="207.640205"/>
</g>
<path style=" stroke:none;fill-rule:nonzero;fill:rgb(100%,63.529968%,55.288696%);fill-opacity:1;" d="M 68.742188 110.742188 C 68.023438 110.742188 67.3125 110.8125 66.605469 110.953125 C 65.902344 111.09375 65.21875 111.300781 64.550781 111.578125 C 63.886719 111.851562 63.257812 112.191406 62.660156 112.589844 C 62.0625 112.988281 61.507812 113.441406 61 113.949219 C 60.492188 114.460938 60.035156 115.011719 59.636719 115.609375 C 59.238281 116.207031 58.902344 116.839844 58.625 117.503906 C 58.351562 118.167969 58.140625 118.851562 58.003906 119.558594 C 57.863281 120.265625 57.792969 120.976562 57.792969 121.695312 C 57.792969 122.414062 57.863281 123.125 58.003906 123.832031 C 58.140625 124.539062 58.351562 125.222656 58.625 125.886719 C 58.902344 126.550781 59.238281 127.183594 59.636719 127.78125 C 60.035156 128.378906 60.492188 128.929688 61 129.441406 C 61.507812 129.949219 62.0625 130.402344 62.660156 130.800781 C 63.257812 131.199219 63.886719 131.539062 64.550781 131.8125 C 65.21875 132.089844 65.902344 132.296875 66.605469 132.4375 C 67.3125 132.578125 68.023438 132.648438 68.742188 132.648438 C 69.460938 132.648438 70.175781 132.578125 70.878906 132.4375 C 71.585938 132.296875 72.269531 132.089844 72.933594 131.8125 C 73.597656 131.539062 74.230469 131.199219 74.828125 130.800781 C 75.425781 130.402344 75.980469 129.949219 76.488281 129.441406 C 76.996094 128.929688 77.449219 128.378906 77.851562 127.78125 C 78.25 127.183594 78.585938 126.550781 78.863281 125.886719 C 79.136719 125.222656 79.34375 124.539062 79.484375 123.832031 C 79.625 123.125 79.695312 122.414062 79.695312 121.695312 C 79.695312 120.976562 79.625 120.265625 79.484375 119.558594 C 79.34375 118.851562 79.136719 118.167969 78.863281 117.503906 C 78.585938 116.839844 78.25 116.207031 77.851562 115.609375 C 77.449219 115.011719 76.996094 114.460938 76.488281 113.949219 C 75.980469 113.441406 75.425781 112.988281 74.828125 112.589844 C 74.230469 112.191406 73.597656 111.851562 72.933594 111.578125 C 72.269531 111.300781 71.585938 111.09375 70.878906 110.953125 C 70.175781 110.8125 69.460938 110.742188 68.742188 110.742188 Z M 68.742188 110.742188 "/>
</g>
</svg>
